<?xml version="1.0" encoding="UTF-8" standalone="no"?>
<svg
   width="64"
   height="64"
   viewBox="0 0 16.93344 16.933"
   xml:space="preserve"
   version="1.1"
   id="svg16"
   sodipodi:docname="favicon.svg"
   inkscape:version="1.2.2 (732a01da63, 2022-12-09)"
   inkscape:export-filename="images\logo.png"
   inkscape:export-xdpi="384"
   inkscape:export-ydpi="384"
   xmlns:inkscape="http://www.inkscape.org/namespaces/inkscape"
   xmlns:sodipodi="http://sodipodi.sourceforge.net/DTD/sodipodi-0.dtd"
   xmlns:xlink="http://www.w3.org/1999/xlink"
   xmlns="http://www.w3.org/2000/svg"
   xmlns:svg="http://www.w3.org/2000/svg"><sodipodi:namedview
     id="namedview70008"
     pagecolor="#ffffff"
     bordercolor="#000000"
     borderopacity="0.25"
     inkscape:showpageshadow="2"
     inkscape:pageopacity="0.0"
     inkscape:pagecheckerboard="0"
     inkscape:deskcolor="#d1d1d1"
     showgrid="false"
     inkscape:zoom="9.2476309"
     inkscape:cx="89.968989"
     inkscape:cy="36.982445"
     inkscape:window-width="2560"
     inkscape:window-height="1017"
     inkscape:window-x="-8"
     inkscape:window-y="-8"
     inkscape:window-maximized="1"
     inkscape:current-layer="svg16" /><defs
     id="defs8"><linearGradient
       id="a"><stop
         style="stop-color:#f60;stop-opacity:1"
         offset="0"
         id="stop2" /><stop
         style="stop-color:#f0f;stop-opacity:1"
         offset="1"
         id="stop4" /></linearGradient><linearGradient
       xlink:href="#a"
       id="b"
       x1="9.9110003"
       y1="27.725"
       x2="19.257"
       y2="36.005001"
       gradientUnits="userSpaceOnUse"
       gradientTransform="matrix(1.4025322,0,0,1.4025322,-12.465751,-36.617446)" /><linearGradient
       inkscape:collect="always"
       xlink:href="#a"
       id="linearGradient6994-4"
       x1="-15.234996"
       y1="8.1326065"
       x2="0.87738293"
       y2="8.1326065"
       gradientUnits="userSpaceOnUse"
       gradientTransform="matrix(3.8026511,0,0,3.8026511,33.926984,-0.53692609)" /></defs><path
     id="path23406-8"
     style="fill:#ffd5d5;fill-opacity:0.90404;stroke:#e20000;stroke-width:1.01695;stroke-dasharray:none;stroke-opacity:1"
     d="m 17.456897,17.246898 v -6.11026 C 17.211079,10.891305 16.45667,10.618589 16.342258,10.273119 15.639308,9.6256555 14.866772,8.7575896 15.221906,7.7254553 15.164633,6.2307359 14.242043,4.9502652 13.680388,3.6078512 12.709066,1.9339157 10.866316,0.48615418 8.8300076,0.80903803 8.7183859,0.75526041 8.6014307,0.73255726 8.4811895,0.72842229 8.4586441,0.72764769 8.4357274,0.72744177 8.4129762,0.72790552 8.0717066,0.73486173 7.7091721,0.87191909 7.3784075,0.866916 5.3973365,1.0264943 3.9116903,2.5275178 2.9321392,4.1390883 2.5308655,4.9789203 1.7058357,5.7200876 1.8474441,6.7048393 1.6144892,7.3561699 2.1065348,8.1026328 1.887752,8.6592543 1.1296379,9.4959154 0.11522628,10.521584 -0.47469214,11.474087 v 5.772811"
     sodipodi:nodetypes="ccccccsscccccc" /><path
     id="path3018-5"
     style="fill:url(#linearGradient6994-4);fill-opacity:1;stroke-width:0.151253"
     d="M 8.5075446 0.72067077 C 8.1666349 0.71530179 7.4186718 0.85419157 7.2006394 0.91290831 C 7.0728789 0.94732462 6.9632613 0.97378473 6.8631902 0.984739 C 6.5563677 1.0752289 6.0839468 1.1186493 5.7759112 1.2720618 C 5.4082017 1.4551935 5.0745872 1.7064837 4.7635635 1.9748657 C 4.3625604 2.320911 3.9747537 2.6899444 3.6483791 3.1071034 C 3.2105918 3.6666808 2.8291743 4.2710861 2.4820347 4.8909851 L 1.8314243 6.0526786 C 1.8391943 6.1302266 1.9512393 6.5979974 1.8603633 6.8371318 C 1.7443393 7.1422341 1.7489929 7.4352666 1.8753495 7.8866868 C 2.0499556 8.510374 2.0468635 8.5180196 1.2826171 9.4664453 C 0.86033948 9.9904478 0.43716979 10.662549 0.3426169 10.959904 C 0.29072252 11.123179 0.17677923 11.341469 0.040307871 11.55367 L 0.040307871 12.142785 C 0.18804612 11.964727 0.32653761 11.813885 0.40721285 11.747457 C 0.54525509 11.633779 0.72510471 11.293171 0.80719096 10.99091 C 0.88927376 10.688622 1.322217 10.023281 1.7688954 9.5124376 L 2.5812541 8.5838062 L 2.4293244 7.8437951 C 2.281349 7.121272 2.2973069 7.064737 3.0897533 5.520408 C 4.217106 3.3234829 5.1861798 2.3420235 6.6518323 1.9102697 C 7.2949201 1.720803 7.922291 1.6158514 8.4233115 1.6002092 C 8.4544035 1.5992417 8.4851632 1.5988889 8.5152962 1.5986589 L 8.5158129 1.5986589 C 8.9699597 1.5944325 9.307293 1.668306 9.4356592 1.822936 C 9.5404615 1.9492095 9.6335758 2.3067632 9.642883 2.6172078 C 9.6569671 3.0892354 9.6058589 3.1885894 9.3286883 3.2280271 C 9.1464373 3.2538306 8.8357858 3.169838 8.6382868 3.0404404 C 8.1725508 2.7352993 6.8616399 2.5449718 6.8616399 2.7825734 C 6.8616399 2.8770502 7.0488567 2.9591258 7.2776378 2.9649924 C 8.3330782 2.9919722 8.2708065 3.1766342 6.9846306 3.8331619 C 6.293184 4.1861305 5.2552251 4.7629667 4.6782969 5.1142287 L 3.6292587 5.7524367 L 3.6633654 6.7358454 C 3.7303242 8.7042194 2.6391817 11.310885 1.2640135 12.469898 C 0.65402183 12.984017 0.23821663 13.561902 0.040307871 14.158178 L 0.040307871 17.246898 L 1.3151735 17.246898 C 1.3694533 17.053863 1.3087852 17.02107 1.0387028 17.02107 C 0.42880448 17.02107 0.18457496 16.356118 0.37052235 15.201532 C 0.56503328 13.993876 0.6579371 13.823231 1.7771637 12.634231 C 2.3582371 12.016924 2.8968837 11.241932 3.2251465 10.550624 L 3.7481152 9.4499087 L 3.9372522 10.375956 C 4.0993445 11.170691 4.3213409 11.622599 5.2209028 12.985116 C 5.2781648 13.071846 5.7832635 12.838709 6.4203204 12.431141 C 7.6032108 11.674329 7.7949318 11.626166 8.3706012 11.944863 C 8.6973677 12.125765 8.8139063 12.117684 9.2873469 11.876132 C 9.8785259 11.574551 9.7987547 11.554785 12.03345 12.537078 C 12.54009 12.759785 12.61266 12.760896 12.827722 12.545863 C 13.18796 12.185623 13.399319 11.73856 13.669019 10.764565 L 13.914484 9.8772755 L 14.498431 10.99091 C 14.819294 11.603639 15.335173 12.445668 15.645138 12.861608 C 16.375859 13.842154 16.693934 14.820724 16.691076 16.08107 C 16.689576 16.675926 16.656952 17.055847 16.575837 17.246898 L 16.913286 17.246898 L 16.913286 13.528755 C 16.834116 13.349147 16.548381 13.030741 16.251307 12.795462 C 15.903465 12.520001 15.448971 11.903165 15.1046 11.238958 C 14.790871 10.633833 14.369607 9.917188 14.168217 9.6462804 C 13.916064 9.3070771 13.71064 8.6714431 13.508304 7.6045317 C 13.095733 5.4290115 13.124571 5.5188776 12.598794 4.7251027 C 12.10978 3.986836 11.082626 3.2564493 10.533274 3.2564493 C 10.299853 3.2564493 10.205188 3.135786 10.148798 2.7655201 C 10.10781 2.4951424 10.088434 2.2567779 10.106424 2.2358333 C 10.115024 2.2256673 10.135719 2.2216214 10.166369 2.2223974 L 10.166885 2.2223974 C 10.177055 2.2226522 10.188355 2.2236012 10.200475 2.2249812 C 10.548204 2.2633042 11.718808 2.7231179 12.161608 3.0161524 C 12.896957 3.5027735 13.353391 4.2853381 14.055561 6.2640366 C 14.521722 7.5771322 14.597915 7.9600531 14.522202 8.5993093 C 14.432144 9.3594765 14.436082 9.3685606 15.221906 10.179068 C 16.108553 11.093595 16.285952 11.265004 16.913286 11.738672 L 16.913286 11.184181 C 16.777505 11.037687 16.693143 10.910815 16.693143 10.839497 C 16.693143 10.697896 16.352036 10.246138 15.936079 9.8364508 C 15.269017 9.1794421 15.180048 9.0175991 15.180048 8.4623659 C 15.180048 8.1161239 15.305987 7.4393694 15.181081 7.085697 C 15.070267 6.770962 14.978032 6.4611371 14.958871 6.3451691 L 14.743896 5.8687094 C 14.62126 5.5967305 14.463702 5.3414673 14.343918 5.0682364 C 14.23297 4.8151448 14.168518 4.5421159 14.051944 4.2915347 C 13.925242 4.0191628 13.768029 3.7621449 13.615275 3.5034642 C 13.5172 3.337344 13.419203 3.1698785 13.300047 3.0182194 C 13.107178 2.7726747 12.914477 2.5228662 12.681993 2.314382 C 12.402035 2.0633245 11.890218 1.5658114 11.564742 1.3774824 C 11.243527 1.1916137 10.905287 1.0205865 10.545676 0.92892811 C 10.069132 0.77958328 9.568576 0.76290478 9.0682375 0.79043439 C 8.9427076 0.78495141 8.6504662 0.88303316 8.6780779 0.78319965 L 8.6780779 0.78268288 C 8.6897179 0.74051066 8.6211837 0.72245277 8.5075446 0.72067077 z M 10.016506 3.4662569 C 10.216609 3.4664168 10.382313 3.4987664 10.570481 3.5608254 C 11.963063 4.0204217 12.849307 5.5038466 13.088172 7.7755817 C 13.263794 9.4455564 13.263943 10.61844 12.986886 11.572273 C 12.618275 12.56232 11.936051 12.066007 11.519266 11.89732 C 9.7949485 11.192173 9.7647243 11.185533 9.3436746 11.441014 C 8.9956347 11.652225 8.8745647 11.656219 8.333394 11.469953 C 7.6265667 11.226443 7.2427436 11.333396 6.2523709 12.0508 C 5.9236879 12.288875 5.5950161 12.483334 5.5226951 12.483334 C 5.4503443 12.483334 5.1635662 12.058097 4.8855207 11.538166 C 4.3939867 10.618946 4.3793204 10.535669 4.3284452 8.5171432 C 4.2944174 7.1766457 4.3350575 6.3292908 4.4447179 6.1250261 C 4.537835 5.9510451 4.9211676 5.6770995 5.2963509 5.5162739 C 5.6715685 5.35547 6.2625941 4.995022 6.6094573 4.7147674 C 7.4608331 4.0268914 7.6993496 3.9158053 8.9555821 3.6300722 C 9.3910107 3.5310614 9.6874786 3.4782098 9.9286555 3.4678072 C 9.9587653 3.4665472 9.987916 3.4662569 10.016506 3.4662569 z M 11.308425 8.3063021 C 11.275575 8.3065477 11.236856 8.307983 11.192669 8.310953 C 11.074724 8.318033 10.914787 8.3328037 10.70484 8.3538447 C 9.7238803 8.4505171 9.6673196 8.4693155 9.7875779 8.6639052 C 9.9318775 8.897365 11.070641 8.7932261 11.342015 8.5217941 C 11.499996 8.3637705 11.538451 8.3050986 11.308425 8.3068188 L 11.308425 8.3063021 z M 6.9339874 8.31302 C 6.1846623 8.30994 5.2619388 8.4399991 5.578506 8.5636523 C 5.743414 8.6280531 6.1700965 8.6854649 6.5262577 8.6912939 C 6.9551685 8.6983739 7.2033851 8.7786079 7.2611012 8.929007 C 7.3330522 9.1164404 7.409926 9.0969302 7.7029375 8.8158349 L 8.0579568 8.475285 L 7.5732289 8.3662471 C 7.4142261 8.3306542 7.183771 8.3141166 6.9339874 8.31302 z M 15.536617 16.656233 C 15.472408 16.661881 15.519346 16.873699 15.637387 17.246898 L 16.142269 17.246898 C 16.078879 17.189378 16.009092 17.116662 15.931944 17.026755 C 15.739394 16.802354 15.614336 16.675377 15.551087 16.657783 C 15.545803 16.656313 15.540898 16.655856 15.536617 16.656233 z " /><path
     style="fill:#ff289b;fill-opacity:1;stroke:#e20000;stroke-width:0.44519;stroke-linecap:round;stroke-linejoin:round;stroke-dasharray:none;stroke-opacity:1;paint-order:markers stroke fill;stop-color:#000000"
     d="m 4.571082,14.273397 c 0.5950719,0.159713 1.1537137,0.512359 1.7917096,0.459817 1.1118315,0.01683 2.2319329,0.03329 3.3302457,-0.167132 0.7773057,-0.129745 1.5637797,-0.360042 2.1873587,-0.862052 0.274862,-0.18288 0.581139,-0.466566 0.937062,-0.327696 0.428912,0.130099 0.699282,0.659124 0.473036,1.067756 -0.277293,0.621936 -0.991025,0.843078 -1.597881,1.002313 -1.544217,0.403766 -3.1369527,0.693819 -4.7393894,0.610036 -0.4559672,-0.02072 -0.917014,0.01756 -1.3697007,-0.03158 C 5.2864661,15.98924 4.7412083,15.764626 4.8976914,15.414183 4.9581285,15.278818 5.0544247,15.126688 4.8005305,15.140816 4.4277406,15.121477 4.0063805,14.25988 4.5710877,14.273391 Z"
     id="path14397-9"
     sodipodi:nodetypes="aaaaaaaaasaa" /><path
     style="fill:none;fill-opacity:1;stroke:#e20000;stroke-width:0.222594;stroke-linecap:round;stroke-linejoin:round;stroke-dasharray:none;stroke-opacity:1;paint-order:markers stroke fill;stop-color:#000000"
     d="m 4.9394102,15.290439 c 1.3460639,0.148692 2.7077402,0.15724 4.0775688,0.06527 1.290638,-0.150878 2.566983,-0.385485 3.546081,-1.082738"
     id="path14399-4"
     sodipodi:nodetypes="ccc" /></svg>
