<?xml version="1.0" encoding="UTF-8" standalone="no"?>
<svg
   width="64"
   height="64"
   viewBox="0 0 16.93344 16.933"
   xml:space="preserve"
   version="1.1"
   id="svg16"
   sodipodi:docname="favicon.svg"
   inkscape:version="1.2.2 (732a01da63, 2022-12-09)"
   inkscape:export-filename="images\logo.png"
   inkscape:export-xdpi="384"
   inkscape:export-ydpi="384"
   xmlns:inkscape="http://www.inkscape.org/namespaces/inkscape"
   xmlns:sodipodi="http://sodipodi.sourceforge.net/DTD/sodipodi-0.dtd"
   xmlns:xlink="http://www.w3.org/1999/xlink"
   xmlns="http://www.w3.org/2000/svg"
   xmlns:svg="http://www.w3.org/2000/svg"><sodipodi:namedview
     id="namedview70008"
     pagecolor="#ffffff"
     bordercolor="#000000"
     borderopacity="0.25"
     inkscape:showpageshadow="2"
     inkscape:pageopacity="0.0"
     inkscape:pagecheckerboard="0"
     inkscape:deskcolor="#d1d1d1"
     showgrid="false"
     inkscape:zoom="9.2476309"
     inkscape:cx="89.968989"
     inkscape:cy="36.982445"
     inkscape:window-width="2560"
     inkscape:window-height="1017"
     inkscape:window-x="-8"
     inkscape:window-y="-8"
     inkscape:window-maximized="1"
     inkscape:current-layer="svg16" /><defs
     id="defs8"><linearGradient
       id="a"><stop
         style="stop-color:#f60;stop-opacity:1"
         offset="0"
         id="stop2" /><stop
         style="stop-color:#f0f;stop-opacity:1"
         offset="1"
         id="stop4" /></linearGradient><linearGradient
       xlink:href="#a"
       id="b"
       x1="9.9110003"
       y1="27.725"
       x2="19.257"
       y2="36.005001"
       gradientUnits="userSpaceOnUse"
       gradientTransform="matrix(1.4025322,0,0,1.4025322,-12.465751,-36.617446)" /><linearGradient
       inkscape:collect="always"
       xlink:href="#a"
       id="linearGradient6994-4"
       x1="-15.234996"
       y1="8.1326065"
       x2="0.87738293"
       y2="8.1326065"
       gradientUnits="userSpaceOnUse"
       gradientTransform="matrix(3.8026511,0,0,3.8026511,33.926984,-0.53692609)" /></defs><path
     id="path23406-8"
     style="fill:#ffd5d5;fill-opacity:0.90404;stroke:#e20000;stroke-width:1.01695;stroke-dasharray:none;stroke-opacity:1"
     d="m 17.456897,17.246898 v -6.11026 C 17.211079,10.891305 16.45667,10.618589 16.342258,10.273119 15.639308,9.6256555 14.866772,8.7575896 15.221906,7.7254553 15.164633,6.2307359 14.242043,4.9502652 13.680388,3.6078512 12.709066,1.9339157 10.866316,0.48615418 8.8300076,0.80903803 8.7183859,0.75526041 8.6014307,0.73255726 8.4811895,0.72842229 8.4586441,0.72764769 8.4357274,0.72744177 8.4129762,0.72790552 8.0717066,0.73486173 7.7091721,0.87191909 7.3784075,0.866916 5.3973365,1.0264943 3.9116903,2.5275178 2.9321392,4.1390883 2.5308655,4.9789203 1.7058357,5.7200876 1.8474441,6.7048393 1.6144892,7.3561699 2.1065348,8.1026328 1.887752,8.6592543 1.1296379,9.4959154 0.11522628,10.521584 -0.47469214,11.474087 v 5.772811"
     sodipodi:nodetypes="ccccccsscccccc" /><g
     id="g16499"
     transform="matrix(1.2949543,0,0,1.2949543,-34.879456,0.16014851)"><path
       style="fill:#ff26a1;fill-opacity:1;stroke:none;stroke-width:0.105834;stroke-linecap:round;stroke-linejoin:round;stroke-dasharray:none;stroke-opacity:1;paint-order:normal;stop-color:#000000"
       d="m 30.478171,7.2317425 c 0.585117,0.2629926 1.217732,0.4419139 1.86374,0.4301607 0.322331,0.0085 0.64835,0.094767 0.966856,6.4e-5 0.220649,-0.038611 0.442004,-0.098496 0.555583,-0.3038701 0.205051,-0.053191 0.346114,0.1814064 0.545133,0.2122658 0.559785,0.2259924 1.189983,0.16847 1.763942,0.032098 0.261963,-0.085349 0.481806,-0.2645256 0.748967,-0.3384386 0.23869,-0.077594 0.433289,-0.4229084 0.09613,-0.5186643 C 36.784159,6.6119116 36.494192,6.6429892 36.262183,6.4983151 35.976588,6.3845926 35.726166,6.1516427 35.401723,6.1642229 35.021071,6.1520251 34.631922,6.1344057 34.266675,6.2642702 33.952176,6.3294399 33.662286,6.5619043 33.330308,6.5024861 33.102915,6.3941975 32.877146,6.2772157 32.628524,6.2214179 32.236497,6.1076406 31.823151,6.0922251 31.421727,6.1630685 c -0.274686,0.033081 -0.585362,0.020752 -0.791822,0.2391962 -0.20907,0.1717164 -0.412668,0.4428675 -0.330806,0.7281189 0.02618,0.077064 0.115953,0.076445 0.179072,0.1013589 z"
       id="path4607"
       sodipodi:nodetypes="aaaaaaaaaaaaaaaaaaaaaaaaaaaaaaaaaaaaa" /><path
       id="path4551"
       style="fill:#ff26a1;fill-opacity:1;stroke:none;stroke-width:0.105834;stroke-linecap:round;stroke-linejoin:round;stroke-dasharray:none;stroke-opacity:1;paint-order:normal;stop-color:#000000"
       d="m 31.262128,5.8684287 c -0.241462,0.043725 -0.584396,0.054918 -0.733567,0.2683158 -0.03671,0.05252 0,0.1922376 0,0.1922376 0.134004,-0.04142 0.277494,-0.1611667 0.417448,-0.1778892 0.367927,-0.069433 0.676381,-0.1454292 1.052846,-0.1644003 0.380311,-0.033531 0.808579,0.012271 1.176846,0.1196437 0.25007,0.1168895 0.956169,0.2364394 0.411438,0.012718 C 33.03056,5.8311987 32.369422,5.650196 31.262128,5.8684287 Z"
       sodipodi:nodetypes="cacccccc" /><path
       style="fill:#ffffff;stroke:none;stroke-width:0.0995744;stroke-linecap:round;stroke-linejoin:round;stroke-dasharray:none;stroke-opacity:1;paint-order:normal;stop-color:#000000"
       d="m 30.638758,6.8667889 c 0.09965,-0.3202423 0.432064,-0.5025129 0.750286,-0.5299185 0.493008,-0.087607 1.017327,-0.077216 1.49211,0.087071 0.218987,0.1333103 0.46224,0.3243529 0.734579,0.231254 0.304996,-0.083096 0.587822,-0.2407013 0.906356,-0.2753951 0.342998,-0.061062 0.699565,-0.081863 1.041569,-0.00322 0.241467,0.1552862 0.492261,0.3033675 0.777906,0.358408 0.153025,0.078339 0.495515,0.058937 0.528166,0.198959 C 36.709801,7.2203191 36.352105,7.2780312 36.082582,7.420786 35.601901,7.6071836 35.065655,7.6044117 34.568858,7.490404 34.352299,7.434562 34.175498,7.2934211 33.987434,7.182157 33.703506,7.0684676 33.697171,7.5192865 33.406065,7.485344 32.659817,7.57671 31.885173,7.542226 31.170056,7.2943014 30.975305,7.2228994 30.557564,7.1598872 30.638758,6.8667863 Z"
       id="path885"
       sodipodi:nodetypes="aaaaaaaaaaaaaaaaaaaacaaaaaaaaacaaaaaaaaaaaa" /><path
       d="m 32.443074,7.4763447 c 0.192745,-0.066461 0.363093,-0.2296792 0.426224,-0.4083874 0.03238,-0.091683 0.03341,-0.1066305 0.01685,-0.244176 -0.01541,-0.127881 -0.02338,-0.1557614 -0.06265,-0.2192493 -0.105104,-0.1698748 -0.313482,-0.2903843 -0.53654,-0.3102979 -0.125752,-0.011221 -0.186996,-0.00394 -0.306435,0.0364 -0.210325,0.071038 -0.367547,0.2179239 -0.434181,0.4056239 -0.174254,0.4908558 0.354327,0.9271136 0.89672,0.7400952 z M 32.299985,6.8864992 c -0.02103,-0.016575 -0.03977,-0.042958 -0.04161,-0.058629 -0.01031,-0.086838 0.127118,-0.1359745 0.200363,-0.071656 0.09579,0.084115 -0.0576,0.2100015 -0.158749,0.1302833 z m -0.464627,-0.048006 c -0.15025,-0.1056263 -0.05598,-0.3464866 0.126422,-0.3230124 0.09356,0.012037 0.169442,0.12668 0.143875,0.2173631 -0.03318,0.1176878 -0.17456,0.1729483 -0.270293,0.1056446 z m 0.460318,-0.2436328 c -0.04785,-0.015307 -0.0942,-0.089117 -0.08899,-0.1417575 0.0102,-0.1033926 0.130756,-0.1572533 0.203194,-0.090778 0.05542,0.050869 0.06179,0.1325985 0.01495,0.1920326 -0.03854,0.048911 -0.07101,0.059092 -0.129124,0.040501 z"
       style="fill:#ff299a;fill-opacity:1;stroke-width:0.0140267"
       id="path796" /><path
       d="m 35.674499,7.540393 c 0.192745,-0.066461 0.363094,-0.2296794 0.426223,-0.4083877 0.03238,-0.091683 0.03342,-0.1066305 0.01685,-0.2441758 -0.0154,-0.1278811 -0.02338,-0.1557615 -0.06264,-0.2192494 -0.105103,-0.1698747 -0.313481,-0.2903842 -0.536538,-0.3102978 -0.125754,-0.011222 -0.186995,-0.00394 -0.306434,0.0364 -0.210326,0.071038 -0.367549,0.217924 -0.434183,0.4056241 -0.174254,0.4908558 0.354328,0.9271135 0.896719,0.7400949 z m -0.14309,-0.5898456 c -0.02103,-0.016575 -0.03977,-0.042958 -0.04161,-0.058629 -0.01031,-0.086838 0.127117,-0.1359745 0.200365,-0.071656 0.09579,0.084115 -0.0576,0.2100016 -0.158751,0.1302833 z m -0.464627,-0.048006 c -0.15025,-0.1056263 -0.05599,-0.3464864 0.126422,-0.3230121 0.09356,0.012037 0.169443,0.12668 0.143877,0.2173631 -0.03318,0.1176866 -0.174563,0.1729482 -0.270293,0.1056446 z m 0.460319,-0.2436332 c -0.04785,-0.015308 -0.0942,-0.089117 -0.089,-0.1417574 0.0102,-0.1033926 0.130756,-0.1572533 0.203195,-0.090778 0.05542,0.050869 0.06179,0.1325985 0.01496,0.1920326 -0.03855,0.04891 -0.07101,0.059092 -0.129124,0.040501 z"
       style="fill:#ff299a;fill-opacity:1;stroke-width:0.0140267"
       id="path796-6" /><path
       style="fill:none;stroke:#ff289b;stroke-width:0.105834;stroke-linecap:round;stroke-linejoin:round;stroke-dasharray:none;stroke-opacity:1;paint-order:markers stroke fill;stop-color:#000000"
       d="m 33.682759,6.6309025 c -0.02196,0.089857 -0.03102,0.1283909 -0.0202,0.2215981 0.0071,0.057777 0.01231,0.1181613 0.04005,0.1703639 0.02403,0.037248 0.06211,0.063747 0.08142,0.1044633 0.01257,0.021783 0.0244,0.043984 0.03586,0.066356"
       id="path4547" /><path
       style="fill:#ff26a1;fill-opacity:1;stroke:none;stroke-width:0.105834;stroke-linecap:round;stroke-linejoin:round;stroke-dasharray:none;stroke-opacity:1;paint-order:normal;stop-color:#000000"
       d="M 36.075331,5.9524348 C 35.85149,5.7676992 35.563224,5.7057735 35.279585,5.7021741 c -0.316221,-0.00402 -0.645852,0.00415 -0.944754,0.1152361 -0.177379,0.1111705 -0.398026,0.2206875 -0.601318,0.1010354 -0.340405,-0.1705333 -0.725789,-0.2199842 -1.099412,-0.2670631 -0.521082,-0.038822 -1.048756,0.021293 -1.555689,0.1422393 -0.166601,0.04478 -0.384328,0.1035605 -0.350074,0.321334 -0.314596,0.040699 -0.118521,0.4042419 -0.271806,0.5436114 -0.166159,-0.095589 -0.20719,-0.3861307 -0.06418,-0.5250445 0.145566,-0.1743265 0.179427,-0.43998 0.367745,-0.5600191 0.562939,-0.3588328 1.317011,-0.3523384 1.981656,-0.2898197 0.343551,0.032316 0.634942,0.3049459 0.978405,0.3381882 0.551173,0.053346 1.092526,-0.268606 1.645032,-0.2315293 0.276011,0.018522 0.41158,0.046979 0.798974,0.2244276 1.136345,0.6538014 0.767979,0.8831814 -0.08883,0.3376644 z"
       id="path4315"
       sodipodi:nodetypes="caaaaaaaaaaaacc" /><path
       style="fill:#ff26a1;fill-opacity:1;stroke:none;stroke-width:0.105834;stroke-linecap:round;stroke-linejoin:round;stroke-dasharray:none;stroke-opacity:1;paint-order:normal;stop-color:#000000"
       d="m 33.739654,7.4836783 c 0.03427,0.05775 0.0606,0.1229406 0.09987,0.1760018 0.117644,0.072572 0.242397,0.1515308 0.386401,0.1448433 0.140925,-0.014436 0.207287,0.1414349 0.344431,0.1441591 0.311028,0.063771 0.628715,0.00678 0.942035,-0.00601 0.374528,-0.032243 0.757364,-0.076892 1.104425,-0.2298671 0.151449,-0.070549 0.297812,-0.1515474 0.441727,-0.2362775 0.02194,0.037749 0.06355,0.077446 0.01002,0.1077226 -0.257724,0.3261971 -0.719993,0.466291 -1.034554,0.5172018 -0.447622,0.083258 -0.912918,0.1647565 -1.359593,0.083266 C 34.556723,8.1632463 34.462554,8.0686972 34.347005,8.03769 34.216363,8.002632 34.058785,8.066742 33.943333,7.996262 33.796048,7.906348 33.643019,7.7339851 33.660976,7.5623609 c 0.0039,-0.036889 0.05245,-0.052454 0.07868,-0.078681 z"
       id="path4516"
       sodipodi:nodetypes="ccaaaaaccaaaaac" /></g><path
     id="path3018-5"
     style="fill:url(#linearGradient6994-4);fill-opacity:1;stroke-width:0.151253"
     d="M 8.5075446,0.72067077 C 8.1666349,0.71530179 7.4186718,0.85419157 7.2006394,0.91290831 7.0728789,0.94732462 6.9632613,0.97378473 6.8631902,0.984739 6.5563677,1.0752289 6.0839468,1.1186493 5.7759112,1.2720618 5.4082017,1.4551935 5.0745872,1.7064837 4.7635635,1.9748657 4.3625604,2.320911 3.9747537,2.6899444 3.6483791,3.1071034 3.2105918,3.6666808 2.8291743,4.2710861 2.4820347,4.8909851 L 1.8314243,6.0526786 c 0.00777,0.077548 0.119815,0.5453188 0.028939,0.7844532 -0.116024,0.3051023 -0.1113704,0.5981348 0.014986,1.049555 C 2.0499556,8.510374 2.0468635,8.5180196 1.2826171,9.4664453 0.86033948,9.9904478 0.43716979,10.662549 0.3426169,10.959904 0.29072252,11.123179 0.17677923,11.341469 0.04030787,11.55367 v 0.589115 C 0.18804612,11.964727 0.32653761,11.813885 0.40721285,11.747457 0.54525509,11.633779 0.72510471,11.293171 0.80719096,10.99091 0.88927376,10.688622 1.322217,10.023281 1.7688954,9.5124376 L 2.5812541,8.5838062 2.4293244,7.8437951 C 2.281349,7.121272 2.2973069,7.064737 3.0897533,5.520408 4.217106,3.3234829 5.1861798,2.3420235 6.6518323,1.9102697 7.2949201,1.720803 7.922291,1.6158514 8.4233115,1.6002092 c 0.031092,-9.675e-4 0.061852,-0.00132 0.091985,-0.00155 h 5.167e-4 C 8.9699597,1.5944325 9.307293,1.668306 9.4356592,1.822936 9.5404615,1.9492095 9.6335758,2.3067632 9.642883,2.6172078 9.6569671,3.0892354 9.6058589,3.1885894 9.3286883,3.2280271 9.1464373,3.2538306 8.8357858,3.169838 8.6382868,3.0404404 8.1725508,2.7352993 6.8616399,2.5449718 6.8616399,2.7825734 c 0,0.094477 0.1872168,0.1765524 0.4159979,0.182419 1.0554404,0.02698 0.9931687,0.2116418 -0.2930072,0.8681695 C 6.293184,4.1861305 5.2552251,4.7629667 4.6782969,5.1142287 l -1.0490382,0.638208 0.034107,0.9834087 c 0.066959,1.968374 -1.0241837,4.5750396 -2.3993519,5.7340526 -0.60999167,0.514119 -1.02579687,1.092004 -1.22370563,1.68828 v 3.08872 H 1.3151735 c 0.05428,-0.193035 -0.00639,-0.225828 -0.2764707,-0.225828 -0.60989832,0 -0.85412784,-0.664952 -0.66818045,-1.819538 0.19451093,-1.207656 0.28741475,-1.378301 1.40664135,-2.567301 0.5810734,-0.617307 1.11972,-1.392299 1.4479828,-2.083607 l 0.5229687,-1.1007153 0.189137,0.9260473 c 0.1620923,0.794735 0.3840887,1.246643 1.2836506,2.60916 0.057262,0.08673 0.5623607,-0.146407 1.1994176,-0.553975 1.1828904,-0.756812 1.3746114,-0.804975 1.9502808,-0.486278 0.3267665,0.180902 0.4433051,0.172821 0.9167457,-0.06873 0.591179,-0.301581 0.5114078,-0.321347 2.7461031,0.660946 0.50664,0.222707 0.57921,0.223818 0.794272,0.0088 0.360238,-0.36024 0.571597,-0.807303 0.841297,-1.781298 l 0.245465,-0.8872895 0.583947,1.1136345 c 0.320863,0.612729 0.836742,1.454758 1.146707,1.870698 0.730721,0.980546 1.048796,1.959116 1.045938,3.219462 -0.0015,0.594856 -0.03412,0.974777 -0.115239,1.165828 h 0.337449 V 13.528755 C 16.834116,13.349147 16.548381,13.030741 16.251307,12.795462 15.903465,12.520001 15.448971,11.903165 15.1046,11.238958 14.790871,10.633833 14.369607,9.917188 14.168217,9.6462804 13.916064,9.3070771 13.71064,8.6714431 13.508304,7.6045317 13.095733,5.4290115 13.124571,5.5188776 12.598794,4.7251027 12.10978,3.986836 11.082626,3.2564493 10.533274,3.2564493 c -0.233421,0 -0.328086,-0.1206633 -0.384476,-0.4909292 -0.04099,-0.2703777 -0.06036,-0.5087422 -0.04237,-0.5296868 0.0086,-0.010166 0.02929,-0.014212 0.05994,-0.013436 h 5.16e-4 c 0.01017,2.548e-4 0.02147,0.0012 0.03359,0.00258 0.347729,0.038323 1.518333,0.4981367 1.961133,0.7911712 0.735349,0.4866211 1.191783,1.2691857 1.893953,3.2478842 0.466161,1.3130956 0.542354,1.6960165 0.466641,2.3352727 -0.09006,0.7601672 -0.08612,0.7692513 0.699704,1.5797587 0.886647,0.914527 1.064046,1.085936 1.69138,1.559604 v -0.554491 c -0.135781,-0.146494 -0.220143,-0.273366 -0.220143,-0.344684 0,-0.141601 -0.341107,-0.593359 -0.757064,-1.0030462 -0.667062,-0.6570087 -0.756031,-0.8188517 -0.756031,-1.3740849 0,-0.346242 0.125939,-1.0229965 0.001,-1.3766689 C 15.070267,6.770962 14.978032,6.4611371 14.958871,6.3451691 L 14.743896,5.8687094 C 14.62126,5.5967305 14.463702,5.3414673 14.343918,5.0682364 14.23297,4.8151448 14.168518,4.5421159 14.051944,4.2915347 13.925242,4.0191628 13.768029,3.7621449 13.615275,3.5034642 13.5172,3.337344 13.419203,3.1698785 13.300047,3.0182194 13.107178,2.7726747 12.914477,2.5228662 12.681993,2.314382 12.402035,2.0633245 11.890218,1.5658114 11.564742,1.3774824 11.243527,1.1916137 10.905287,1.0205865 10.545676,0.92892811 10.069132,0.77958328 9.568576,0.76290478 9.0682375,0.79043439 8.9427076,0.78495141 8.6504662,0.88303316 8.6780779,0.78319965 v -5.1677e-4 c 0.01164,-0.0421722 -0.056894,-0.0602301 -0.1705333,-0.0620121 z M 10.016506,3.4662569 c 0.200103,1.599e-4 0.365807,0.03251 0.553975,0.094569 1.392582,0.4595963 2.278826,1.9430212 2.517691,4.2147563 0.175622,1.6699747 0.175771,2.8428583 -0.101286,3.7966913 -0.368611,0.990047 -1.050835,0.493734 -1.46762,0.325047 C 9.7949485,11.192173 9.7647243,11.185533 9.3436746,11.441014 8.9956347,11.652225 8.8745647,11.656219 8.333394,11.469953 7.6265667,11.226443 7.2427436,11.333396 6.2523709,12.0508 c -0.328683,0.238075 -0.6573548,0.432534 -0.7296758,0.432534 -0.072351,0 -0.3591289,-0.425237 -0.6371744,-0.945168 C 4.3939867,10.618946 4.3793204,10.535669 4.3284452,8.5171432 4.2944174,7.1766457 4.3350575,6.3292908 4.4447179,6.1250261 4.537835,5.9510451 4.9211676,5.6770995 5.2963509,5.5162739 5.6715685,5.35547 6.2625941,4.995022 6.6094573,4.7147674 7.4608331,4.0268914 7.6993496,3.9158053 8.9555821,3.6300722 9.3910107,3.5310614 9.6874786,3.4782098 9.9286555,3.4678072 c 0.03011,-0.00126 0.059261,-0.00155 0.087851,-0.00155 z m 5.520111,13.1899761 c -0.06421,0.0056 -0.01727,0.217466 0.10077,0.590665 h 0.504882 c -0.06339,-0.05752 -0.133177,-0.130236 -0.210325,-0.220143 -0.19255,-0.224401 -0.317608,-0.351378 -0.380857,-0.368972 -0.0053,-0.0015 -0.01019,-0.0019 -0.01447,-0.0015 z"
     sodipodi:nodetypes="cccscccccccccccccccccccccccsscccccccccscccccscsccccccscccccccccscccccccccccssscccccccsccccccccccccccscccccccccccssc" /><path
     style="fill:#ff289b;fill-opacity:1;stroke:#e20000;stroke-width:0.44519;stroke-linecap:round;stroke-linejoin:round;stroke-dasharray:none;stroke-opacity:1;paint-order:markers stroke fill;stop-color:#000000"
     d="m 4.571082,14.273397 c 0.5950719,0.159713 1.1537137,0.512359 1.7917096,0.459817 1.1118315,0.01683 2.2319329,0.03329 3.3302457,-0.167132 0.7773057,-0.129745 1.5637797,-0.360042 2.1873587,-0.862052 0.274862,-0.18288 0.581139,-0.466566 0.937062,-0.327696 0.428912,0.130099 0.699282,0.659124 0.473036,1.067756 -0.277293,0.621936 -0.991025,0.843078 -1.597881,1.002313 -1.544217,0.403766 -3.1369527,0.693819 -4.7393894,0.610036 -0.4559672,-0.02072 -0.917014,0.01756 -1.3697007,-0.03158 C 5.2864661,15.98924 4.7412083,15.764626 4.8976914,15.414183 4.9581285,15.278818 5.0544247,15.126688 4.8005305,15.140816 4.4277406,15.121477 4.0063805,14.25988 4.5710877,14.273391 Z"
     id="path14397-9"
     sodipodi:nodetypes="aaaaaaaaasaa" /><path
     style="fill:none;fill-opacity:1;stroke:#e20000;stroke-width:0.222594;stroke-linecap:round;stroke-linejoin:round;stroke-dasharray:none;stroke-opacity:1;paint-order:markers stroke fill;stop-color:#000000"
     d="m 4.9394102,15.290439 c 1.3460639,0.148692 2.7077402,0.15724 4.0775688,0.06527 1.290638,-0.150878 2.566983,-0.385485 3.546081,-1.082738"
     id="path14399-4"
     sodipodi:nodetypes="ccc" /></svg>
