<?xml version="1.0" encoding="UTF-8" standalone="no"?>
<svg
   width="512"
   height="320"
   viewBox="0 0 135.46752 84.665"
   xml:space="preserve"
   version="1.1"
   id="svg16"
   sodipodi:docname="banner.svg"
   inkscape:version="1.2.2 (732a01da63, 2022-12-09)"
   inkscape:export-filename="banner.png"
   inkscape:export-xdpi="96"
   inkscape:export-ydpi="96"
   xmlns:inkscape="http://www.inkscape.org/namespaces/inkscape"
   xmlns:sodipodi="http://sodipodi.sourceforge.net/DTD/sodipodi-0.dtd"
   xmlns:xlink="http://www.w3.org/1999/xlink"
   xmlns="http://www.w3.org/2000/svg"
   xmlns:svg="http://www.w3.org/2000/svg"><sodipodi:namedview
     id="namedview26654"
     pagecolor="#ffffff"
     bordercolor="#000000"
     borderopacity="0.25"
     inkscape:showpageshadow="2"
     inkscape:pageopacity="0.0"
     inkscape:pagecheckerboard="0"
     inkscape:deskcolor="#d1d1d1"
     showgrid="false"
     inkscape:zoom="2.3119076"
     inkscape:cx="259.74221"
     inkscape:cy="173.0173"
     inkscape:window-width="2560"
     inkscape:window-height="1017"
     inkscape:window-x="-8"
     inkscape:window-y="-8"
     inkscape:window-maximized="1"
     inkscape:current-layer="svg16"
     showguides="true"><sodipodi:guide
       position="33.846946,36.656801"
       orientation="1,0"
       id="guide22659"
       inkscape:locked="false" /></sodipodi:namedview><defs
     id="defs8"><linearGradient
       id="a"><stop
         style="stop-color:#f60;stop-opacity:1"
         offset="0"
         id="stop2" /><stop
         style="stop-color:#f0f;stop-opacity:1"
         offset="1"
         id="stop4" /></linearGradient><linearGradient
       xlink:href="#a"
       id="b"
       x1="9.9110003"
       y1="27.725"
       x2="19.257"
       y2="36.005001"
       gradientUnits="userSpaceOnUse"
       gradientTransform="matrix(4.4152805,0,0,4.4152805,-32.030169,-119.53467)" /><inkscape:path-effect
       effect="fill_between_many"
       method="originald"
       linkedpaths="#rect22398,0,1"
       id="path-effect23404"
       is_visible="true"
       lpeversion="0"
       join="true"
       close="true"
       autoreverse="true" /><linearGradient
       inkscape:collect="always"
       xlink:href="#a"
       id="linearGradient6994-4"
       x1="-15.234996"
       y1="8.1326065"
       x2="0.87738293"
       y2="8.1326065"
       gradientUnits="userSpaceOnUse"
       gradientTransform="matrix(9.2479547,0,0,9.2479547,80.497225,41.279142)" /></defs><path
     id="path23406-8"
     style="fill:#ffd5d5;fill-opacity:0.90404;stroke:#e20000;stroke-width:2.4732;stroke-dasharray:none;stroke-opacity:1"
     d="m 52.338809,84.529019 c -3.007099,-3.873321 -7.101368,-6.878429 -9.72159,-11.015028 -0.95058,-2.446478 -4.028451,-3.357675 -4.8852,-5.944642 -1.709562,-1.57462 -3.588364,-3.685732 -2.724687,-6.195861 -0.139287,-3.635131 -2.383744,-6.749721 -3.749675,-10.014445 -2.362236,-4.070979 -6.843708,-7.591222 -11.79597,-6.805975 -0.271462,-0.130786 -0.555988,-0.186623 -0.848412,-0.196679 -0.877278,-0.03014 -1.82358,0.350333 -2.681621,0.337355 -4.817926,0.388091 -8.4303664,4.037984 -10.8126152,7.957292 -0.9758898,2.042455 -2.9829397,3.845467 -2.6385512,6.240363 -0.5665416,1.584023 0.6296957,3.399439 0.097617,4.753131 -3.23388634,3.568941 -4.5306633,8.55173 -8.4783977,11.50886 -2.5294209,2.154098 -5.6793429,3.880266 -6.7327599,7.261045 -0.281388,0.702367 -0.569339,1.411362 -0.854158,2.114576"
     sodipodi:nodetypes="ccccccsccccccc" /><g
     id="g868"
     transform="translate(0.62078586,-7.2431657)"><text
       xml:space="preserve"
       style="font-weight:bold;font-size:27.5853px;font-family:arial;-inkscape-font-specification:'arial Bold';text-align:center;direction:rtl;text-anchor:middle;fill:#ff24a4;fill-opacity:1;stroke:#e20000;stroke-width:0.791972;stroke-linecap:round;stroke-linejoin:round;stroke-dasharray:none;stroke-opacity:1;paint-order:markers stroke fill;stop-color:#000000"
       x="66.850914"
       y="52.912418"
       id="text7515"><tspan
         sodipodi:role="line"
         id="tspan7513"
         style="font-style:normal;font-variant:normal;font-weight:normal;font-stretch:normal;font-size:27.5853px;font-family:SpaceColonyW03-Medium;-inkscape-font-specification:'SpaceColonyW03-Medium, Normal';font-variant-ligatures:normal;font-variant-caps:normal;font-variant-numeric:normal;font-variant-east-asian:normal;fill:#ff24a4;fill-opacity:1;stroke:#e20000;stroke-width:0.791972;stroke-dasharray:none;stroke-opacity:1"
         x="66.850914"
         y="52.912418">MEME</tspan></text><text
       xml:space="preserve"
       style="font-weight:bold;font-size:14.2541px;font-family:arial;-inkscape-font-specification:'arial Bold';text-align:center;direction:rtl;text-anchor:middle;fill:#ff24a4;fill-opacity:1;stroke:#e20000;stroke-width:0.527982;stroke-linecap:round;stroke-linejoin:round;stroke-dasharray:none;stroke-opacity:1;paint-order:markers stroke fill;stop-color:#000000"
       x="104.53386"
       y="65.680618"
       id="text7515-0"><tspan
         sodipodi:role="line"
         id="tspan7513-3"
         style="font-style:normal;font-variant:normal;font-weight:normal;font-stretch:normal;font-size:14.2541px;font-family:SpaceColonyW03-Medium;-inkscape-font-specification:'SpaceColonyW03-Medium, Normal';font-variant-ligatures:normal;font-variant-caps:normal;font-variant-numeric:normal;font-variant-east-asian:normal;fill:#ff24a4;fill-opacity:1;stroke:#e20000;stroke-width:0.527982;stroke-dasharray:none;stroke-opacity:1"
         x="104.53386"
         y="65.680618">NTOR</tspan></text></g><path
     id="path3018-5"
     style="fill:url(#linearGradient6994-4);fill-opacity:1;stroke-width:0.367843"
     d="m 18.677873,44.337735 c -0.829086,-0.01306 -2.648071,0.32519 -3.178321,0.467991 -0.310712,0.0837 -0.577768,0.147065 -0.821139,0.173705 -0.746186,0.22007 -1.895159,0.326021 -2.644296,0.699117 -0.894262,0.445373 -1.705578,1.057048 -2.4619778,1.709747 -0.9752347,0.841576 -1.9180308,1.738875 -2.7117674,2.753398 -1.0646927,1.360881 -1.9924239,2.830672 -2.836661,4.338254 l -1.581984,2.825174 c 0.01889,0.188595 0.2913464,1.326284 0.070338,1.907855 -0.2821679,0.742002 -0.2714061,1.454575 0.035891,2.55242 0.4246409,1.516794 0.4173321,1.534998 -1.4413,3.84155 -1.02697091,1.274365 -2.05545578,2.908796 -2.2854065,3.631959 -0.229848,0.723174 -0.9554247,1.893129 -1.6135638,2.601229 -0.6582141,0.708145 -1.3422298,1.5598 -1.520255,1.892065 -0.1780391,0.332294 -1.6488077,1.586298 -3.2673273,2.786416 -1.6185019,1.200118 -3.1380042,2.422602 -3.3778642,2.716073 -0.430791,0.527045 -1.393319,2.564647 -2.559599,5.294334 h 2.38446 c 1.4810475,-3.334593 2.2980411,-4.383023 3.8185812,-5.607287 l 1.9423069,-1.561886 0.4134402,1.010634 c 1.0010498,2.443728 0.9875878,2.532428 -0.3904721,2.37154 -2.1604207,-0.252211 -2.2279306,0.10184 -0.2612666,1.363778 1.5604382,1.001331 2.1011448,1.69598 1.7126201,2.423221 h 5.0833067 c 0.1320084,-0.469458 -0.015001,-0.549818 -0.67184001,-0.549818 -1.48326102,0 -2.07727099,-1.616459 -1.62505059,-4.424387 0.47304675,-2.936995 0.69899446,-3.351608 3.4209315,-6.243236 1.4131594,-1.501276 2.7230927,-3.386266 3.5214213,-5.067517 l 1.2719031,-2.677312 0.4593792,2.252388 c 0.3942084,1.932781 0.9346178,3.031548 3.1223341,6.345162 0.139259,0.21093 1.367743,-0.355351 2.917053,-1.346553 2.876766,-1.840553 3.343062,-1.957963 4.743079,-1.1829 0.79469,0.439956 1.078022,0.419496 2.22942,-0.167955 1.437736,-0.733441 1.243473,-0.781094 6.678208,1.607824 1.23214,0.541618 1.409237,0.544599 1.932262,0.02167 0.876094,-0.8761 1.389763,-1.963774 2.045666,-4.332511 l 0.597194,-2.157643 1.419765,2.708897 c 0.78033,1.490148 2.035454,3.537717 2.789286,4.549279 1.777096,2.384668 2.550756,4.764389 2.543806,7.829528 -0.0036,1.446676 -0.08409,2.370593 -0.281368,2.835225 h 2.612714 l 0.05167,-3.092191 c 0.03136,-1.845312 0.259934,-3.534586 0.548383,-4.064061 0.154065,-0.28276 0.260238,-0.476514 0.460812,-0.478039 0.441281,-0.0033 1.336838,0.922989 4.191828,3.880308 1.245371,1.290029 2.460229,2.633981 3.415189,3.753983 h 2.776366 c -0.965453,-1.209949 -2.359042,-2.716067 -4.570813,-4.971336 -2.834786,-2.890572 -5.155083,-5.465203 -5.155083,-5.720691 0,-0.999172 -0.513633,-1.671815 -2.245213,-2.942893 -0.990632,-0.727166 -1.800187,-1.603633 -1.800187,-1.948049 0,-0.344372 -0.82878,-1.442664 -1.840383,-2.439014 -1.62227,-1.597854 -1.838951,-1.99166 -1.838951,-3.341976 0,-0.842054 0.306445,-2.487594 0.0028,-3.347719 -0.2696,-0.765429 -0.494498,-1.51973 -0.541098,-1.801761 L 33.844556,56.85723 c -0.298247,-0.661447 -0.681994,-1.282123 -0.973307,-1.946615 -0.269822,-0.615514 -0.42566,-1.279784 -0.709164,-1.889192 -0.308136,-0.662404 -0.690819,-1.287363 -1.062312,-1.91647 -0.238515,-0.404 -0.476803,-0.811196 -0.766588,-1.180027 -0.469052,-0.597161 -0.937635,-1.204155 -1.503029,-1.711184 -0.680851,-0.610567 -1.925956,-1.820216 -2.717509,-2.278229 -0.781188,-0.452028 -1.603207,-0.86811 -2.477771,-1.091022 -1.158944,-0.363203 -2.376385,-0.404312 -3.593198,-0.337357 -0.305286,-0.01333 -1.016054,0.22557 -0.948902,-0.01722 v -0.0014 c 0.02831,-0.102562 -0.138509,-0.146398 -0.414877,-0.150732 z m 0.01861,2.134672 h 0.0014 c 1.104476,-0.01028 1.924411,0.169455 2.236595,0.545512 0.254877,0.307095 0.481247,1.177264 0.503882,1.932259 0.03425,1.147962 -0.08965,1.389889 -0.763718,1.4858 -0.443231,0.06275 -1.199235,-0.141814 -1.679549,-0.456507 -1.13266,-0.742097 -4.319591,-1.205179 -4.319591,-0.627337 0,0.229765 0.454243,0.429319 1.010634,0.443587 2.56681,0.06562 2.415917,0.515041 -0.712037,2.111704 -1.681585,0.858413 -4.205643,2.260896 -5.6087207,3.115159 l -2.5509845,1.551838 0.081838,2.391635 c 0.1628437,4.787046 -2.4897195,11.126299 -5.8341017,13.945001 -2.1274325,1.793056 -3.2864035,3.90629 -3.2989098,6.010674 -0.00417,0.758743 -0.1475094,1.379571 -0.3172591,1.379571 -0.5896431,0 -1.1628018,-1.884492 -1.1628018,-3.824324 0,-1.559085 0.2091522,-2.238431 1.0422163,-3.385043 0.5731921,-0.789078 1.3165755,-1.661544 1.6523246,-1.938001 0.33571579,-0.276462 0.77367421,-1.103851 0.97330635,-1.838947 C 0.15066996,68.57983 1.2032536,66.96128 2.2895699,65.718917 l 1.9753257,-2.25813 -0.3689374,-1.800189 c -0.3598756,-1.757162 -0.3208287,-1.894573 1.6063856,-5.650351 2.7416994,-5.342879 5.0977132,-7.72985 8.6621512,-8.779867 1.563977,-0.460779 3.089632,-0.715626 4.308104,-0.753668 0.07562,-0.0024 0.150676,-0.0036 0.223959,-0.0044 z m 4.015252,1.517382 h 0.0014 c 0.02472,6.17e-4 0.05236,0.0025 0.08184,0.0058 0.845668,0.0932 3.692035,1.21243 4.76892,1.925084 1.788356,1.183453 2.899035,3.086276 4.606702,7.898433 1.133691,3.193422 1.318225,4.124404 1.134091,5.679064 -0.219014,1.848709 -0.208541,1.87041 1.70257,3.841547 2.404956,2.48058 2.652371,2.704022 4.679914,4.217668 0.910336,0.679616 1.704197,1.563275 1.762865,1.963842 0.06275,0.426544 -0.342252,1.158407 -0.976179,1.765734 -1.043899,1.000097 -1.091008,1.011054 -1.322148,0.282804 -0.131702,-0.41532 -0.870194,-1.255882 -1.64084,-1.866224 -0.845946,-0.669912 -1.951783,-2.170224 -2.789289,-3.785563 -0.762982,-1.471655 -1.786972,-3.214299 -2.276753,-3.873141 -0.613231,-0.824936 -1.112876,-2.370884 -1.604952,-4.965591 -1.003369,-5.290822 -0.933512,-5.0722 -2.212194,-7.002645 -1.18927,-1.795453 -3.686998,-3.571666 -5.023013,-3.571666 -0.567675,0 -0.798843,-0.293902 -0.935982,-1.194382 -0.09967,-0.657553 -0.145676,-1.236759 -0.101923,-1.287696 0.02083,-0.02472 0.07042,-0.03492 0.144981,-0.03303 z m -0.364581,3.024721 c 0.486645,3.88e-4 0.890365,0.07876 1.347986,0.229681 3.386734,1.117729 5.541733,4.726495 6.12265,10.25131 0.427111,4.061345 0.426891,6.913798 -0.246904,9.233502 -0.896455,2.407775 -2.555182,1.199798 -3.568794,0.789555 -4.193506,-1.714906 -4.267477,-1.731007 -5.291462,-1.109684 -0.846426,0.51366 -1.140119,0.523328 -2.456237,0.07034 -1.718989,-0.59221 -2.653207,-0.332124 -5.061774,1.41259 -0.799351,0.578992 -1.598463,1.052261 -1.774347,1.052261 -0.175955,0 -0.872763,-1.033869 -1.5489679,-2.298327 -1.1953975,-2.235533 -1.2314442,-2.438163 -1.3551715,-7.347178 -0.082755,-3.260063 0.016112,-5.321544 0.2828041,-5.818311 0.2264588,-0.423119 1.1590704,-1.088934 2.0715093,-1.480061 0.912522,-0.39107 2.349113,-1.267911 3.192678,-1.949485 2.070529,-1.672898 2.651205,-1.942221 5.706338,-2.637118 1.058954,-0.240793 1.779258,-0.369479 2.365795,-0.394778 0.07323,-0.0031 0.14437,-0.0044 0.213903,-0.0044 z m 3.142433,11.771565 c -0.07989,5.97e-4 -0.1739,0.0044 -0.281371,0.01139 -0.28684,0.01722 -0.676618,0.0522 -1.187203,0.103367 -2.385677,0.235099 -2.523322,0.281865 -2.230856,0.755104 0.350934,0.567769 3.121282,0.314148 3.781258,-0.345969 0.384205,-0.384311 0.477577,-0.526728 -0.08184,-0.522545 z m -10.63891,0.01583 c -1.822344,-0.0075 -4.065923,0.309403 -3.29604,0.610123 0.401053,0.156621 1.437891,0.295904 2.304069,0.31008 1.043102,0.01722 1.646904,0.212764 1.787269,0.578532 0.174983,0.455834 0.362634,0.407989 1.075232,-0.275629 l 0.862769,-0.828317 -1.178592,-0.265572 c -0.386691,-0.08656 -0.947238,-0.126508 -1.554707,-0.129203 z m 20.956255,20.294469 c -0.205596,-0.0572 -0.09517,0.464566 0.211042,1.432686 h 1.227403 c -0.154149,-0.139898 -0.32344,-0.316812 -0.511061,-0.535465 -0.468282,-0.545737 -0.773549,-0.854432 -0.92737,-0.897221 z" /><path
     style="fill:#ff289b;fill-opacity:1;stroke:#e20000;stroke-width:1.08269;stroke-linecap:round;stroke-linejoin:round;stroke-dasharray:none;stroke-opacity:1;paint-order:markers stroke fill;stop-color:#000000"
     d="m 9.1043896,77.297487 c 1.4472034,0.388416 2.8058034,1.246043 4.3573934,1.118263 2.703947,0.04092 5.428007,0.08095 8.099077,-0.406462 1.890387,-0.315537 3.803072,-0.875611 5.319602,-2.096489 0.668456,-0.444759 1.413315,-1.134678 2.278912,-0.796948 1.043102,0.316398 1.700636,1.602974 1.150412,2.596757 -0.674371,1.512532 -2.410148,2.050344 -3.886009,2.437599 -3.755497,0.981949 -7.628991,1.687352 -11.526077,1.483595 -1.108901,-0.05039 -2.230156,0.0427 -3.331079,-0.07681 C 10.844186,81.470372 9.5181326,80.924118 9.8986951,80.07185 10.045677,79.742645 10.279867,79.372669 9.6624032,79.407027 8.7557869,79.359997 7.7310494,77.264613 9.1044035,77.29747 Z"
     id="path14397-9"
     sodipodi:nodetypes="aaaaaaaaasaa" /><path
     style="fill:none;fill-opacity:1;stroke:#e20000;stroke-width:0.541343;stroke-linecap:round;stroke-linejoin:round;stroke-dasharray:none;stroke-opacity:1;paint-order:markers stroke fill;stop-color:#000000"
     d="m 10.000155,79.770908 c 3.273594,0.361615 6.585158,0.382402 9.916547,0.158733 3.1388,-0.366932 6.242839,-0.937491 8.623982,-2.633193"
     id="path14399-4"
     sodipodi:nodetypes="ccc" /></svg>
