<svg width="512" height="512" viewBox="0 0 135.47 135.46" xml:space="preserve" xmlns:xlink="http://www.w3.org/1999/xlink" xmlns="http://www.w3.org/2000/svg">
	<defs>
		<linearGradient id="a">
			<stop offset="0" stop-color="#f601"/>
			<stop offset="1" stop-color="#f0f1"/>
		</linearGradient>
		<linearGradient xlink:href="#a" id="b" x1="9.91" y1="27.73" x2="19.26" y2="36.01" gradientUnits="userSpaceOnUse" gradientTransform="translate(-9.7 -28.45) scale(1.21423)"/>
	</defs>
	<g fill="#f591">
		<path style="font-variation-settings:normal;-inkscape-stroke:none" d="M6.82 14.24a12.86 12.86 0 0 1-6.33-2.57c0-.02.12.04.28.13.15.1.68.37 1.17.62 1.42.7 3 1.17 4.55 1.37.8.1 2.49.08 3.36-.03a14.65 14.65 0 0 0 5.86-2.17h.05c0 .03-.32.25-.7.5-.8.54-2.27 1.28-3.1 1.56-1.59.55-3.53.77-5.14.59z" fill-opacity=".44" transform="matrix(8.87103 0 0 8.87103 -4.33 -16.42)"/>
		<path d="M56.16 128.3a114.1 114.1 0 0 1-38.71-11.79C12.2 113.81 0 106.09 0 105.49c0-.19 1.1.34 2.46 1.18 1.35.84 6.05 3.3 10.43 5.47a127.3 127.3 0 0 0 40.36 12.15c7.11.88 22.06.74 29.81-.27 16.1-2.11 34.27-8.43 47.64-16.57l4.33-2.63c.24-.14.44-.12.44.05 0 .16-2.8 2.16-6.23 4.42-7.14 4.74-20.14 11.28-27.4 13.79-14.15 4.89-31.36 6.85-45.68 5.22z" fill-opacity=".21"/>
		<path d="M56.16 88.28A114.1 114.1 0 0 1 17.45 76.5C12.2 73.8 0 66.08 0 65.47c0-.19 1.1.34 2.46 1.18 1.35.84 6.05 3.3 10.43 5.47a127.3 127.3 0 0 0 40.36 12.15c7.11.88 22.06.74 29.81-.27 16.1-2.11 34.27-8.43 47.64-16.57l4.33-2.63c.24-.14.44-.12.44.05 0 .17-2.8 2.16-6.23 4.43-7.14 4.73-20.14 11.27-27.4 13.78-14.15 4.89-31.36 6.86-45.68 5.22z"/>
	</g>
	<path d="M9.06 4.71c-.21 0-.28.04-.36.2-.05.1-.14.13-.46.16-.39.04-.4.04-.55-.13-.12-.12-.21-.17-.34-.17-.34 0-.56.4-.37.7.06.1.03.18-.32.85l-.4.74-.25.01c-.31.02-.51.15-.63.4-.18.37-.05.82.3 1 .18.09.2.2.13.7-.03.23-.05.26-.2.3-.25.04-.51.27-.65.56-.18.36-.14.84.1 1.12.2.27.58.46.87.46a1.23 1.23 0 0 0 .8-.35l.13-.15.5.25c.27.14.5.28.52.32l.05.22c.02.1.1.19.2.24l.17.08v.54c0 .51-.01.55-.15.66a.61.61 0 0 0-.18.3c-.03.17-.1.23-.47.46-.35.21-.46.25-.54.2a.4.4 0 0 0-.25-.01c-.28.07-.33.5-.07.62.17.08.17.08.31-.02a.55.55 0 0 0 .18-.21c.02-.07.24-.24.5-.39.36-.22.46-.25.55-.2.18.09.37.06.53-.08.2-.2.17-.5-.09-.7-.09-.05-.1-.14-.1-.64 0-.53 0-.58.11-.61.06-.02.15-.11.2-.2.24-.47-.27-.9-.74-.63-.16.1-.17.09-.63-.15L7 10.9l.02-.34c.02-.55-.22-.94-.7-1.1l-.21-.08-.02-.42c-.01-.38 0-.42.09-.42.2 0 .49-.26.57-.5.09-.26.02-.59-.17-.75-.1-.1-.1-.1.3-.87.34-.67.41-.77.53-.77.07 0 .2-.07.28-.16.12-.14.2-.16.55-.2.38-.03.42-.02.5.09.1.12.1.14-.01.56l-.12.45-.26.07a.86.86 0 0 0-.4.25c-.14.17-.15.22-.13.51.02.29.05.35.19.48.1.08.21.17.27.2.09.05.1.1.06.43-.04.34-.06.38-.18.41a.81.81 0 0 0-.3.22c-.54.62.32 1.47.98.96l.14-.11.41.24c.31.17.41.26.39.32-.14.37-.02.82.3 1.14l.22.21-.13.34c-.08.22-.17.36-.27.42-.28.17-.26.48.04.59.11.04.17.03.26-.06.1-.09.12-.14.09-.34a.95.95 0 0 1 .09-.54l.12-.3.34-.02c.37-.03.72-.2.87-.45a1.12 1.12 0 0 0-.48-1.66 1 1 0 0 0-1.11.18.79.79 0 0 1-.24.16c-.03 0-.22-.1-.42-.2-.35-.2-.37-.22-.37-.41 0-.25-.2-.55-.42-.66-.15-.07-.15-.08-.11-.44.04-.42.06-.46.16-.46.14 0 .41-.27.48-.48a.76.76 0 0 0-.23-.78l-.16-.16.12-.43c.1-.36.14-.45.27-.52.43-.21.33-.8-.13-.8Zm-3.55.42a.5.5 0 0 0-.5.5c0 .16-.04.21-.35.44-.4.28-.43.29-.6.18-.55-.35-1.28.12-1.2.76.04.29.19.48.47.62.2.1.23.14.26.36.07.47.04.65-.1.72-.1.06-.18.05-.55-.11-.24-.1-.43-.22-.43-.26 0-.15-.17-.4-.3-.46-.17-.06-.46.03-.53.17-.14.5.02.31.14.61.06.05.08.2.08.57 0 .48 0 .5-.17.65-.2.2-.21.4-.03.6a.45.45 0 0 0 .63 0c.19-.17.17-.44-.04-.61-.16-.14-.17-.16-.17-.64 0-.5 0-.5.16-.57.13-.05.2-.04.58.14.39.17.43.2.43.35 0 .3.37.56.65.45.27-.1.35-.21.35-.47 0-.25-.03-.3-.32-.54-.1-.08-.13-.16-.13-.43l-.02-.39c0-.03.09-.1.2-.15.12-.07.23-.2.32-.38.12-.23.13-.3.08-.48l-.06-.2.39-.26c.36-.24.4-.26.57-.2.24.08.45.03.58-.15a.5.5 0 0 0-.17-.77.5.5 0 0 0-.22-.05Zm5.3.03a.7.7 0 0 0-.68.9.7.7 0 0 0 1.11.34l.17-.14.42.18.42.18v.57l-.43.18-.42.18-.18-.13c-.36-.26-.84-.12-1.05.31-.18.37.04.81.46.94.2.05.25.05.52-.09l.3-.14.48.25c.44.24.47.26.5.47.03.15.1.26.23.37.17.15.18.19.22.62.03.4.03.46-.05.5-.14.05-.26.33-.22.52.07.33.52.44.78.2a.48.48 0 0 0 .13-.29c0-.11.07-.17.4-.33.36-.19.4-.2.5-.12.24.17.64.08.78-.17.14-.27.05-.6-.2-.74-.14-.07-.14-.1-.14-.58 0-.34.02-.53.08-.59.15-.17.16-.32 0-.47-.16-.17-.25-.18-.42-.04-.15.13-.16.37 0 .53.1.1.12.2.11.6 0 .46 0 .47-.18.58-.13.08-.19.17-.23.35-.05.23-.08.25-.43.43-.37.18-.4.19-.52.1-.12-.07-.14-.12-.14-.53 0-.43.01-.46.17-.6.13-.13.17-.2.17-.38 0-.41-.4-.64-.8-.45-.12.05-.2.02-.64-.21l-.51-.27.01-.22c.02-.2.03-.21.42-.38l.4-.16.13.12c.45.43 1.14.33 1.42-.22.16-.32.16-.53 0-.8a.84.84 0 0 0-.79-.48c-.26 0-.38.04-.7.28-.06.05-.17.02-.48-.12-.34-.15-.4-.2-.4-.31a.81.81 0 0 0-.35-.63.72.72 0 0 0-.37-.1ZM3.7 10.5a.58.58 0 0 0-.59.59c0 .14-.05.2-.43.42-.32.18-.47.25-.58.23-.2-.04-.4.16-.34.33.06.2.13.26.3.26.15 0 .36-.19.3-.28-.03-.05.12-.17.52-.4.34-.2.35-.2.52-.1.17.09.17.09.13.44-.02.2-.07.41-.11.47-.2.29 0 .64.33.58.1-.02.23.03.44.18.26.18.29.22.32.46.03.27.1.4.28.46.1.03.1.1.1.67v.64l-.2.2c-.17.16-.2.2-.16.36.09.45.56.6.83.27.2-.24.19-.42-.05-.64l-.2-.19v-1.2l.2-.17c.12-.1.2-.23.2-.31 0-.19.04-.24.37-.4.27-.14.3-.15.42-.07.34.25.87-.02.87-.44 0-.26-.3-.58-.52-.58-.32 0-.58.24-.59.54 0 .16-.03.2-.3.33-.3.15-.3.15-.5.04-.17-.09-.22-.1-.42-.03-.21.06-.24.06-.47-.1-.27-.19-.33-.26-.35-.42a.46.46 0 0 0-.15-.23c-.1-.1-.12-.15-.1-.45.02-.27.04-.35.12-.38.42-.13.47-.84.07-1.02a.65.65 0 0 0-.27-.06z" transform="matrix(8.87103 0 0 8.87103 -4.33 -35.2)" fill="url(#b)"/>
</svg>