<?xml version="1.0" encoding="UTF-8" standalone="no"?>
<svg
   width="256"
   height="256"
   viewBox="0 0 67.73376 67.732"
   xml:space="preserve"
   version="1.1"
   id="svg16"
   sodipodi:docname="logo-vert.svg"
   inkscape:version="1.2.2 (732a01da63, 2022-12-09)"
   xmlns:inkscape="http://www.inkscape.org/namespaces/inkscape"
   xmlns:sodipodi="http://sodipodi.sourceforge.net/DTD/sodipodi-0.dtd"
   xmlns:xlink="http://www.w3.org/1999/xlink"
   xmlns="http://www.w3.org/2000/svg"
   xmlns:svg="http://www.w3.org/2000/svg"><sodipodi:namedview
     id="namedview26654"
     pagecolor="#ffffff"
     bordercolor="#000000"
     borderopacity="0.25"
     inkscape:showpageshadow="2"
     inkscape:pageopacity="0.0"
     inkscape:pagecheckerboard="0"
     inkscape:deskcolor="#d1d1d1"
     showgrid="false"
     inkscape:zoom="4.6238152"
     inkscape:cx="209.99974"
     inkscape:cy="62.069955"
     inkscape:window-width="2560"
     inkscape:window-height="1017"
     inkscape:window-x="-8"
     inkscape:window-y="-8"
     inkscape:window-maximized="1"
     inkscape:current-layer="svg16"
     showguides="true"><sodipodi:guide
       position="33.846946,19.723801"
       orientation="1,0"
       id="guide22659"
       inkscape:locked="false" /></sodipodi:namedview><defs
     id="defs8"><linearGradient
       id="a"><stop
         style="stop-color:#f60;stop-opacity:1"
         offset="0"
         id="stop2" /><stop
         style="stop-color:#f0f;stop-opacity:1"
         offset="1"
         id="stop4" /></linearGradient><linearGradient
       xlink:href="#a"
       id="b"
       x1="9.9110003"
       y1="27.725"
       x2="19.257"
       y2="36.005001"
       gradientUnits="userSpaceOnUse"
       gradientTransform="matrix(4.4152805,0,0,4.4152805,-32.030169,-119.53467)" /><linearGradient
       inkscape:collect="always"
       xlink:href="#a"
       id="linearGradient6994"
       x1="-15.234996"
       y1="8.1326065"
       x2="0.87738293"
       y2="8.1326065"
       gradientUnits="userSpaceOnUse"
       gradientTransform="matrix(2.9680604,0,0,2.9680604,53.34285,-0.09763342)" /><inkscape:path-effect
       effect="fill_between_many"
       method="originald"
       linkedpaths="#rect22398,0,1"
       id="path-effect23404" /></defs><path
     id="path23406"
     style="fill:#ffd5d5;fill-opacity:0.9040404;stroke:#e20000;stroke-opacity:1;stroke-width:0.793755;stroke-dasharray:none"
     d="M 32.621094,0.99804688 C 31.074816,1.1226023 29.915578,2.2942715 29.151013,3.5521453 c -0.313205,0.6555106 -0.95762,1.2340886 -0.847091,2.0027132 -0.181827,0.5083809 0.202136,1.091236 0.03137,1.5256937 -1.037892,1.1454255 -1.453975,2.7443821 -2.720972,3.6934508 -0.811799,0.691342 -1.822644,1.245445 -2.160731,2.330481 -1.529302,3.817299 -3.262924,7.665725 -3.633273,11.809578 -0.149471,1.573367 0.431342,3.091418 1.31836,4.365235 -0.988277,0.03888 -1.976339,0.08506 -2.960938,0.181641 -1.454506,1.83873 -2.753416,3.821465 -4.30224,5.571566 -1.332091,1.032655 -2.998706,1.576167 -4.2900659,2.639278 -0.674995,1.187341 -0.9706158,2.565881 -1.4487093,3.820406 0.1295269,0.454663 0.4616742,0.822001 0.5839843,1.28125 3.0215589,-0.02924 6.0546229,0.03839 9.0800779,0.09961 -0.420926,0.951379 -0.839889,1.903625 -1.259765,2.855469 0.909001,0.543356 2.007475,0.642096 3.001953,0.976562 2.076454,0.351796 4.18701,-0.0065 6.279284,0.08871 6.410985,-0.05058 12.826865,0.0011 19.234943,-0.05286 1.221631,-0.237296 2.446952,-0.457377 3.661554,-0.729217 -0.117181,-1.127409 -0.35224,-2.238222 -0.490234,-3.363281 2.572924,-0.0043 5.146132,0.01614 7.71875,-0.0332 -0.717376,-1.543335 -1.293745,-3.173825 -2.111103,-4.657302 -1.958055,-2.241516 -4.331644,-4.189263 -5.773663,-6.834885 -0.518771,-0.805607 -0.460923,-1.746736 -0.441958,-2.66367 0.0391,-2.679866 -0.0056,-5.407772 -0.851373,-7.978642 C 46.163035,18.297545 45.611188,16.04559 44.508086,14.055486 43.531947,12.67652 42.086917,11.671058 41.185547,10.248047 40.880466,9.4628658 39.892479,9.1703577 39.617511,8.3400903 39.06884,7.8347271 38.466147,7.1569079 38.743338,6.3512998 38.698635,5.1846317 37.97806,4.1851033 37.539675,3.1373139 36.781532,1.8307634 35.343299,0.70110592 33.753906,0.953125 33.405398,0.78523769 32.98827,1.0036009 32.621094,0.99804688 Z" /><path
     id="path3018"
     style="fill:url(#linearGradient6994);fill-opacity:1;stroke-width:0.118056"
     d="m 33.635577,0.93224798 c 0.03635,-0.13167607 -0.926452,0.0408092 -1.153359,0.10191622 -0.09972,0.02686 -0.185214,0.047249 -0.263322,0.055796 -0.239483,0.07063 -0.608551,0.1044801 -0.848981,0.2242217 -0.287007,0.142939 -0.547206,0.3395283 -0.789968,0.5490074 -0.312994,0.2700977 -0.615459,0.557972 -0.870203,0.8835757 -0.341705,0.4367652 -0.639603,0.9086196 -0.910555,1.3924666 l -0.507502,0.9064069 c 0.0061,0.060527 0.09352,0.4256488 0.02259,0.6122998 -0.09056,0.2381401 -0.08733,0.4671325 0.01129,0.8194774 0.136285,0.4868046 0.13421,0.4924026 -0.462304,1.2326729 -0.329599,0.4089986 -0.659696,0.9334869 -0.733497,1.1655804 -0.07377,0.2320966 -0.306881,0.6078953 -0.518106,0.8351541 -0.211249,0.2272739 -0.430771,0.5004759 -0.487907,0.6071139 -0.05714,0.106647 -0.528993,0.509016 -1.048445,0.894185 -0.519446,0.38517 -1.007429,0.777402 -1.084411,0.87159 -0.382172,0.467566 -2.046644,4.574809 -2.889844,7.130655 -1.531071,4.640861 -1.685371,7.183067 -0.549932,9.06913 0.280659,0.466177 0.52806,0.887443 0.5497,0.936151 0.02167,0.04872 -0.222756,0.08852 -0.543015,0.08852 -0.320269,0 -0.987037,0.03428 -1.481701,0.07609 l -0.899258,0.07609 -1.273025,1.655557 c -0.793102,1.214115 -1.890183,2.459479 -2.669178,3.567533 -0.213752,0.314569 -0.744385,0.676486 -2.101036,1.432586 -0.998351,0.556409 -2.002544,1.119268 -2.2315462,1.250892 -0.3886,0.223336 -0.461922,0.368632 -1.097096,2.178045 l -0.6804359,1.938709 0.3004379,0.635012 0.300437,0.635015 4.4759972,0.03596 c 2.461824,0.01984 4.507824,0.06794 4.546554,0.106769 0.03873,0.03883 -0.05689,0.304436 -0.212378,0.590281 -0.155454,0.285817 -0.378241,0.785121 -0.495284,1.109775 -0.117056,0.324654 -0.282918,0.695096 -0.368464,0.823168 -0.08559,0.128074 -0.155637,0.269945 -0.155637,0.315204 0,0.104938 0.903297,0.406124 2.479188,0.826626 v -2.35e-4 c 1.227319,0.327496 1.265278,0.330271 3.836831,0.265184 1.428478,-0.0362 6.980095,-0.06379 12.336893,-0.06156 l 9.739655,0.0046 1.888904,-0.361544 c 1.038895,-0.198857 1.904581,-0.375829 1.923719,-0.393139 0.01892,-0.0174 -0.07384,-0.668117 -0.20661,-1.446193 -0.132744,-0.778079 -0.241436,-1.528203 -0.241436,-1.667085 v -0.2527 h 3.836834 c 2.110242,0 3.836831,-0.01404 3.836831,-0.03159 0,-0.0174 -0.424428,-0.987006 -0.9433,-2.154531 -0.51886,-1.167524 -0.944988,-2.176061 -0.947216,-2.240992 -0.0023,-0.06492 -0.851377,-0.994631 -1.88729,-2.06599 -1.045427,-0.943853 -2.019133,-2.164991 -2.848568,-3.158114 -0.439433,-0.453891 -0.829412,-1.030895 -1.176876,-1.741332 l -0.5197,-1.062489 -0.0055,-2.951409 c -0.0061,-3.233856 -0.06416,-3.705939 -0.829159,-6.729217 -0.507649,-2.006271 -1.450821,-4.878153 -1.935248,-5.893175 -0.278033,-0.582528 -0.717717,-1.11472 -2.009961,-2.432378 -0.909804,-0.927709 -1.6544,-1.753874 -1.6544,-1.835871 0,-0.320677 -0.164824,-0.5367373 -0.720561,-0.9446798 C 40.151286,9.1736616 39.89116,8.892246 39.89116,8.7817071 c 0,-0.1105236 -0.26561,-0.4628136 -0.590277,-0.7825843 -0.520655,-0.5128194 -0.590287,-0.639276 -0.590287,-1.0726502 0,-0.2702503 0.09841,-0.7982396 10e-4,-1.0742893 C 38.624982,5.6065956 38.552521,5.3644081 38.537565,5.2738922 L 38.369902,4.9019669 C 38.274182,4.6896797 38.150961,4.4903617 38.057466,4.2770977 37.970872,4.0795531 37.921089,3.8667195 37.8301,3.6711345 37.731206,3.4585421 37.608534,3.2576308 37.489305,3.0557244 37.412754,2.9260629 37.336294,2.7954856 37.24329,2.6771115 37.092751,2.4854578 36.941937,2.2908312 36.760478,2.1281041 36.541964,1.9321467 36.142428,1.5437389 35.888385,1.3967434 35.637669,1.2516677 35.373805,1.1180382 35.093121,1.0464954 34.721166,0.92992823 34.330521,0.91665074 33.939994,0.93813891 c -0.09798,-0.004273 -0.32614,0.072431 -0.304588,-0.005494 z M 33.508479,1.5693172 c 0.354723,-0.00336 0.617788,0.054239 0.718028,0.1749881 0.0818,0.098559 0.154813,0.3774866 0.162077,0.6197962 0.01099,0.3684305 -0.029,0.4465174 -0.245343,0.4772998 -0.142268,0.020145 -0.384944,-0.045876 -0.539097,-0.1468765 -0.363519,-0.2381707 -1.386469,-0.3865092 -1.386469,-0.2010547 0,0.073743 0.146083,0.1376891 0.324652,0.1422675 0.823799,0.021061 0.775155,0.165465 -0.228739,0.6779028 -0.539692,0.2755003 -1.349595,0.7253904 -1.799903,0.9995599 L 29.6949,4.8114815 29.72115,5.5788502 c 0.05226,1.5363672 -0.798954,3.5711226 -1.872309,4.4757648 -0.682783,0.575468 -1.0548,1.253405 -1.058814,1.928792 -0.0013,0.243512 -0.04719,0.442711 -0.101672,0.442711 -0.189242,0 -0.373305,-0.604794 -0.373305,-1.227368 0,-0.500378 0.06721,-0.718492 0.334571,-1.086489 0.183962,-0.253249 0.422569,-0.5329156 0.530325,-0.6216428 0.107746,-0.08873 0.248365,-0.3543563 0.312436,-0.5902805 0.06407,-0.2359425 0.40189,-0.7553213 0.750535,-1.1540488 L 28.876778,7.0213502 28.758258,6.44352 C 28.642759,5.8795716 28.655304,5.8356338 29.27383,4.6302454 30.153758,2.9154867 30.909711,2.1493359 32.053691,1.812341 c 0.501947,-0.1478838 0.991721,-0.2294411 1.382781,-0.2416503 0.02442,-7.6e-4 0.04853,-0.00116 0.07219,-0.00138 z m 1.288927,0.4867558 c 0.0079,1.984e-4 0.01679,7.569e-4 0.02625,0.00183 0.27141,0.029913 1.185194,0.3892288 1.530812,0.6179496 0.57396,0.3798216 0.930181,0.9905586 1.478245,2.5349839 0.363849,1.0249062 0.42318,1.3235398 0.364084,1.8224956 -0.07029,0.5933298 -0.06712,0.6002829 0.546245,1.2329049 0.771853,0.7961244 0.851496,0.8679357 1.502221,1.3537301 0.292166,0.2181171 0.54678,0.5018469 0.565609,0.6304059 0.02014,0.136896 -0.109669,0.371614 -0.313123,0.566531 -0.335032,0.320973 -0.350315,0.324346 -0.424498,0.09062 C 40.030981,10.77423 39.79418,10.504825 39.546846,10.308941 39.275344,10.093938 38.920533,9.6124537 38.651742,9.0940242 38.406856,8.6217088 38.077993,8.0621924 37.920802,7.8507415 37.72399,7.5859853 37.563617,7.0897308 37.405688,6.2569789 37.083664,4.5589284 37.105891,4.6293175 36.695507,4.0097562 36.31382,3.4335193 35.512315,2.8635488 35.083531,2.8635488 c -0.182191,0 -0.256423,-0.094682 -0.300437,-0.3836828 -0.03199,-0.2110358 -0.04676,-0.3968504 -0.03272,-0.4131985 0.0067,-0.00794 0.02289,-0.011293 0.04682,-0.010683 z m -0.117361,0.970734 c 0.156186,1.251e-4 0.285695,0.025334 0.432565,0.073774 1.086948,0.3587272 1.778555,1.5167531 1.964996,3.2899023 0.137078,1.3034587 0.136895,2.2191415 -0.07936,2.9636332 -0.28771,0.7727585 -0.819737,0.3850654 -1.145048,0.2534016 -1.345873,-0.550387 -1.369806,-0.5554233 -1.698447,-0.3560137 -0.271654,0.1648545 -0.36572,0.1676626 -0.788118,0.022282 -0.551697,-0.1900665 -0.851878,-0.106403 -1.62489,0.4535499 -0.256546,0.1858238 -0.512621,0.3377977 -0.56907,0.3377977 -0.05647,0 -0.280109,-0.332035 -0.497131,-0.737853 -0.383652,-0.7174789 -0.39562,-0.782386 -0.43533,-2.3578989 -0.02656,-1.0462936 0.0055,-1.7077995 0.09111,-1.8672331 0.07268,-0.1357967 0.371916,-0.3496925 0.664756,-0.4752212 0.292868,-0.1255104 0.75396,-0.4070451 1.024696,-0.6257909 0.664521,-0.5369051 0.850736,-0.6229737 1.831258,-0.8459958 0.339864,-0.077284 0.571051,-0.1187039 0.759296,-0.126823 0.0235,-0.00103 0.0464,-0.00138 0.06871,-0.00138 z m 1.008323,3.7780377 c -0.02564,1.923e-4 -0.05564,0.00143 -0.09013,0.00366 -0.09206,0.00549 -0.217049,0.016788 -0.380918,0.033209 -0.765665,0.075453 -0.809814,0.09047 -0.715949,0.2423524 0.112629,0.182222 1.001727,0.1007257 1.213541,-0.1111342 0.123309,-0.1233405 0.152977,-0.1692166 -0.02656,-0.1678735 z m -3.414186,0.00519 c -0.584868,-0.00244 -1.304984,0.099261 -1.057895,0.1957743 0.128715,0.050271 0.461477,0.095048 0.739471,0.099596 0.334776,0.00549 0.528398,0.068219 0.573447,0.1856101 0.05616,0.1462966 0.116475,0.130852 0.345178,-0.088547 l 0.277148,-0.265855 -0.378381,-0.085312 c -0.124106,-0.027776 -0.304008,-0.040443 -0.498971,-0.041298 z m -2.486562,0.887037 0.147334,0.7230951 c 0.126518,0.6203121 0.300194,0.9729927 1.002326,2.0364732 0.04469,0.0677 0.438682,-0.114216 0.935922,-0.432336 0.923277,-0.5907108 1.072953,-0.6280525 1.522278,-0.3792996 0.25505,0.1411993 0.345953,0.1343316 0.715486,-0.054209 0.461431,-0.2353931 0.398993,-0.2504409 2.143231,0.5162656 0.395446,0.173828 0.452628,0.174561 0.620489,0.0067 0.281177,-0.2811777 0.445952,-0.630162 0.65646,-1.3903914 l 0.191623,-0.6924114 0.455397,0.8695138 c 0.250441,0.4782521 0.653399,1.13514 0.895336,1.459794 0.570346,0.765342 0.818476,1.529118 0.816245,2.512852 -0.0027,1.094502 -0.139734,1.265503 -0.592124,0.738286 -0.400779,-0.467068 -0.42904,-0.394857 -0.157712,0.401435 0.417734,1.22601 -0.01129,3.335956 -1.029302,5.060982 -0.565325,0.958067 -2.077957,2.536312 -3.057943,3.190749 -0.356255,0.237896 -0.731058,0.432565 -0.832849,0.432565 -0.350111,0 -2.88663,-1.541605 -3.452694,-2.098496 -1.888226,-1.857643 -3.421673,-5.370171 -2.920302,-6.688873 0.104174,-0.273974 0.08757,-0.302971 -0.174073,-0.302971 -0.476042,0 -0.666707,-0.519183 -0.52157,-1.420367 0.151821,-0.942607 0.224435,-1.075221 1.098021,-2.003268 0.453543,-0.4818235 0.874077,-1.0871518 1.130295,-1.6267368 z m 11.19115,3.6357703 c 0.141626,-0.0011 0.42914,0.296225 1.345428,1.245355 0.734254,0.760583 1.466179,1.608569 1.626501,1.884524 0.726126,1.249845 1.805766,4.507879 2.309017,6.968329 0.735954,3.598001 0.993488,8.219098 0.508198,9.120072 -0.196019,0.363888 -0.640976,0.73596 -1.118997,0.93569 -0.632383,0.264207 -1.146189,0.216805 -1.628577,-0.150081 -1.346142,-1.023923 -2.481529,-1.944212 -2.444373,-1.981365 0.02381,-0.0235 0.221749,0.0082 0.44041,0.07103 0.857451,0.245893 0.388865,-0.10973 -1.176416,-0.892802 -0.981808,-0.491182 -2.148738,-0.663502 -2.846267,-0.420347 -0.210974,0.07356 -0.405613,0.111805 -0.432565,0.08485 -0.108784,-0.108783 1.510102,-1.090368 2.876243,-1.743865 l 1.453335,-0.695197 0.240277,0.240277 c 0.235271,0.235271 1.627463,0.947912 1.851786,0.947912 0.12841,0 0.04557,-0.944582 -0.305517,-3.482664 -0.125785,-0.909053 -0.322341,-2.388807 -0.436964,-3.288538 -0.205083,-1.609842 -0.217506,-1.650249 -0.780505,-2.538214 -0.314674,-0.496282 -0.76692,-1.300928 -1.004868,-1.78791 -0.237957,-0.486981 -0.449347,-0.91632 -0.469919,-0.954135 -0.02045,-0.03782 0.228159,-0.01435 0.552932,0.05232 0.324777,0.06651 0.624512,0.08681 0.666139,0.0452 0.101886,-0.101886 -0.488886,-0.608268 -1.08372,-0.928771 l -0.482834,-0.260086 0.0174,-1.013625 c 0.01007,-0.59224 0.08336,-1.134688 0.175934,-1.304619 0.04945,-0.09075 0.08366,-0.152828 0.148037,-0.153317 z m -15.195152,0.149166 0.133049,0.324654 c 0.321279,0.784297 0.316615,0.812533 -0.125663,0.760898 -0.693372,-0.08095 -0.715125,0.03263 -0.08394,0.437641 0.70455,0.452109 0.764997,0.709918 0.252028,1.07519 -0.687591,0.489622 -0.707147,0.608731 -0.700499,4.272397 0.0034,1.837519 0.04542,3.695344 0.09361,4.128514 l 0.0876,0.78766 -0.320503,-0.228281 c -0.17627,-0.12551 -0.454005,-0.387043 -0.61726,-0.581059 -0.631282,-0.750233 -0.499066,-0.279774 0.237255,0.84392 0.775723,1.183812 1.787641,2.04393 3.591732,3.053328 l 1.582466,0.885422 -0.471076,0.07261 c -0.25911,0.03986 -0.790054,0.160093 -1.179643,0.267229 -0.389583,0.107135 -1.159915,0.246656 -1.711816,0.310132 -0.990015,0.113881 -1.964791,0.126761 -2.65627,0.03504 -1.200758,-0.159269 -3.174907,-1.047734 -3.393427,-1.52736 -0.180879,-0.396991 0.07866,-2.43503 0.557539,-4.378 0.480867,-1.951037 1.145807,-3.97 2.077515,-6.308642 1.095853,-2.750616 1.319083,-3.161846 2.024252,-3.729613 z m 2.786545,10.291659 c 0.0235,-0.004 0.07808,0.02503 0.141352,0.07747 0.426561,0.354012 4.476055,1.669866 5.144676,1.671697 0.21424,5.8e-4 -0.01801,0.224283 -0.981802,0.945144 -0.694321,0.519446 -1.309985,0.94445 -1.368027,0.94445 -0.103564,0 -2.948414,-3.496271 -2.948414,-3.623548 0,-0.0089 0.0046,-0.01404 0.01221,-0.01526 z m 3.184296,5.953782 c 1.082384,-0.0027 2.260714,0.171417 2.865404,0.481905 0.325939,0.167327 0.887538,1.190695 1.056516,1.925337 0.07664,0.33321 -0.258896,0.653777 -0.867207,0.828237 -0.337132,0.0967 -0.348407,0.0869 -0.348407,-0.302513 0,-0.405027 -0.558793,-1.706282 -0.73278,-1.706282 -0.145686,0 -0.113179,0.16168 0.154019,0.765754 0.286977,0.648735 0.241772,1.310644 -0.131188,1.923948 -0.388374,0.638623 -0.588669,0.502872 -0.588669,-0.399134 0,-0.784831 -0.149745,-1.250278 -0.584746,-1.816498 -0.35664,-0.46422 -0.39219,-0.21305 -0.06828,0.482816 0.294882,0.633437 0.360302,1.103487 0.224343,1.610819 -0.115834,0.432199 -0.364129,0.305077 -0.576679,-0.295158 -0.376217,-1.062357 -0.560215,-1.433941 -0.83954,-1.696356 -0.352922,-0.331589 -0.351994,-0.238628 0.0034,0.462771 0.155759,0.307397 0.32127,0.863449 0.367775,1.235673 l 0.08436,0.676749 h -0.349831 c -0.294119,0 -0.383778,-0.07524 -0.563308,-0.47338 -0.117452,-0.260453 -0.548503,-0.85812 -0.957822,-1.328131 -0.769673,-0.883789 -1.025981,-1.4526 -0.736468,-1.633656 0.08809,-0.05509 0.443234,-0.159391 0.789272,-0.23173 0.34603,-0.07234 0.605494,-0.155179 0.576448,-0.184237 -0.029,-0.029 -0.28423,-8e-4 -0.566995,0.06273 -0.752766,0.169158 -0.702345,0.06587 0.09038,-0.184908 0.435608,-0.137811 1.050631,-0.2031 1.700062,-0.204748 z m -6.325008,1.444804 0.831464,0.0572 c 1.15627,0.07948 2.664929,0.672897 3.294514,1.295852 0.263047,0.26027 0.356407,0.374801 0.207525,0.254562 -0.264756,-0.213813 -0.268815,-0.2136 -0.186068,0.01099 0.04655,0.126243 0.336666,0.686685 0.6447,1.245359 0.828485,1.502575 1.781754,3.42887 1.724963,3.485661 -0.02717,0.02717 -0.249067,-0.193729 -0.492748,-0.491133 -0.243695,-0.297385 -0.464196,-0.519244 -0.490214,-0.493208 -0.04771,0.04771 1.260584,2.215283 3.114432,5.159891 1.079237,1.714258 3.85918,5.730464 4.046658,5.846329 0.06273,0.03876 0.113912,0.121665 0.113912,0.184237 0,0.06257 -0.491413,-0.271685 -1.09202,-0.742926 -1.152629,-0.904472 -2.640047,-2.350448 -5.318306,-5.169693 -0.894417,-0.941496 -1.562864,-1.580216 -1.485391,-1.419446 0.244673,0.50775 1.5758,2.619228 2.338301,3.709093 0.817777,1.168864 0.915695,1.210345 -0.942147,-0.400745 -0.411812,-0.357122 -0.701469,-0.56962 -0.643543,-0.472224 0.739398,1.243249 1.569143,2.330037 2.87624,3.767422 l 0.86836,0.954831 -0.396133,-0.01343 c -0.217903,-0.0073 -1.615025,-0.136227 -3.104518,-0.286308 -2.535344,-0.255417 -2.721315,-0.290426 -2.91588,-0.547314 -0.437843,-0.578053 -1.996184,-3.893417 -2.462816,-5.239907 -0.493254,-1.423314 -1.290037,-4.518064 -1.540268,-5.981909 l -0.135827,-0.794803 0.772439,-0.854759 c 0.424876,-0.470166 0.762195,-0.864401 0.749613,-0.875969 -0.01251,-0.0116 -0.52776,0.07463 -1.144596,0.191623 -0.616838,0.116964 -1.132551,0.202398 -1.146207,0.189792 -0.05039,-0.04658 0.633751,-1.008482 1.264264,-1.777303 z m 13.186576,0.02747 c 1.072214,-0.01068 1.518301,0.136193 2.052843,0.605499 0.476662,0.418516 0.489045,0.553021 0.123588,1.337821 -0.341259,0.732842 -3.050163,3.515004 -3.359538,3.45038 -0.420795,-0.08788 -0.116872,-0.792745 0.993791,-2.304404 0.298179,-0.405815 0.486762,-0.737853 0.418965,-0.737853 -0.209785,0 -1.553369,1.674865 -1.917725,2.390641 -0.324276,0.637026 -0.61338,0.840419 -0.853602,0.6002 -0.275042,-0.275042 0.237469,-1.487255 1.083257,-2.562195 0.839214,-1.066588 0.846722,-1.162323 0.02961,-0.369618 -0.801178,0.777118 -1.323411,1.528432 -1.543036,2.219093 -0.121665,0.382547 -0.168914,0.426128 -0.322579,0.298606 -0.135858,-0.112721 -0.164671,-0.298881 -0.117117,-0.759292 0.07863,-0.761838 0.315248,-1.224917 0.998864,-1.955774 0.832111,-0.889583 0.495293,-0.812528 -0.437403,0.100085 -0.78375,0.766843 -0.832855,0.795987 -0.832855,0.494823 0,-0.187015 0.168944,-0.532373 0.40651,-0.831006 0.22352,-0.281025 0.528786,-0.743903 0.678364,-1.028841 0.404756,-0.771034 0.635989,-0.874068 2.098036,-0.934308 0.180818,-0.0073 0.346954,-0.01251 0.500128,-0.01404 z m -17.318555,0.557996 -0.579213,0.508427 c -0.592497,0.520157 -3.042389,3.192461 -2.982075,3.252774 0.01831,0.01862 0.498678,-0.130058 1.067351,-0.329727 0.568664,-0.199651 1.065841,-0.33122 1.104699,-0.292379 0.06736,0.06739 -0.37361,3.966657 -0.541398,4.787047 l -0.08024,0.391756 -3.303503,0.805413 c -1.816965,0.443028 -3.307776,0.807811 -3.312727,0.810711 -0.0052,0.0034 -0.622379,-0.406264 -1.372175,-0.909401 L 9.9347758,37.867753 11.130101,37.213139 c 0.657357,-0.359963 1.457325,-0.80917 1.777764,-0.998174 0.465725,-0.274737 0.566628,-0.301598 0.502661,-0.134881 -0.163603,0.42629 0.641181,-0.296866 1.200624,-1.078883 0.30117,-0.420997 1.184911,-1.600099 1.96407,-2.620067 0.779172,-1.019964 1.522931,-1.995106 1.652788,-2.166978 0.225901,-0.298972 0.297446,-0.315589 1.652791,-0.384375 z m 26.129439,1.151738 c 0.0052,2.32e-4 0.01038,0.0027 0.01526,0.0079 0.05192,0.05659 0.534814,1.085659 1.073117,2.286881 0.951663,2.123633 1.28028,2.767533 1.367563,2.680249 0.0235,-0.0235 -0.117635,-0.516399 -0.313361,-1.095713 l -0.35601,-1.053283 0.392903,0.413198 c 0.216072,0.227274 1.204119,1.244516 2.195575,2.260366 l 1.802665,1.846935 -1.193246,1.045448 -1.193244,1.04521 1.316605,0.118094 1.316376,0.118093 0.470841,0.531258 c 0.258866,0.292166 0.574674,0.677348 0.701885,0.855907 0.260605,0.365778 0.258652,0.366312 -0.552237,0.134667 -0.324657,-0.09276 -1.969466,-0.526093 -3.655372,-0.96313 L 47.750853,40.346346 47.541709,39.401892 C 47.42676,38.88245 47.114083,37.547033 46.846976,36.434117 l -0.485602,-2.023562 0.238171,-0.942146 c 0.401023,-1.585812 0.706167,-2.532735 0.822017,-2.558502 0.0018,-4.25e-4 0.0034,-5.38e-4 0.0055,-4.49e-4 z m -6.008656,0.644129 c 0.512077,0.367604 0.788084,0.456447 1.38301,0.732777 0.591258,0.277637 1.023362,0.392181 1.605752,0.425878 0.438292,0.02533 0.796885,0.05509 0.796885,0.06621 0,0.01099 0.189914,0.576365 0.421955,1.255961 0.271227,0.794263 0.776141,3.006613 1.413452,6.193812 0.545292,2.727095 1.025724,5.077901 1.067577,5.223999 0.10625,0.371104 -0.05406,0.332117 -1.368253,-0.334346 l -1.121536,-0.568853 -0.440635,-1.57001 C 44.934018,42.115466 44.602844,40.904073 44.440455,40.287226 44.190655,39.338374 44.0867,39.12025 43.76624,38.870551 43.557921,38.70823 42.609822,37.931918 41.659209,37.145363 l -1.728421,-1.43005 0.204046,-0.990107 c 0.112233,-0.544526 0.266344,-1.149482 0.342413,-1.344277 0.134942,-0.345605 0.818003,-1.732059 0.891649,-1.809813 0.0116,-0.01221 0.02869,-0.01801 0.04936,-0.0174 z"
     sodipodi:nodetypes="sscsssccscssssssssssccccsscccccsssssccscccssscsssscccccsssssssssccssssssccssccssscscccscssssscccssssscscssssssssssssccssssscsssssssssssssssssssssssscsccsssssscccscsssssssssscccssssscssscscssssssssccccssccssscccssscccssssscccssssssssssssssssssssccccsssssscssccsssssscscssssssscccsssccssscccsssssssssccsssssssssccssccccscccsssssccscssccsccccsccsscccccccsccssssccccsscccsscccccssccccccc" /><text
     xml:space="preserve"
     style="font-weight:bold;font-size:13.8237px;font-family:arial;-inkscape-font-specification:'arial Bold';text-align:center;direction:rtl;text-anchor:middle;fill:#ff24a4;fill-opacity:1;stroke-width:0.3968775;stroke-linecap:round;stroke-linejoin:round;paint-order:markers stroke fill;stop-color:#000000;stroke:#e20000;stroke-opacity:1;stroke-dasharray:none"
     x="33.735538"
     y="59.413853"
     id="text7515"><tspan
       sodipodi:role="line"
       id="tspan7513"
       style="font-style:normal;font-variant:normal;font-weight:normal;font-stretch:normal;font-size:13.8237px;font-family:SpaceColonyW03-Medium;-inkscape-font-specification:'SpaceColonyW03-Medium, Normal';font-variant-ligatures:normal;font-variant-caps:normal;font-variant-numeric:normal;font-variant-east-asian:normal;fill:#ff24a4;fill-opacity:1;stroke-width:0.3968775;stroke:#e20000;stroke-opacity:1;stroke-dasharray:none"
       x="33.735538"
       y="59.413853">MEME</tspan></text><text
     xml:space="preserve"
     style="font-weight:bold;font-size:7.14311px;font-family:arial;-inkscape-font-specification:'arial Bold';text-align:center;direction:rtl;text-anchor:middle;fill:#ff24a4;fill-opacity:1;stroke:#e20000;stroke-width:0.264585;stroke-linecap:round;stroke-linejoin:round;stroke-dasharray:none;stroke-opacity:1;paint-order:markers stroke fill;stop-color:#000000"
     x="52.619404"
     y="65.812317"
     id="text7515-0"><tspan
       sodipodi:role="line"
       id="tspan7513-3"
       style="font-style:normal;font-variant:normal;font-weight:normal;font-stretch:normal;font-size:7.14311px;font-family:SpaceColonyW03-Medium;-inkscape-font-specification:'SpaceColonyW03-Medium, Normal';font-variant-ligatures:normal;font-variant-caps:normal;font-variant-numeric:normal;font-variant-east-asian:normal;fill:#ff24a4;fill-opacity:1;stroke:#e20000;stroke-width:0.264585;stroke-dasharray:none;stroke-opacity:1"
       x="52.619404"
       y="65.812317">NTOR</tspan></text><path
     style="fill:#ff289b;fill-opacity:1;stroke:#e20000;stroke-width:0.347481;stroke-linecap:round;stroke-linejoin:round;stroke-dasharray:none;stroke-opacity:1;paint-order:markers stroke fill;stop-color:#000000"
     d="m 30.429865,11.462179 c 0.464468,0.124659 0.900501,0.399908 1.398472,0.358898 0.867811,0.01313 1.742077,0.02598 2.599337,-0.130451 0.606705,-0.101269 1.220567,-0.281021 1.707286,-0.672852 0.214536,-0.142742 0.453592,-0.364166 0.731399,-0.255774 0.334776,0.101545 0.545806,0.514462 0.369216,0.833409 -0.216434,0.485436 -0.773519,0.658042 -1.247185,0.782329 -1.205298,0.315149 -2.448466,0.541543 -3.699207,0.476148 -0.355893,-0.01617 -0.715751,0.0137 -1.069084,-0.02465 -0.23186,-0.0278 -0.657447,-0.203116 -0.535308,-0.476645 0.04717,-0.105655 0.122334,-0.224396 -0.07584,-0.213369 -0.290971,-0.01509 -0.619853,-0.687592 -0.179086,-0.677046 z"
     id="path14397"
     sodipodi:nodetypes="aaaaaaaaasaa" /><path
     style="fill:none;fill-opacity:1;stroke:#e20000;stroke-width:0.17374;stroke-linecap:round;stroke-linejoin:round;stroke-dasharray:none;stroke-opacity:1;paint-order:markers stroke fill;stop-color:#000000"
     d="m 30.717354,12.256005 c 1.050635,0.116057 2.113456,0.122729 3.18264,0.05094 1.007374,-0.117764 2.003592,-0.30088 2.767801,-0.845103"
     id="path14399"
     sodipodi:nodetypes="ccc" /></svg>
