<?xml version="1.0" encoding="UTF-8" standalone="no"?>
<svg
   width="200"
   height="64"
   viewBox="0 0 52.917 16.933"
   xml:space="preserve"
   version="1.1"
   id="svg29337"
   sodipodi:docname="logo-horz.svg"
   inkscape:version="1.2.2 (732a01da63, 2022-12-09)"
   inkscape:export-filename="logo-horz.png"
   inkscape:export-xdpi="96"
   inkscape:export-ydpi="96"
   xmlns:inkscape="http://www.inkscape.org/namespaces/inkscape"
   xmlns:sodipodi="http://sodipodi.sourceforge.net/DTD/sodipodi-0.dtd"
   xmlns:xlink="http://www.w3.org/1999/xlink"
   xmlns="http://www.w3.org/2000/svg"
   xmlns:svg="http://www.w3.org/2000/svg"><sodipodi:namedview
     id="namedview29339"
     pagecolor="#ffffff"
     bordercolor="#000000"
     borderopacity="0.25"
     inkscape:showpageshadow="2"
     inkscape:pageopacity="0.0"
     inkscape:pagecheckerboard="0"
     inkscape:deskcolor="#d1d1d1"
     showgrid="false"
     inkscape:zoom="4.0000002"
     inkscape:cx="94.874995"
     inkscape:cy="50.999997"
     inkscape:window-width="2560"
     inkscape:window-height="1017"
     inkscape:window-x="-8"
     inkscape:window-y="-8"
     inkscape:window-maximized="1"
     inkscape:current-layer="svg29337"
     showguides="false"><sodipodi:guide
       position="26.564588,7.8096164"
       orientation="1,0"
       id="guide7765"
       inkscape:locked="false" /></sodipodi:namedview><defs
     id="defs29329"><linearGradient
       id="a"><stop
         style="stop-color:#f60;stop-opacity:1"
         offset="0"
         id="stop29323" /><stop
         style="stop-color:#f0f;stop-opacity:1"
         offset="1"
         id="stop29325" /></linearGradient><linearGradient
       xlink:href="#a"
       id="b"
       x1="9.911"
       y1="27.725"
       x2="19.257"
       y2="36.005"
       gradientUnits="userSpaceOnUse"
       gradientTransform="matrix(1.21423,0,0,1.21423,-9.704,-31.584768)" /><inkscape:path-effect
       effect="fill_between_many"
       method="originald"
       linkedpaths="#path3018,0,1"
       id="path-effect27838" /><linearGradient
       inkscape:collect="always"
       xlink:href="#a"
       id="linearGradient6994"
       x1="-15.234996"
       y1="8.1326065"
       x2="0.87738293"
       y2="8.1326065"
       gradientUnits="userSpaceOnUse"
       gradientTransform="matrix(0.94482883,0,0,0.94482883,15.215815,0.7351634)" /></defs><g
     aria-label="MEME"
     id="text7515"
     style="font-weight:bold;font-size:7.45493px;font-family:arial;-inkscape-font-specification:'arial Bold';text-align:center;direction:rtl;text-anchor:middle;fill:#ff24a4;stroke:#e20000;stroke-width:0.270641;stroke-linecap:round;stroke-linejoin:round;stroke-dasharray:none;paint-order:stroke markers fill;stop-color:#000000"
     transform="matrix(1.0628227,0,0,1.0628227,-2.3145387,-0.67827074)"><path
       d="m 16.699811,8.8956798 q 0,0.4547507 -0.454751,0.4547507 -0.45475,0 -0.45475,-0.4547507 V 6.4355529 q 0,-0.4845704 0.141643,-0.9020465 0.149099,-0.424931 0.432386,-0.7305831 0.290743,-0.3131071 0.723129,-0.4920254 0.43984,-0.1789183 1.021325,-0.1789183 h 0.656034 q 0.723128,0 1.192789,0.2683775 0.477115,0.2683775 0.738038,0.7231282 0.260922,-0.4547507 0.730583,-0.7231282 0.46966,-0.2683775 1.192788,-0.2683775 h 0.656034 q 0.581485,0 1.013871,0.1789183 0.439841,0.1789183 0.723128,0.4920254 0.290742,0.3056521 0.432386,0.7305831 0.149098,0.4174761 0.149098,0.9020465 v 2.4601269 q 0,0.4547507 -0.45475,0.4547507 -0.447296,0 -0.447296,-0.4547507 V 6.4653726 q 0,-0.3205619 -0.09691,-0.5963943 Q 24.497668,5.5856909 24.30384,5.3844078 24.110011,5.1756698 23.819269,5.0638458 23.535982,4.944567 23.148325,4.944567 H 22.68612 q -0.387657,0 -0.678399,0.1192788 -0.283287,0.111824 -0.477115,0.320562 -0.186374,0.2012831 -0.283288,0.4845705 -0.09691,0.2758324 -0.09691,0.5963943 v 2.4303072 q 0,0.4547507 -0.45475,0.4547507 -0.454751,0 -0.454751,-0.4547507 V 6.4653726 q 0,-0.3205619 -0.09691,-0.5963943 Q 20.047075,5.5856909 19.853246,5.3844078 19.666873,5.1756698 19.376131,5.0638458 19.085389,4.944567 18.705187,4.944567 h -0.46966 q -0.380202,0 -0.670944,0.1192788 -0.290742,0.111824 -0.48457,0.320562 -0.186374,0.2012831 -0.283288,0.4771155 -0.09691,0.2758324 -0.09691,0.5963944 v 2.4377621 z"
       style="font-weight:normal;font-family:SpaceColonyW03-Medium;-inkscape-font-specification:'SpaceColonyW03-Medium, Normal';stroke-width:0.270641;stroke-dasharray:none"
       id="path39716" /><path
       d="m 29.291192,4.944567 q -0.395112,0 -0.708219,0.104369 -0.305652,0.104369 -0.5293,0.2907422 -0.223648,0.1863733 -0.365291,0.4472958 -0.134189,0.2534676 -0.186374,0.5516648 h 4.748791 q 0.410021,0 0.410021,0.4025662 0,0.1938282 -0.111824,0.2981972 -0.104369,0.1043691 -0.298197,0.1043691 h -4.748791 q 0.05219,0.3056521 0.186374,0.5591197 0.141643,0.2534676 0.365291,0.4398409 0.223648,0.1863732 0.5293,0.2907422 0.313107,0.104369 0.708219,0.104369 h 3.548546 q 0.410021,0 0.410021,0.4100212 0,0.1938282 -0.104369,0.2981972 -0.104369,0.104369 -0.305652,0.104369 h -3.645461 q -0.663488,0 -1.162969,-0.2012831 Q 27.539283,8.9404093 27.211266,8.5900276 26.883249,8.2396459 26.719241,7.7625304 26.555232,7.2854149 26.555232,6.741205 q 0,-0.5442098 0.164009,-1.0213253 0.164008,-0.4771155 0.492025,-0.8274972 0.328017,-0.3578367 0.820042,-0.5591198 0.499481,-0.2012831 1.162969,-0.2012831 h 3.645461 q 0.410021,0 0.410021,0.4025662 0,0.4100212 -0.410021,0.4100212 z"
       style="font-weight:normal;font-family:SpaceColonyW03-Medium;-inkscape-font-specification:'SpaceColonyW03-Medium, Normal';stroke-width:0.270641;stroke-dasharray:none"
       id="path39718" /><path
       d="m 35.046397,8.8956798 q 0,0.4547507 -0.45475,0.4547507 -0.454751,0 -0.454751,-0.4547507 V 6.4355529 q 0,-0.4845704 0.141644,-0.9020465 0.149098,-0.424931 0.432386,-0.7305831 0.290742,-0.3131071 0.723128,-0.4920254 0.439841,-0.1789183 1.021325,-0.1789183 h 0.656034 q 0.723128,0 1.192789,0.2683775 0.477115,0.2683775 0.738038,0.7231282 0.260922,-0.4547507 0.730583,-0.7231282 0.46966,-0.2683775 1.192789,-0.2683775 h 0.656034 q 0.581484,0 1.01387,0.1789183 0.439841,0.1789183 0.723128,0.4920254 0.290742,0.3056521 0.432386,0.7305831 0.149099,0.4174761 0.149099,0.9020465 v 2.4601269 q 0,0.4547507 -0.454751,0.4547507 -0.447296,0 -0.447296,-0.4547507 V 6.4653726 q 0,-0.3205619 -0.09691,-0.5963943 Q 42.844254,5.5856909 42.650426,5.3844078 42.456598,5.1756698 42.165855,5.0638458 41.882568,4.944567 41.494912,4.944567 h -0.462206 q -0.387656,0 -0.678399,0.1192788 -0.283287,0.111824 -0.477115,0.320562 -0.186373,0.2012831 -0.283287,0.4845705 -0.09691,0.2758324 -0.09691,0.5963943 v 2.4303072 q 0,0.4547507 -0.454751,0.4547507 -0.454751,0 -0.454751,-0.4547507 V 6.4653726 q 0,-0.3205619 -0.09691,-0.5963943 Q 38.393661,5.5856909 38.199833,5.3844078 38.013459,5.1756698 37.722717,5.0638458 37.431975,4.944567 37.051774,4.944567 h -0.469661 q -0.380201,0 -0.670944,0.1192788 -0.290742,0.111824 -0.48457,0.320562 -0.186373,0.2012831 -0.283288,0.4771155 -0.09691,0.2758324 -0.09691,0.5963944 v 2.4377621 z"
       style="font-weight:normal;font-family:SpaceColonyW03-Medium;-inkscape-font-specification:'SpaceColonyW03-Medium, Normal';stroke-width:0.270641;stroke-dasharray:none"
       id="path39720" /><path
       d="m 47.637778,4.944567 q -0.395112,0 -0.708219,0.104369 -0.305652,0.104369 -0.5293,0.2907422 -0.223648,0.1863733 -0.365291,0.4472958 -0.134189,0.2534676 -0.186373,0.5516648 h 4.74879 q 0.410021,0 0.410021,0.4025662 0,0.1938282 -0.111824,0.2981972 -0.104369,0.1043691 -0.298197,0.1043691 h -4.74879 q 0.05218,0.3056521 0.186373,0.5591197 0.141643,0.2534676 0.365291,0.4398409 0.223648,0.1863732 0.5293,0.2907422 0.313107,0.104369 0.708219,0.104369 h 3.548546 q 0.410021,0 0.410021,0.4100212 0,0.1938282 -0.104369,0.2981972 -0.104369,0.104369 -0.305652,0.104369 h -3.64546 q -0.663489,0 -1.162969,-0.2012831 Q 45.885869,8.9404093 45.557852,8.5900276 45.229835,8.2396459 45.065827,7.7625304 44.901818,7.2854149 44.901818,6.741205 q 0,-0.5442098 0.164009,-1.0213253 0.164008,-0.4771155 0.492025,-0.8274972 0.328017,-0.3578367 0.820043,-0.5591198 0.49948,-0.2012831 1.162969,-0.2012831 h 3.64546 q 0.410021,0 0.410021,0.4025662 0,0.4100212 -0.410021,0.4100212 z"
       style="font-weight:normal;font-family:SpaceColonyW03-Medium;-inkscape-font-specification:'SpaceColonyW03-Medium, Normal';stroke-width:0.270641;stroke-dasharray:none"
       id="path39722" /></g><g
     aria-label="MENTOR"
     id="text7515-0"
     style="font-weight:bold;font-size:3.85217px;font-family:arial;-inkscape-font-specification:'arial Bold';text-align:center;direction:rtl;text-anchor:middle;fill:#ff24a4;stroke:#e20000;stroke-width:0.135321;stroke-linecap:round;stroke-linejoin:round;stroke-dasharray:none;paint-order:markers stroke fill;stop-color:#000000"
     transform="matrix(1.1039266,0,0,1.1039266,-4.4409129,-0.84254909)"><path
       d="m 39.142291,11.452761 q 0,-0.196461 -0.05778,-0.365956 -0.05778,-0.169496 -0.1772,-0.292765 -0.119417,-0.127122 -0.296617,-0.196461 -0.1772,-0.07319 -0.412182,-0.07319 h -0.778139 q -0.238834,0 -0.416034,0.07319 -0.173348,0.06934 -0.292765,0.196461 -0.119417,0.123269 -0.1772,0.292765 -0.05778,0.169495 -0.05778,0.365956 v 1.113277 q 0,0.234983 -0.234983,0.234983 -0.234982,0 -0.234982,-0.234983 v -1.113277 q 0,-0.281208 0.08475,-0.527747 0.08475,-0.246539 0.254243,-0.427591 0.173348,-0.184904 0.427591,-0.288913 0.254243,-0.104008 0.597086,-0.104008 h 0.878295 q 0.338991,0 0.593234,0.104008 0.258095,0.104009 0.427591,0.288913 0.173348,0.181052 0.258095,0.427591 0.08475,0.246539 0.08475,0.527747 v 1.113277 q 0,0.234983 -0.234982,0.234983 -0.234983,0 -0.234983,-0.234983 z"
       style="font-weight:normal;font-family:SpaceColonyW03-Medium;-inkscape-font-specification:'SpaceColonyW03-Medium, Normal';stroke-width:0.135321;stroke-dasharray:none"
       id="path39729" /><path
       d="m 41.923559,10.524388 v 2.04165 q 0,0.234983 -0.234983,0.234983 -0.23113,0 -0.23113,-0.234983 v -2.04165 h -1.355964 q -0.211869,0 -0.211869,-0.211869 0,-0.208017 0.211869,-0.208017 h 3.178041 q 0.211869,0 0.211869,0.208017 0,0.211869 -0.211869,0.211869 z"
       style="font-weight:normal;font-family:SpaceColonyW03-Medium;-inkscape-font-specification:'SpaceColonyW03-Medium, Normal';stroke-width:0.135321;stroke-dasharray:none"
       id="path39731" /><path
       d="m 46.118571,10.104502 q 0.342843,0 0.597087,0.104008 0.258095,0.104009 0.42759,0.288913 0.169496,0.181052 0.254244,0.427591 0.08475,0.246539 0.08475,0.527747 0,0.281209 -0.08475,0.527747 -0.08475,0.246539 -0.254244,0.427591 -0.169495,0.181052 -0.42759,0.288913 -0.254244,0.104009 -0.597087,0.104009 h -1.016973 q -0.342843,0 -0.600938,-0.104009 -0.254243,-0.107861 -0.423739,-0.288913 -0.169495,-0.181052 -0.254243,-0.427591 -0.08475,-0.246538 -0.08475,-0.527747 0,-0.281208 0.08475,-0.527747 0.08475,-0.246539 0.254243,-0.427591 0.169496,-0.184904 0.423739,-0.288913 0.258095,-0.104008 0.600938,-0.104008 z m 0.893704,1.348259 q 0,-0.196461 -0.05778,-0.365956 -0.05778,-0.169496 -0.1772,-0.292765 -0.115565,-0.127122 -0.292765,-0.196461 -0.177199,-0.07319 -0.412182,-0.07319 H 45.15168 q -0.238835,0 -0.416035,0.07319 -0.173347,0.06934 -0.292765,0.196461 -0.119417,0.123269 -0.1772,0.292765 -0.05778,0.169495 -0.05778,0.365956 0,0.196461 0.05778,0.365956 0.05778,0.169496 0.1772,0.296617 0.119418,0.12327 0.292765,0.196461 0.1772,0.06934 0.416035,0.06934 h 0.920668 q 0.234983,0 0.412182,-0.06934 0.1772,-0.07319 0.292765,-0.196461 0.119418,-0.127121 0.1772,-0.296617 0.05778,-0.169495 0.05778,-0.365956 z"
       style="font-weight:normal;font-family:SpaceColonyW03-Medium;-inkscape-font-specification:'SpaceColonyW03-Medium, Normal';stroke-width:0.135321;stroke-dasharray:none"
       id="path39733" /><path
       d="m 51.126395,12.361873 q 0,-0.234982 -0.134826,-0.385217 -0.130974,-0.150234 -0.416035,-0.150234 h -2.087876 v 0.739616 q 0,0.234983 -0.234982,0.234983 -0.234982,0 -0.234982,-0.234983 v -2.226554 q 0,-0.234982 0.234982,-0.234982 h 2.546284 q 0.200313,0 0.346696,0.06163 0.150234,0.06164 0.250391,0.169496 0.100156,0.104008 0.150234,0.246539 0.05008,0.14253 0.05008,0.308173 0,0.246539 -0.10786,0.439148 -0.107861,0.192608 -0.327435,0.28506 0.215722,0.08475 0.323582,0.269652 0.111713,0.184904 0.111713,0.416035 v 0.265799 q 0,0.234983 -0.234982,0.234983 -0.234982,0 -0.234982,-0.234983 z m -2.638737,-1.837485 v 0.882147 h 2.188033 q 0.227278,0 0.335139,-0.127122 0.111713,-0.127121 0.111713,-0.312025 0,-0.188757 -0.111713,-0.315878 -0.107861,-0.127122 -0.335139,-0.127122 z"
       style="font-weight:normal;font-family:SpaceColonyW03-Medium;-inkscape-font-specification:'SpaceColonyW03-Medium, Normal';stroke-width:0.135321;stroke-dasharray:none"
       id="path39735" /></g><g
     id="g579"
     transform="translate(-0.06614734,0.09922337)"
     inkscape:export-filename="..\..\public\images\logo.png"
     inkscape:export-xdpi="418.19171"
     inkscape:export-ydpi="418.19171"><path
       id="path23406"
       style="fill:#ffd5d5;fill-opacity:0.90404;stroke:#e20000;stroke-width:0.252678;stroke-dasharray:none;stroke-opacity:1"
       d="M 8.6194146,1.0839535 C 8.1271853,1.1236034 7.7581626,1.4965832 7.514777,1.8970048 7.4150739,2.105675 7.2099358,2.2898549 7.2451208,2.5345326 7.1872395,2.6963667 7.3094672,2.8819082 7.2551069,3.0202099 6.9247126,3.3848357 6.79226,3.8938348 6.3889343,4.1959539 6.1305126,4.4160302 5.8087282,4.5924189 5.7011042,4.9378206 5.2142784,6.1529894 4.6624109,7.3780668 4.5445169,8.6971881 c -0.047581,0.5008532 0.13731,0.9840975 0.4196763,1.3895949 -0.3146003,0.01238 -0.6291321,0.02708 -0.9425615,0.05782 -0.4630159,0.585327 -0.8765006,1.216495 -1.3695411,1.773609 -0.4240472,0.328727 -0.9545842,0.501744 -1.3656655,0.840167 -0.2148726,0.377968 -0.30897821,0.816802 -0.46117061,1.216157 0.041233,0.144734 0.1469657,0.261669 0.18590091,0.407863 0.9618591,-0.0093 1.9273807,0.01222 2.89048,0.03171 -0.1339943,0.302855 -0.2673636,0.605985 -0.4010235,0.908988 0.2893641,0.172967 0.6390436,0.204399 0.9556179,0.31087 0.6610018,0.111988 1.3328595,-0.0021 1.9988974,0.02824 2.0408224,-0.0161 4.0832028,3.5e-4 6.1230998,-0.01683 0.388884,-0.07554 0.778943,-0.145597 1.16559,-0.232133 -0.0373,-0.35889 -0.112129,-0.712498 -0.156057,-1.070641 0.819044,-0.0014 1.638179,0.0051 2.457126,-0.01056 -0.228365,-0.491305 -0.411841,-1.010342 -0.672032,-1.48258 -0.623312,-0.71354 -1.378901,-1.33357 -1.837943,-2.175756 C 13.36977,10.417256 13.388185,10.117664 13.394223,9.8257746 13.406669,8.9726873 13.39244,8.1043074 13.123202,7.285917 12.930249,6.5909385 12.754579,5.8740691 12.403427,5.2405551 12.09269,4.801586 11.63269,4.4815152 11.345756,4.0285252 11.248639,3.7785768 10.934131,3.6854621 10.846599,3.4211613 10.67194,3.260288 10.480083,3.0445164 10.568322,2.7880655 10.554093,2.4166777 10.324709,2.0984956 10.185158,1.7649508 9.9438166,1.3490337 9.4859796,0.98942769 8.9800256,1.0696534 c -0.110942,-0.053444 -0.243726,0.016069 -0.360611,0.0143 z" /><path
       id="path3018"
       style="fill:url(#linearGradient6994);fill-opacity:1;stroke-width:0.037581"
       d="m 8.9423576,1.0630076 c 0.01157,-0.041917 -0.29492,0.012991 -0.367151,0.032443 -0.03175,0.00855 -0.05896,0.015041 -0.08383,0.017763 -0.07623,0.022484 -0.193721,0.033259 -0.2702574,0.071377 C 8.1297612,1.2300927 8.0469315,1.2926733 7.9696526,1.3593572 7.8700165,1.4453381 7.7737322,1.5369776 7.692639,1.6406278 7.5838634,1.7796641 7.4890329,1.9298707 7.4027802,2.0838947 L 7.241226,2.3724331 c 0.00195,0.019268 0.02977,0.1354974 0.00719,0.1949145 -0.028828,0.075808 -0.0278,0.1487032 0.0036,0.2608659 C 7.295395,2.9831791 7.294734,2.9849611 7.1048448,3.2206129 6.999923,3.3508089 6.8948425,3.5177704 6.8713493,3.5916532 6.847866,3.665537 6.7736593,3.7851658 6.7064195,3.8575096 6.6391722,3.9298581 6.5692913,4.0168271 6.5511031,4.0507734 6.5329136,4.0847226 6.3827077,4.2128095 6.2173495,4.3354211 6.0519931,4.4580331 5.8966524,4.5828932 5.8721466,4.6128762 5.750489,4.7617175 5.2206342,6.0691846 4.9522166,6.8827924 4.4648276,8.3601273 4.4157089,9.169393 4.7771556,9.7697874 c 0.089343,0.1483991 0.1680985,0.2825016 0.1749871,0.2980066 0.0069,0.01551 -0.07091,0.02817 -0.172859,0.02817 -0.101952,0 -0.3142056,0.01091 -0.471673,0.02422 l -0.2862627,0.02422 -0.4052447,0.527017 c -0.2524698,0.386492 -0.6017059,0.782931 -0.8496849,1.13566 -0.068044,0.100137 -0.2369617,0.215347 -0.6688271,0.456038 -0.3178072,0.177123 -0.6374741,0.356299 -0.7103727,0.398199 -0.1237038,0.07109 -0.1470446,0.117348 -0.3492409,0.693342 l -0.21660461,0.617153 0.095639,0.202144 0.095639,0.202146 1.4248534,0.01145 c 0.7836775,0.0063 1.434985,0.02162 1.447314,0.03399 0.012329,0.01236 -0.01811,0.09691 -0.067607,0.187904 -0.049486,0.09099 -0.1204063,0.24993 -0.1576648,0.353277 -0.037263,0.103349 -0.090062,0.221272 -0.1172939,0.262042 -0.027246,0.04077 -0.049544,0.08593 -0.049544,0.100339 0,0.03341 0.2875484,0.129282 0.7892051,0.263142 v -7.5e-5 c 0.390695,0.104252 0.4027786,0.105136 1.2213863,0.08442 0.4547304,-0.01152 2.2219882,-0.0203 3.9272284,-0.0196 l 3.1004444,0.0015 0.601299,-0.115092 c 0.330714,-0.0633 0.60629,-0.119638 0.612382,-0.125149 0.006,-0.0056 -0.02351,-0.212683 -0.06577,-0.460369 -0.04226,-0.247688 -0.07686,-0.486476 -0.07686,-0.530686 v -0.08044 h 1.221387 c 0.671758,0 1.221387,-0.0044 1.221387,-0.01006 0,-0.0056 -0.135109,-0.314196 -0.300283,-0.685856 -0.165169,-0.371661 -0.300819,-0.69271 -0.301529,-0.71338 -7.32e-4,-0.02067 -0.27102,-0.316623 -0.600785,-0.657671 -0.332793,-0.300458 -0.642755,-0.689186 -0.90679,-1.005329 -0.139886,-0.144488 -0.264029,-0.328167 -0.374638,-0.554322 l -0.165437,-0.338224 -0.0017,-0.9395284 C 13.391646,8.4089203 13.373164,8.2586412 13.129639,7.2962348 12.968038,6.6575744 12.667797,5.7433622 12.513588,5.4202482 12.425082,5.2348108 12.285116,5.0653971 11.873753,4.6459442 11.584133,4.3506247 11.347104,4.0876299 11.347104,4.0615276 c 0,-0.1020818 -0.05246,-0.1708607 -0.229377,-0.3007219 -0.10121,-0.074292 -0.184016,-0.1638755 -0.184016,-0.1990636 0,-0.035184 -0.08455,-0.1473283 -0.187905,-0.2491216 C 10.580066,3.1493736 10.5579,3.1091184 10.5579,2.9711615 c 0,-0.086029 0.03133,-0.2541053 3.18e-4,-0.3419807 -0.02757,-0.078178 -0.05064,-0.1552746 -0.0554,-0.1840887 l -0.05337,-0.1183957 c -0.03047,-0.067578 -0.06969,-0.1310271 -0.09946,-0.1989158 -0.02757,-0.062885 -0.04341,-0.1306368 -0.07238,-0.1928978 -0.03148,-0.067675 -0.07054,-0.1316313 -0.108486,-0.1959047 -0.02437,-0.041275 -0.04871,-0.082842 -0.07831,-0.1205247 -0.04792,-0.061009 -0.09593,-0.1229653 -0.1536944,-0.1747665 -0.06956,-0.062379 -0.196745,-0.1860221 -0.277615,-0.2328157 -0.07981,-0.046182 -0.163807,-0.088721 -0.253158,-0.1114951 -0.118406,-0.037107 -0.24276,-0.041333 -0.367077,-0.034493 -0.03119,-0.00137 -0.103821,0.023057 -0.09696,-0.00175 z m -0.04046,0.2027995 c 0.112919,-0.00108 0.196662,0.017266 0.228571,0.055704 0.02604,0.031375 0.04929,0.1201663 0.0516,0.197301 0.0035,0.1172834 -0.0092,0.142141 -0.0781,0.1519399 -0.04529,0.00641 -0.12254,-0.014605 -0.171611,-0.046755 -0.11572,-0.075817 -0.441358,-0.1230382 -0.441358,-0.064002 0,0.023474 0.04651,0.043831 0.103347,0.045288 0.262242,0.0067 0.246757,0.052673 -0.07281,0.2157979 -0.171806,0.087701 -0.4296239,0.2309153 -0.5729713,0.3181922 l -0.2606456,0.158619 0.00836,0.2442779 c 0.016636,0.489075 -0.2543328,1.136803 -0.5960161,1.4247795 -0.2173517,0.18319 -0.3357767,0.398999 -0.3370545,0.6139964 -4.138e-4,0.077518 -0.015022,0.1409291 -0.032365,0.1409291 -0.060241,0 -0.1188349,-0.1925253 -0.1188349,-0.3907106 0,-0.1592864 0.021395,-0.2287191 0.1065047,-0.3458642 C 6.7770749,3.9046832 6.8530309,3.815656 6.8873331,3.7874113 6.9216321,3.7591653 6.9663961,3.6746083 6.9867911,3.599506 7.0071871,3.524398 7.1147256,3.3590631 7.2257105,3.2321353 L 7.4274792,3.0013641 7.3897505,2.8174222 C 7.3529835,2.6378993 7.356977,2.6239126 7.5538736,2.2401986 7.8339829,1.6943361 8.0746271,1.4504457 8.4387926,1.3431694 c 0.159786,-0.047076 0.315697,-0.073038 0.440183,-0.076925 0.0077,-2.419e-4 0.01545,-3.82e-4 0.02298,-4.456e-4 z m 0.410306,0.15495 c 0.0025,6.3e-5 0.0054,2.41e-4 0.0083,5.73e-4 0.0864,0.00952 0.377285,0.1239041 0.487306,0.1967133 0.182711,0.1209092 0.2961074,0.3153264 0.4705744,0.8069664 0.115824,0.3262607 0.134711,0.4213253 0.115899,0.5801589 -0.02238,0.188876 -0.02136,0.1910894 0.173887,0.3924733 0.245706,0.2534319 0.271059,0.2762917 0.478205,0.4309356 0.09301,0.069434 0.174058,0.159754 0.180052,0.2006785 0.0064,0.043578 -0.03491,0.1182966 -0.09968,0.1803449 C 11.020096,4.311777 11.015231,4.3128507 10.991616,4.238449 10.978176,4.196017 10.902796,4.1102567 10.824059,4.0479006 10.737629,3.9794586 10.624684,3.8261863 10.539119,3.6611536 10.461209,3.5108 10.356521,3.3326879 10.306483,3.2653763 10.243831,3.181096 10.19278,3.0231222 10.142505,2.7580306 10.039995,2.2174866 10.04707,2.2398939 9.9164316,2.0426675 9.7949276,1.8592328 9.5397836,1.6777931 9.4032876,1.6777931 c -0.058,0 -0.08163,-0.03014 -0.09564,-0.1221386 -0.01018,-0.06718 -0.01488,-0.1263301 -0.01042,-0.1315345 0.0022,-0.00252 0.0073,-0.00359 0.01491,-0.0034 z m -0.03736,0.3090158 c 0.04972,3.98e-5 0.09095,0.00806 0.137699,0.023483 0.346011,0.1141943 0.566172,0.4828311 0.6255224,1.0472814 0.04364,0.4149327 0.04358,0.706424 -0.02526,0.9434195 -0.09159,0.2459938 -0.2609494,0.1225787 -0.3645054,0.080666 -0.428435,-0.1752059 -0.436054,-0.1768091 -0.54067,-0.1133306 -0.08648,0.052478 -0.116421,0.053372 -0.250884,0.00709 -0.175623,-0.060505 -0.27118,-0.033872 -0.517254,0.1443795 -0.081667,0.059154 -0.1631842,0.1075319 -0.1811537,0.1075319 -0.017977,0 -0.089168,-0.1056974 -0.1582527,-0.2348824 C 7.8779548,3.507018 7.874145,3.486356 7.8615041,2.9848197 7.8530491,2.6517508 7.8632549,2.4411725 7.8905073,2.3904195 7.9136436,2.347191 8.0089,2.2791013 8.1021204,2.2391414 8.1953497,2.1991872 8.3421296,2.1095659 8.4283136,2.0399321 8.6398526,1.869018 8.6991306,1.8416195 9.0112616,1.7706244 c 0.10819,-0.024601 0.181784,-0.037787 0.241709,-0.040372 0.0075,-3.183e-4 0.01477,-4.456e-4 0.02187,-4.456e-4 z M 7.717428,3.2164679 7.764329,3.4466523 C 7.804604,3.6441175 7.85989,3.7563871 8.0834015,4.094927 8.0976275,4.116478 8.2230481,4.058568 8.3813356,3.9573006 c 0.293905,-0.1880422 0.341552,-0.1999293 0.484586,-0.1207433 0.0812,0.044949 0.110128,0.042762 0.227762,-0.017256 0.146889,-0.074933 0.127013,-0.079724 0.682259,0.164344 0.125884,0.055335 0.144087,0.055568 0.197522,0.00213 0.08951,-0.089508 0.1419614,-0.2006008 0.2089734,-0.4426062 l 0.061,-0.2204168 0.144968,0.2767941 c 0.07973,0.152243 0.207998,0.3613515 0.285014,0.4646993 0.18156,0.243633 0.260547,0.4867673 0.259837,0.7999214 -8.59e-4,0.3484151 -0.04448,0.4028502 -0.188492,0.2350201 -0.127581,-0.1486827 -0.136577,-0.1256956 -0.05021,0.1277896 0.132978,0.3902783 -0.0036,1.0619418 -0.32766,1.611073 -0.179961,0.3049834 -0.6614804,0.8073894 -0.9734414,1.0157177 -0.113408,0.07573 -0.23272,0.1376993 -0.265123,0.1376993 -0.111452,0 -0.9189073,-0.4907423 -1.0991036,-0.6680186 C 7.4281538,6.7321032 6.9400084,5.6139529 7.0996109,5.1941678 7.1327728,5.1069531 7.1274872,5.0977224 7.0441979,5.0977224 6.8926585,5.0977224 6.8319636,4.9324498 6.8781654,4.645574 6.9264949,4.345512 6.9496102,4.3032967 7.2277007,4.0078695 7.372078,3.8544896 7.5059475,3.6617942 7.5875099,3.4900271 Z m 3.562502,1.1573823 c 0.04508,-3.501e-4 0.136609,0.094298 0.428293,0.3964365 0.233737,0.2421179 0.466732,0.512059 0.517768,0.5999044 0.231149,0.3978657 0.574832,1.4350024 0.735034,2.2182426 0.234278,1.1453591 0.316259,2.6164033 0.161775,2.9032113 -0.0624,0.115838 -0.204043,0.23428 -0.356212,0.297861 -0.201308,0.08411 -0.364869,0.06901 -0.518428,-0.04777 -0.42852,-0.325947 -0.789951,-0.618905 -0.778123,-0.630731 0.0076,-0.0075 0.07059,0.0026 0.140197,0.02261 0.272954,0.07828 0.123788,-0.03493 -0.374491,-0.2842077 -0.312541,-0.156359 -0.684012,-0.211214 -0.906058,-0.13381 -0.06717,0.023417 -0.129119,0.035591 -0.137699,0.02701 -0.03463,-0.034629 0.480713,-0.3470991 0.9156,-0.5551281 l 0.462643,-0.2213035 0.07649,0.076487 c 0.0749,0.074894 0.518074,0.3017508 0.589483,0.3017508 0.04087,0 0.01451,-0.3006908 -0.09726,-1.1086437 C 12.098904,7.9463844 12.036334,7.4753313 11.999846,7.188918 11.934561,6.6764537 11.930607,6.6635908 11.751386,6.3809231 11.651215,6.2229407 11.507251,5.966796 11.431505,5.811774 11.355755,5.6567523 11.288463,5.52008 11.281914,5.5080423 c -0.0065,-0.01204 0.07263,-0.00457 0.176016,0.016655 0.103387,0.021172 0.198803,0.027635 0.212053,0.014389 0.03243,-0.032434 -0.155627,-0.1936312 -0.344982,-0.2956576 l -0.153702,-0.082794 0.0056,-0.3226693 c 0.0032,-0.1885289 0.02653,-0.3612075 0.05601,-0.4153021 0.01574,-0.028888 0.02663,-0.04865 0.04712,-0.048806 z m -4.8371043,0.047484 0.042353,0.1033478 c 0.1022756,0.2496672 0.100791,0.2586556 -0.04,0.2422185 -0.2207229,-0.025769 -0.2276475,0.010387 -0.026721,0.1393152 0.2242809,0.1439208 0.2435231,0.2259897 0.080229,0.3422675 -0.2188823,0.1558624 -0.2251075,0.1937786 -0.2229913,1.360041 0.00109,0.5849412 0.014459,1.1763465 0.029799,1.3142384 L 6.3333799,8.1735 6.2313535,8.1008309 C 6.1752411,8.060877 6.0868291,7.9776227 6.0348598,7.9158611 5.8339025,7.677038 5.8759912,7.8268001 6.1103857,8.184508 6.3573232,8.5613533 6.6794492,8.8351564 7.2537492,9.1564802 L 7.7574989,9.4383384 7.6075403,9.4614534 C 7.5250573,9.4741414 7.3560407,9.5124154 7.2320221,9.5465204 7.1080053,9.5806244 6.862784,9.6250384 6.6870961,9.6452454 6.3719427,9.6814974 6.0616401,9.6855974 5.8415202,9.6563994 5.4592804,9.6056989 4.8308455,9.3228721 4.7612835,9.1701917 4.703704,9.0438167 4.7863236,8.3950435 4.9387661,7.7765339 5.0918415,7.1554562 5.3035133,6.5127556 5.6001058,5.7682908 5.9489509,4.8926815 6.0200122,4.7617738 6.2444901,4.5810353 Z m 0.8870466,3.2761652 c 0.00748,-0.00128 0.024856,0.00797 0.044997,0.024661 0.135788,0.1126933 1.4248723,0.5315719 1.6377153,0.5321548 0.0682,1.846e-4 -0.0057,0.071396 -0.312539,0.3008696 -0.221025,0.1653564 -0.41701,0.3006488 -0.4354868,0.3006488 -0.032968,0 -0.9385749,-1.1129752 -0.9385749,-1.1534916 0,-0.00283 0.00147,-0.00447 0.00388,-0.00486 z m 1.0136633,1.8952797 c 0.344557,-8.595e-4 0.719658,0.054567 0.91215,0.1534059 0.103757,0.053265 0.282532,0.379036 0.336323,0.612897 0.0244,0.106072 -0.08241,0.208118 -0.27606,0.263655 -0.107319,0.03078 -0.110909,0.02766 -0.110909,-0.0963 0,-0.128934 -0.177882,-0.5431652 -0.233267,-0.5431652 -0.04637,0 -0.03603,0.051466 0.04903,0.2437652 0.09135,0.206513 0.07696,0.41722 -0.04176,0.612454 -0.123631,0.203294 -0.187392,0.16008 -0.187392,-0.127057 0,-0.249837 -0.04767,-0.398003 -0.186143,-0.578251 -0.11353,-0.1477758 -0.124847,-0.06783 -0.02174,0.153697 0.09387,0.201644 0.114695,0.351276 0.07141,0.512776 -0.03687,0.137583 -0.115914,0.09712 -0.183575,-0.09396 -0.119762,-0.338182 -0.178335,-0.456469 -0.2672531,-0.540005 -0.1123464,-0.105556 -0.112051,-0.07597 0.00109,0.147316 0.049583,0.09785 0.1022701,0.274863 0.1170741,0.393354 l 0.02685,0.215431 H 8.2380072 c -0.093628,0 -0.1221689,-0.02395 -0.1793191,-0.150692 C 8.0212994,10.68919 7.884082,10.498933 7.7537827,10.349314 7.5087711,10.067976 7.42718,9.8869046 7.5193413,9.8292686 c 0.028042,-0.017537 0.1410956,-0.05074 0.2512506,-0.073767 0.1101524,-0.023028 0.1927481,-0.049398 0.1835019,-0.058648 -0.00923,-0.00923 -0.09048,-2.547e-4 -0.1804927,0.019969 -0.2396296,0.053848 -0.2235789,0.020969 0.028771,-0.058862 0.138668,-0.04387 0.3344496,-0.064653 0.5411845,-0.065178 z m -2.0134526,0.4599279 0.2646817,0.01821 c 0.3680778,0.0253 0.8483323,0.214204 1.0487494,0.412511 0.083737,0.08286 0.1134558,0.119311 0.066061,0.08104 -0.08428,-0.06806 -0.085572,-0.068 -0.059231,0.0035 0.014819,0.04019 0.1071715,0.218594 0.2052287,0.396438 0.2637333,0.478318 0.5671898,1.09152 0.5491118,1.109598 -0.0087,0.0087 -0.07928,-0.06167 -0.1568583,-0.156343 -0.077576,-0.09467 -0.1477685,-0.165293 -0.1560508,-0.157005 -0.015188,0.01519 0.4012841,0.705197 0.9914241,1.64256 0.343556,0.545703 1.2285014,1.82419 1.2881814,1.861073 0.01997,0.01234 0.03626,0.03873 0.03626,0.05865 0,0.01992 -0.156431,-0.08649 -0.347624,-0.236498 C 9.6930976,14.798518 9.2196046,14.338217 8.3670286,13.440761 8.0823068,13.141053 7.8695187,12.937728 7.8941809,12.988906 c 0.077887,0.161633 0.5016277,0.833784 0.7443567,1.180724 0.260324,0.372086 0.291495,0.385291 -0.299916,-0.127571 -0.1310931,-0.113683 -0.2233002,-0.181328 -0.2048605,-0.150323 0.2353745,0.395766 0.4995085,0.741725 0.9155995,1.199291 l 0.276428,0.303953 -0.126103,-0.0043 C 9.1303256,15.38838 8.6855716,15.34731 8.2114178,15.29954 7.4043397,15.218249 7.3451391,15.207104 7.2832029,15.125329 7.1438234,14.941316 6.6477535,13.885929 6.4992095,13.457299 6.342191,13.004212 6.0885494,12.019053 6.0088929,11.553064 L 5.9656549,11.300053 6.211547,11.027957 c 0.1352517,-0.14967 0.2426312,-0.275167 0.2386259,-0.27885 -0.00398,-0.0037 -0.168003,0.02376 -0.3643617,0.061 -0.1963592,0.03723 -0.3605273,0.06443 -0.3648744,0.06041 -0.016041,-0.01483 0.2017433,-0.321033 0.4024558,-0.565772 z m 4.197711,0.0088 c 0.34132,-0.0034 0.483324,0.04335 0.653486,0.19275 0.151736,0.133227 0.155678,0.176044 0.03934,0.425871 -0.108634,0.233287 -0.970965,1.118938 -1.069449,1.098367 -0.133952,-0.02797 -0.0372,-0.252357 0.316355,-0.733566 0.09492,-0.129184 0.154953,-0.234882 0.133371,-0.234882 -0.06678,0 -0.494488,0.533163 -0.6104744,0.761017 -0.103227,0.202786 -0.195259,0.267533 -0.271729,0.191064 -0.08755,-0.08756 0.07559,-0.473441 0.3448354,-0.815629 0.267149,-0.33953 0.269539,-0.370005 0.0094,-0.117661 -0.2550414,0.247381 -0.4212854,0.486549 -0.4911984,0.706408 -0.03873,0.121777 -0.05377,0.13565 -0.102687,0.09506 -0.04325,-0.03588 -0.05242,-0.09514 -0.03728,-0.241706 0.02503,-0.242518 0.100353,-0.389931 0.31797,-0.622586 0.2648884,-0.283183 0.157668,-0.258653 -0.139239,0.03186 -0.249493,0.24411 -0.265124,0.253388 -0.265124,0.157517 0,-0.05954 0.05378,-0.169471 0.129405,-0.264535 0.07115,-0.08946 0.168329,-0.236808 0.215945,-0.327513 0.128846,-0.245445 0.202456,-0.278244 0.6678724,-0.29742 0.05756,-0.0023 0.110446,-0.004 0.159207,-0.0044 z m -5.5130525,0.177628 -0.184382,0.161848 c -0.1886108,0.165583 -0.96849,1.016264 -0.9492902,1.035463 0.00583,0.0059 0.1587453,-0.04141 0.3397721,-0.104963 0.181024,-0.06355 0.3392913,-0.105437 0.3516611,-0.09307 0.021443,0.02145 -0.118932,1.262714 -0.1723443,1.523871 l -0.025543,0.124708 -1.051611,0.256388 C 2.744606,13.284361 2.270033,13.400483 2.268457,13.401406 2.266797,13.402406 2.0703337,13.272079 1.8316497,13.111915 L 1.3976362,12.820768 1.7781465,12.612383 c 0.2092578,-0.114587 0.4639133,-0.257584 0.5659193,-0.31775 0.1482552,-0.08746 0.1803759,-0.09601 0.1600131,-0.04293 -0.05208,0.135702 0.2041085,-0.0945 0.3821971,-0.343443 C 2.982148,11.774244 3.2634712,11.398897 3.5115025,11.074209 3.7595379,10.749521 3.9963003,10.439103 4.037638,10.38439 4.10955,10.28922 4.132325,10.283928 4.5637743,10.262031 Z M 13.33258,10.60572 c 0.0017,7.4e-5 0.0033,8.59e-4 0.0049,0.0025 0.01652,0.01802 0.170249,0.345599 0.341608,0.727987 0.302945,0.67602 0.407554,0.880995 0.435338,0.853209 0.0075,-0.0075 -0.03744,-0.164386 -0.09975,-0.3488 l -0.113329,-0.335294 0.125073,0.131534 c 0.06878,0.07235 0.38331,0.39617 0.698922,0.719547 l 0.573846,0.587938 -0.379848,0.332801 -0.379848,0.332723 0.419118,0.03759 0.419045,0.03759 0.149883,0.169116 c 0.0824,0.09301 0.182938,0.215622 0.223433,0.272463 0.08296,0.116438 0.08233,0.116609 -0.175795,0.04287 -0.103349,-0.02953 -0.626945,-0.167472 -1.163623,-0.306596 l -0.975808,-0.253134 -0.06657,-0.30065 c -0.03659,-0.165355 -0.136126,-0.590461 -0.221155,-0.944738 l -0.154583,-0.644165 0.07582,-0.299915 c 0.127658,-0.504815 0.224795,-0.806251 0.261675,-0.814453 5.72e-4,-1.36e-4 10e-4,-1.71e-4 0.0017,-1.43e-4 z m -1.912747,0.205048 c 0.16301,0.117019 0.250872,0.145301 0.440256,0.233265 0.188216,0.08838 0.325769,0.124845 0.511162,0.135571 0.139523,0.0081 0.253674,0.01754 0.253674,0.02108 0,0.0035 0.06046,0.183475 0.134323,0.399812 0.08634,0.25284 0.247069,0.957102 0.449947,1.971689 0.173583,0.868122 0.32652,1.616459 0.339844,1.662967 0.03382,0.118135 -0.01721,0.105723 -0.43556,-0.106433 l -0.35702,-0.181084 -0.140268,-0.499785 c -0.07718,-0.274895 -0.182601,-0.66052 -0.234295,-0.856882 -0.07952,-0.30205 -0.112612,-0.371486 -0.214625,-0.450973 -0.06631,-0.05167 -0.368125,-0.298797 -0.670735,-0.549183 l -0.550212,-0.455231 0.06496,-0.315182 c 0.03572,-0.173341 0.08478,-0.365918 0.109001,-0.427927 0.04296,-0.110017 0.260397,-0.55137 0.283841,-0.576121 0.0037,-0.0039 0.0091,-0.0057 0.01572,-0.0056 z"
       sodipodi:nodetypes="sscsssccscssssssssssccccsscccccsssssccscccssscsssscccccsssssssssccssssssccssccssscscccscssssscccssssscscssssssssssssccssssscsssssssssssssssssscccscsssssssssscccssssscssscscssssssssccccssccssscccssscccssssscccssssssssssssssssssssccccsssssscssccsssssscscssssssscccsssccssscccsssssssssccsssssssssccssccccscccsssssccscssccsccccsccsscccccccsccssssccccsscccsscccccssccccccc" /><path
       style="fill:#ff289c;fill-opacity:1;stroke:#e20000;stroke-width:0.110588;stroke-linecap:round;stroke-linejoin:round;stroke-dasharray:none;stroke-opacity:1;paint-order:markers stroke fill;stop-color:#000000"
       d="m 7.9218767,4.4150223 c 0.147855,0.039683 0.2866583,0.1273035 0.4451779,0.1142488 0.276252,0.00418 0.55456,0.00827 0.827453,-0.041526 0.193134,-0.032237 0.388545,-0.089458 0.543484,-0.2141904 0.06829,-0.045439 0.144393,-0.1159257 0.232828,-0.081421 0.1065694,0.032325 0.1737474,0.1637698 0.1175324,0.2653008 -0.06889,0.1545292 -0.2462354,0.2094753 -0.3970184,0.2490398 -0.383685,0.100322 -0.779425,0.1723905 -1.177576,0.1515732 -0.113292,-0.00515 -0.227847,0.00436 -0.3403241,-0.00784 C 8.099625,4.8413507 7.964147,4.7855421 8.0030278,4.698469 8.0180435,4.6648357 8.0419706,4.6270366 7.9788854,4.6305468 7.88626,4.6257432 7.7815663,4.4116642 7.9218767,4.4150213 Z"
       id="path14397"
       sodipodi:nodetypes="aaaaaaaaasaa" /><path
       style="fill:none;fill-opacity:1;stroke:#e20000;stroke-width:0.055307;stroke-linecap:round;stroke-linejoin:round;stroke-dasharray:none;stroke-opacity:1;paint-order:markers stroke fill;stop-color:#000000"
       d="m 8.0133936,4.6677226 c 0.334451,0.036945 0.672781,0.039069 1.013136,0.016216 0.32068,-0.037488 0.637808,-0.09578 0.881081,-0.2690235"
       id="path14399"
       sodipodi:nodetypes="ccc" /><g
       id="g16499"
       transform="matrix(0.33060871,0,0,0.33060871,-2.1791378,0.83839757)"><path
         style="fill:#ff26a1;fill-opacity:1;stroke:none;stroke-width:0.105834;stroke-linecap:round;stroke-linejoin:round;stroke-dasharray:none;stroke-opacity:1;paint-order:normal;stop-color:#000000"
         d="m 30.478171,7.2317425 c 0.585117,0.2629926 1.217732,0.4419139 1.86374,0.4301607 0.322331,0.0085 0.64835,0.094767 0.966856,6.4e-5 0.220649,-0.038611 0.442004,-0.098496 0.555583,-0.3038701 0.205051,-0.053191 0.346114,0.1814064 0.545133,0.2122658 0.559785,0.2259924 1.189983,0.16847 1.763942,0.032098 0.261963,-0.085349 0.481806,-0.2645256 0.748967,-0.3384386 0.23869,-0.077594 0.433289,-0.4229084 0.09613,-0.5186643 C 36.784159,6.6119116 36.494192,6.6429892 36.262183,6.4983151 35.976588,6.3845926 35.726166,6.1516427 35.401723,6.1642229 35.021071,6.1520251 34.631922,6.1344057 34.266675,6.2642702 33.952176,6.3294399 33.662286,6.5619043 33.330308,6.5024861 33.102915,6.3941975 32.877146,6.2772157 32.628524,6.2214179 32.236497,6.1076406 31.823151,6.0922251 31.421727,6.1630685 c -0.274686,0.033081 -0.585362,0.020752 -0.791822,0.2391962 -0.20907,0.1717164 -0.412668,0.4428675 -0.330806,0.7281189 0.02618,0.077064 0.115953,0.076445 0.179072,0.1013589 z"
         id="path4607"
         sodipodi:nodetypes="aaaaaaaaaaaaaaaaaaaaaaaaaaaaaaaaaaaaa" /><path
         id="path4551"
         style="fill:#ff26a1;fill-opacity:1;stroke:none;stroke-width:0.105834;stroke-linecap:round;stroke-linejoin:round;stroke-dasharray:none;stroke-opacity:1;paint-order:normal;stop-color:#000000"
         d="m 31.262128,5.8684287 c -0.241462,0.043725 -0.584396,0.054918 -0.733567,0.2683158 -0.03671,0.05252 0,0.1922376 0,0.1922376 0.134004,-0.04142 0.277494,-0.1611667 0.417448,-0.1778892 0.367927,-0.069433 0.676381,-0.1454292 1.052846,-0.1644003 0.380311,-0.033531 0.808579,0.012271 1.176846,0.1196437 0.25007,0.1168895 0.956169,0.2364394 0.411438,0.012718 C 33.03056,5.8311987 32.369422,5.650196 31.262128,5.8684287 Z"
         sodipodi:nodetypes="cacccccc" /><path
         style="fill:#ffffff;stroke:none;stroke-width:0.0995744;stroke-linecap:round;stroke-linejoin:round;stroke-dasharray:none;stroke-opacity:1;paint-order:normal;stop-color:#000000"
         d="m 30.638758,6.8667889 c 0.09965,-0.3202423 0.432064,-0.5025129 0.750286,-0.5299185 0.493008,-0.087607 1.017327,-0.077216 1.49211,0.087071 0.218987,0.1333103 0.46224,0.3243529 0.734579,0.231254 0.304996,-0.083096 0.587822,-0.2407013 0.906356,-0.2753951 0.342998,-0.061062 0.699565,-0.081863 1.041569,-0.00322 0.241467,0.1552862 0.492261,0.3033675 0.777906,0.358408 0.153025,0.078339 0.495515,0.058937 0.528166,0.198959 C 36.709801,7.2203191 36.352105,7.2780312 36.082582,7.420786 35.601901,7.6071836 35.065655,7.6044117 34.568858,7.490404 34.352299,7.434562 34.175498,7.2934211 33.987434,7.182157 33.703506,7.0684676 33.697171,7.5192865 33.406065,7.485344 32.659817,7.57671 31.885173,7.542226 31.170056,7.2943014 30.975305,7.2228994 30.557564,7.1598872 30.638758,6.8667863 Z"
         id="path885"
         sodipodi:nodetypes="aaaaaaaaaaaaaaaaaaaacaaaaaaaaacaaaaaaaaaaaa" /><path
         d="m 32.443074,7.4763447 c 0.192745,-0.066461 0.363093,-0.2296792 0.426224,-0.4083874 0.03238,-0.091683 0.03341,-0.1066305 0.01685,-0.244176 -0.01541,-0.127881 -0.02338,-0.1557614 -0.06265,-0.2192493 -0.105104,-0.1698748 -0.313482,-0.2903843 -0.53654,-0.3102979 -0.125752,-0.011221 -0.186996,-0.00394 -0.306435,0.0364 -0.210325,0.071038 -0.367547,0.2179239 -0.434181,0.4056239 -0.174254,0.4908558 0.354327,0.9271136 0.89672,0.7400952 z M 32.299985,6.8864992 c -0.02103,-0.016575 -0.03977,-0.042958 -0.04161,-0.058629 -0.01031,-0.086838 0.127118,-0.1359745 0.200363,-0.071656 0.09579,0.084115 -0.0576,0.2100015 -0.158749,0.1302833 z m -0.464627,-0.048006 c -0.15025,-0.1056263 -0.05598,-0.3464866 0.126422,-0.3230124 0.09356,0.012037 0.169442,0.12668 0.143875,0.2173631 -0.03318,0.1176878 -0.17456,0.1729483 -0.270293,0.1056446 z m 0.460318,-0.2436328 c -0.04785,-0.015307 -0.0942,-0.089117 -0.08899,-0.1417575 0.0102,-0.1033926 0.130756,-0.1572533 0.203194,-0.090778 0.05542,0.050869 0.06179,0.1325985 0.01495,0.1920326 -0.03854,0.048911 -0.07101,0.059092 -0.129124,0.040501 z"
         style="fill:#ff299a;fill-opacity:1;stroke-width:0.0140267"
         id="path796" /><path
         d="m 35.674499,7.540393 c 0.192745,-0.066461 0.363094,-0.2296794 0.426223,-0.4083877 0.03238,-0.091683 0.03342,-0.1066305 0.01685,-0.2441758 -0.0154,-0.1278811 -0.02338,-0.1557615 -0.06264,-0.2192494 -0.105103,-0.1698747 -0.313481,-0.2903842 -0.536538,-0.3102978 -0.125754,-0.011222 -0.186995,-0.00394 -0.306434,0.0364 -0.210326,0.071038 -0.367549,0.217924 -0.434183,0.4056241 -0.174254,0.4908558 0.354328,0.9271135 0.896719,0.7400949 z m -0.14309,-0.5898456 c -0.02103,-0.016575 -0.03977,-0.042958 -0.04161,-0.058629 -0.01031,-0.086838 0.127117,-0.1359745 0.200365,-0.071656 0.09579,0.084115 -0.0576,0.2100016 -0.158751,0.1302833 z m -0.464627,-0.048006 c -0.15025,-0.1056263 -0.05599,-0.3464864 0.126422,-0.3230121 0.09356,0.012037 0.169443,0.12668 0.143877,0.2173631 -0.03318,0.1176866 -0.174563,0.1729482 -0.270293,0.1056446 z m 0.460319,-0.2436332 c -0.04785,-0.015308 -0.0942,-0.089117 -0.089,-0.1417574 0.0102,-0.1033926 0.130756,-0.1572533 0.203195,-0.090778 0.05542,0.050869 0.06179,0.1325985 0.01496,0.1920326 -0.03855,0.04891 -0.07101,0.059092 -0.129124,0.040501 z"
         style="fill:#ff299a;fill-opacity:1;stroke-width:0.0140267"
         id="path796-6" /><path
         style="fill:none;stroke:#ff289b;stroke-width:0.105834;stroke-linecap:round;stroke-linejoin:round;stroke-dasharray:none;stroke-opacity:1;paint-order:markers stroke fill;stop-color:#000000"
         d="m 33.682759,6.6309025 c -0.02196,0.089857 -0.03102,0.1283909 -0.0202,0.2215981 0.0071,0.057777 0.01231,0.1181613 0.04005,0.1703639 0.02403,0.037248 0.06211,0.063747 0.08142,0.1044633 0.01257,0.021783 0.0244,0.043984 0.03586,0.066356"
         id="path4547" /><path
         style="fill:#ff26a1;fill-opacity:1;stroke:none;stroke-width:0.105834;stroke-linecap:round;stroke-linejoin:round;stroke-dasharray:none;stroke-opacity:1;paint-order:normal;stop-color:#000000"
         d="M 36.075331,5.9524348 C 35.85149,5.7676992 35.563224,5.7057735 35.279585,5.7021741 c -0.316221,-0.00402 -0.645852,0.00415 -0.944754,0.1152361 -0.177379,0.1111705 -0.398026,0.2206875 -0.601318,0.1010354 -0.340405,-0.1705333 -0.725789,-0.2199842 -1.099412,-0.2670631 -0.521082,-0.038822 -1.048756,0.021293 -1.555689,0.1422393 -0.166601,0.04478 -0.384328,0.1035605 -0.350074,0.321334 -0.314596,0.040699 -0.118521,0.4042419 -0.271806,0.5436114 -0.166159,-0.095589 -0.20719,-0.3861307 -0.06418,-0.5250445 0.145566,-0.1743265 0.179427,-0.43998 0.367745,-0.5600191 0.562939,-0.3588328 1.317011,-0.3523384 1.981656,-0.2898197 0.343551,0.032316 0.634942,0.3049459 0.978405,0.3381882 0.551173,0.053346 1.092526,-0.268606 1.645032,-0.2315293 0.276011,0.018522 0.41158,0.046979 0.798974,0.2244276 1.136345,0.6538014 0.767979,0.8831814 -0.08883,0.3376644 z"
         id="path4315"
         sodipodi:nodetypes="caaaaaaaaaaaacc" /><path
         style="fill:#ff26a1;fill-opacity:1;stroke:none;stroke-width:0.105834;stroke-linecap:round;stroke-linejoin:round;stroke-dasharray:none;stroke-opacity:1;paint-order:normal;stop-color:#000000"
         d="m 33.739654,7.4836783 c 0.03427,0.05775 0.0606,0.1229406 0.09987,0.1760018 0.117644,0.072572 0.242397,0.1515308 0.386401,0.1448433 0.140925,-0.014436 0.207287,0.1414349 0.344431,0.1441591 0.311028,0.063771 0.628715,0.00678 0.942035,-0.00601 0.374528,-0.032243 0.757364,-0.076892 1.104425,-0.2298671 0.151449,-0.070549 0.297812,-0.1515474 0.441727,-0.2362775 0.02194,0.037749 0.06355,0.077446 0.01002,0.1077226 -0.257724,0.3261971 -0.719993,0.466291 -1.034554,0.5172018 -0.447622,0.083258 -0.912918,0.1647565 -1.359593,0.083266 C 34.556723,8.1632463 34.462554,8.0686972 34.347005,8.03769 34.216363,8.002632 34.058785,8.066742 33.943333,7.996262 33.796048,7.906348 33.643019,7.7339851 33.660976,7.5623609 c 0.0039,-0.036889 0.05245,-0.052454 0.07868,-0.078681 z"
         id="path4516"
         sodipodi:nodetypes="ccaaaaaccaaaaac" /></g></g></svg>
