<?xml version="1.0" encoding="UTF-8" standalone="no"?>
<svg
   width="200"
   height="64"
   viewBox="0 0 52.917 16.933"
   xml:space="preserve"
   version="1.1"
   id="svg29337"
   sodipodi:docname="logo-horz.svg"
   inkscape:version="1.2.2 (732a01da63, 2022-12-09)"
   inkscape:export-filename="logo-horz.png"
   inkscape:export-xdpi="96"
   inkscape:export-ydpi="96"
   xmlns:inkscape="http://www.inkscape.org/namespaces/inkscape"
   xmlns:sodipodi="http://sodipodi.sourceforge.net/DTD/sodipodi-0.dtd"
   xmlns:xlink="http://www.w3.org/1999/xlink"
   xmlns="http://www.w3.org/2000/svg"
   xmlns:svg="http://www.w3.org/2000/svg"><sodipodi:namedview
     id="namedview29339"
     pagecolor="#ffffff"
     bordercolor="#000000"
     borderopacity="0.25"
     inkscape:showpageshadow="2"
     inkscape:pageopacity="0.0"
     inkscape:pagecheckerboard="0"
     inkscape:deskcolor="#d1d1d1"
     showgrid="false"
     inkscape:zoom="8.0000004"
     inkscape:cx="72.874996"
     inkscape:cy="40.874998"
     inkscape:window-width="2560"
     inkscape:window-height="1017"
     inkscape:window-x="-8"
     inkscape:window-y="-8"
     inkscape:window-maximized="1"
     inkscape:current-layer="svg29337"
     showguides="false"><sodipodi:guide
       position="26.564588,7.8096164"
       orientation="1,0"
       id="guide7765"
       inkscape:locked="false" /></sodipodi:namedview><defs
     id="defs29329"><linearGradient
       id="a"><stop
         style="stop-color:#f60;stop-opacity:1"
         offset="0"
         id="stop29323" /><stop
         style="stop-color:#f0f;stop-opacity:1"
         offset="1"
         id="stop29325" /></linearGradient><linearGradient
       xlink:href="#a"
       id="b"
       x1="9.911"
       y1="27.725"
       x2="19.257"
       y2="36.005"
       gradientUnits="userSpaceOnUse"
       gradientTransform="matrix(1.21423,0,0,1.21423,-9.704,-31.584768)" /><inkscape:path-effect
       effect="fill_between_many"
       method="originald"
       linkedpaths="#path3018,0,1"
       id="path-effect27838" /><linearGradient
       inkscape:collect="always"
       xlink:href="#a"
       id="linearGradient6994-4"
       x1="-15.234996"
       y1="8.1326065"
       x2="0.87738293"
       y2="8.1326065"
       gradientUnits="userSpaceOnUse"
       gradientTransform="matrix(3.3290519,0,0,3.3290519,35.087073,0.42683874)" /></defs><path
     id="path23406-8"
     style="fill:#ffd5d5;fill-opacity:0.90404;stroke:#e20000;stroke-width:0.890296;stroke-dasharray:none;stroke-opacity:1"
     d="M 24.950688,15.995804 C 23.868201,14.601497 22.394358,13.519727 21.451138,12.030646 21.108951,11.14997 20.000988,10.82196 19.692578,9.8907114 19.077175,9.323884 18.400849,8.5639321 18.711753,7.6603426 18.661613,6.3517795 17.85366,5.2305976 17.361956,4.055372 16.511605,2.5899126 14.898378,1.322706 13.115677,1.6053769 13.017954,1.5583002 12.915534,1.5381963 12.810268,1.5345797 12.494468,1.5237297 12.153821,1.6606923 11.844946,1.6560201 10.110603,1.7957239 8.8102071,3.1096019 7.9526524,4.5204628 7.6013541,5.2556998 6.8788617,5.904743 7.0028336,6.7668514 6.798892,7.3370628 7.2295095,7.9905714 7.0379738,8.4778689 5.873849,9.7626065 5.4070391,11.556296 3.9859445,12.620795 3.075411,13.396221 1.9415111,14.017602 1.5623046,15.234605 1.4610123,15.487441 1.3573563,15.742663 1.2548279,15.995804"
     sodipodi:nodetypes="ccccccsccccccc" /><g
     aria-label="MEME"
     id="text7515"
     style="font-weight:bold;font-size:7.45493px;font-family:arial;-inkscape-font-specification:'arial Bold';text-align:center;direction:rtl;text-anchor:middle;fill:#ff24a4;stroke:#e20000;stroke-width:0.270641;stroke-linecap:round;stroke-linejoin:round;stroke-dasharray:none;paint-order:stroke markers fill;stop-color:#000000"
     transform="matrix(0.88130708,0,0,0.88130708,7.0755641,0.75049914)"><path
       d="m 16.699811,8.8956798 q 0,0.4547507 -0.454751,0.4547507 -0.45475,0 -0.45475,-0.4547507 V 6.4355529 q 0,-0.4845704 0.141643,-0.9020465 0.149099,-0.424931 0.432386,-0.7305831 0.290743,-0.3131071 0.723129,-0.4920254 0.43984,-0.1789183 1.021325,-0.1789183 h 0.656034 q 0.723128,0 1.192789,0.2683775 0.477115,0.2683775 0.738038,0.7231282 0.260922,-0.4547507 0.730583,-0.7231282 0.46966,-0.2683775 1.192788,-0.2683775 h 0.656034 q 0.581485,0 1.013871,0.1789183 0.439841,0.1789183 0.723128,0.4920254 0.290742,0.3056521 0.432386,0.7305831 0.149098,0.4174761 0.149098,0.9020465 v 2.4601269 q 0,0.4547507 -0.45475,0.4547507 -0.447296,0 -0.447296,-0.4547507 V 6.4653726 q 0,-0.3205619 -0.09691,-0.5963943 Q 24.497668,5.5856909 24.30384,5.3844078 24.110011,5.1756698 23.819269,5.0638458 23.535982,4.944567 23.148325,4.944567 H 22.68612 q -0.387657,0 -0.678399,0.1192788 -0.283287,0.111824 -0.477115,0.320562 -0.186374,0.2012831 -0.283288,0.4845705 -0.09691,0.2758324 -0.09691,0.5963943 v 2.4303072 q 0,0.4547507 -0.45475,0.4547507 -0.454751,0 -0.454751,-0.4547507 V 6.4653726 q 0,-0.3205619 -0.09691,-0.5963943 Q 20.047075,5.5856909 19.853246,5.3844078 19.666873,5.1756698 19.376131,5.0638458 19.085389,4.944567 18.705187,4.944567 h -0.46966 q -0.380202,0 -0.670944,0.1192788 -0.290742,0.111824 -0.48457,0.320562 -0.186374,0.2012831 -0.283288,0.4771155 -0.09691,0.2758324 -0.09691,0.5963944 v 2.4377621 z"
       style="font-weight:normal;font-family:SpaceColonyW03-Medium;-inkscape-font-specification:'SpaceColonyW03-Medium, Normal';stroke-width:0.270641;stroke-dasharray:none"
       id="path39716" /><path
       d="m 29.291192,4.944567 q -0.395112,0 -0.708219,0.104369 -0.305652,0.104369 -0.5293,0.2907422 -0.223648,0.1863733 -0.365291,0.4472958 -0.134189,0.2534676 -0.186374,0.5516648 h 4.748791 q 0.410021,0 0.410021,0.4025662 0,0.1938282 -0.111824,0.2981972 -0.104369,0.1043691 -0.298197,0.1043691 h -4.748791 q 0.05219,0.3056521 0.186374,0.5591197 0.141643,0.2534676 0.365291,0.4398409 0.223648,0.1863732 0.5293,0.2907422 0.313107,0.104369 0.708219,0.104369 h 3.548546 q 0.410021,0 0.410021,0.4100212 0,0.1938282 -0.104369,0.2981972 -0.104369,0.104369 -0.305652,0.104369 h -3.645461 q -0.663488,0 -1.162969,-0.2012831 Q 27.539283,8.9404093 27.211266,8.5900276 26.883249,8.2396459 26.719241,7.7625304 26.555232,7.2854149 26.555232,6.741205 q 0,-0.5442098 0.164009,-1.0213253 0.164008,-0.4771155 0.492025,-0.8274972 0.328017,-0.3578367 0.820042,-0.5591198 0.499481,-0.2012831 1.162969,-0.2012831 h 3.645461 q 0.410021,0 0.410021,0.4025662 0,0.4100212 -0.410021,0.4100212 z"
       style="font-weight:normal;font-family:SpaceColonyW03-Medium;-inkscape-font-specification:'SpaceColonyW03-Medium, Normal';stroke-width:0.270641;stroke-dasharray:none"
       id="path39718" /><path
       d="m 35.046397,8.8956798 q 0,0.4547507 -0.45475,0.4547507 -0.454751,0 -0.454751,-0.4547507 V 6.4355529 q 0,-0.4845704 0.141644,-0.9020465 0.149098,-0.424931 0.432386,-0.7305831 0.290742,-0.3131071 0.723128,-0.4920254 0.439841,-0.1789183 1.021325,-0.1789183 h 0.656034 q 0.723128,0 1.192789,0.2683775 0.477115,0.2683775 0.738038,0.7231282 0.260922,-0.4547507 0.730583,-0.7231282 0.46966,-0.2683775 1.192789,-0.2683775 h 0.656034 q 0.581484,0 1.01387,0.1789183 0.439841,0.1789183 0.723128,0.4920254 0.290742,0.3056521 0.432386,0.7305831 0.149099,0.4174761 0.149099,0.9020465 v 2.4601269 q 0,0.4547507 -0.454751,0.4547507 -0.447296,0 -0.447296,-0.4547507 V 6.4653726 q 0,-0.3205619 -0.09691,-0.5963943 Q 42.844254,5.5856909 42.650426,5.3844078 42.456598,5.1756698 42.165855,5.0638458 41.882568,4.944567 41.494912,4.944567 h -0.462206 q -0.387656,0 -0.678399,0.1192788 -0.283287,0.111824 -0.477115,0.320562 -0.186373,0.2012831 -0.283287,0.4845705 -0.09691,0.2758324 -0.09691,0.5963943 v 2.4303072 q 0,0.4547507 -0.454751,0.4547507 -0.454751,0 -0.454751,-0.4547507 V 6.4653726 q 0,-0.3205619 -0.09691,-0.5963943 Q 38.393661,5.5856909 38.199833,5.3844078 38.013459,5.1756698 37.722717,5.0638458 37.431975,4.944567 37.051774,4.944567 h -0.469661 q -0.380201,0 -0.670944,0.1192788 -0.290742,0.111824 -0.48457,0.320562 -0.186373,0.2012831 -0.283288,0.4771155 -0.09691,0.2758324 -0.09691,0.5963944 v 2.4377621 z"
       style="font-weight:normal;font-family:SpaceColonyW03-Medium;-inkscape-font-specification:'SpaceColonyW03-Medium, Normal';stroke-width:0.270641;stroke-dasharray:none"
       id="path39720" /><path
       d="m 47.637778,4.944567 q -0.395112,0 -0.708219,0.104369 -0.305652,0.104369 -0.5293,0.2907422 -0.223648,0.1863733 -0.365291,0.4472958 -0.134189,0.2534676 -0.186373,0.5516648 h 4.74879 q 0.410021,0 0.410021,0.4025662 0,0.1938282 -0.111824,0.2981972 -0.104369,0.1043691 -0.298197,0.1043691 h -4.74879 q 0.05218,0.3056521 0.186373,0.5591197 0.141643,0.2534676 0.365291,0.4398409 0.223648,0.1863732 0.5293,0.2907422 0.313107,0.104369 0.708219,0.104369 h 3.548546 q 0.410021,0 0.410021,0.4100212 0,0.1938282 -0.104369,0.2981972 -0.104369,0.104369 -0.305652,0.104369 h -3.64546 q -0.663489,0 -1.162969,-0.2012831 Q 45.885869,8.9404093 45.557852,8.5900276 45.229835,8.2396459 45.065827,7.7625304 44.901818,7.2854149 44.901818,6.741205 q 0,-0.5442098 0.164009,-1.0213253 0.164008,-0.4771155 0.492025,-0.8274972 0.328017,-0.3578367 0.820043,-0.5591198 0.49948,-0.2012831 1.162969,-0.2012831 h 3.64546 q 0.410021,0 0.410021,0.4025662 0,0.4100212 -0.410021,0.4100212 z"
       style="font-weight:normal;font-family:SpaceColonyW03-Medium;-inkscape-font-specification:'SpaceColonyW03-Medium, Normal';stroke-width:0.270641;stroke-dasharray:none"
       id="path39722" /></g><g
     aria-label="MENTOR"
     id="text7515-0"
     style="font-weight:bold;font-size:3.85217px;font-family:arial;-inkscape-font-specification:'arial Bold';text-align:center;direction:rtl;text-anchor:middle;fill:#ff24a4;stroke:#e20000;stroke-width:0.135321;stroke-linecap:round;stroke-linejoin:round;stroke-dasharray:none;paint-order:markers stroke fill;stop-color:#000000"
     transform="matrix(0.91539101,0,0,0.91539101,5.3123455,0.61427728)"><path
       d="m 39.142291,11.452761 q 0,-0.196461 -0.05778,-0.365956 -0.05778,-0.169496 -0.1772,-0.292765 -0.119417,-0.127122 -0.296617,-0.196461 -0.1772,-0.07319 -0.412182,-0.07319 h -0.778139 q -0.238834,0 -0.416034,0.07319 -0.173348,0.06934 -0.292765,0.196461 -0.119417,0.123269 -0.1772,0.292765 -0.05778,0.169495 -0.05778,0.365956 v 1.113277 q 0,0.234983 -0.234983,0.234983 -0.234982,0 -0.234982,-0.234983 v -1.113277 q 0,-0.281208 0.08475,-0.527747 0.08475,-0.246539 0.254243,-0.427591 0.173348,-0.184904 0.427591,-0.288913 0.254243,-0.104008 0.597086,-0.104008 h 0.878295 q 0.338991,0 0.593234,0.104008 0.258095,0.104009 0.427591,0.288913 0.173348,0.181052 0.258095,0.427591 0.08475,0.246539 0.08475,0.527747 v 1.113277 q 0,0.234983 -0.234982,0.234983 -0.234983,0 -0.234983,-0.234983 z"
       style="font-weight:normal;font-family:SpaceColonyW03-Medium;-inkscape-font-specification:'SpaceColonyW03-Medium, Normal';stroke-width:0.135321;stroke-dasharray:none"
       id="path39729" /><path
       d="m 41.923559,10.524388 v 2.04165 q 0,0.234983 -0.234983,0.234983 -0.23113,0 -0.23113,-0.234983 v -2.04165 h -1.355964 q -0.211869,0 -0.211869,-0.211869 0,-0.208017 0.211869,-0.208017 h 3.178041 q 0.211869,0 0.211869,0.208017 0,0.211869 -0.211869,0.211869 z"
       style="font-weight:normal;font-family:SpaceColonyW03-Medium;-inkscape-font-specification:'SpaceColonyW03-Medium, Normal';stroke-width:0.135321;stroke-dasharray:none"
       id="path39731" /><path
       d="m 46.118571,10.104502 q 0.342843,0 0.597087,0.104008 0.258095,0.104009 0.42759,0.288913 0.169496,0.181052 0.254244,0.427591 0.08475,0.246539 0.08475,0.527747 0,0.281209 -0.08475,0.527747 -0.08475,0.246539 -0.254244,0.427591 -0.169495,0.181052 -0.42759,0.288913 -0.254244,0.104009 -0.597087,0.104009 h -1.016973 q -0.342843,0 -0.600938,-0.104009 -0.254243,-0.107861 -0.423739,-0.288913 -0.169495,-0.181052 -0.254243,-0.427591 -0.08475,-0.246538 -0.08475,-0.527747 0,-0.281208 0.08475,-0.527747 0.08475,-0.246539 0.254243,-0.427591 0.169496,-0.184904 0.423739,-0.288913 0.258095,-0.104008 0.600938,-0.104008 z m 0.893704,1.348259 q 0,-0.196461 -0.05778,-0.365956 -0.05778,-0.169496 -0.1772,-0.292765 -0.115565,-0.127122 -0.292765,-0.196461 -0.177199,-0.07319 -0.412182,-0.07319 H 45.15168 q -0.238835,0 -0.416035,0.07319 -0.173347,0.06934 -0.292765,0.196461 -0.119417,0.123269 -0.1772,0.292765 -0.05778,0.169495 -0.05778,0.365956 0,0.196461 0.05778,0.365956 0.05778,0.169496 0.1772,0.296617 0.119418,0.12327 0.292765,0.196461 0.1772,0.06934 0.416035,0.06934 h 0.920668 q 0.234983,0 0.412182,-0.06934 0.1772,-0.07319 0.292765,-0.196461 0.119418,-0.127121 0.1772,-0.296617 0.05778,-0.169495 0.05778,-0.365956 z"
       style="font-weight:normal;font-family:SpaceColonyW03-Medium;-inkscape-font-specification:'SpaceColonyW03-Medium, Normal';stroke-width:0.135321;stroke-dasharray:none"
       id="path39733" /><path
       d="m 51.126395,12.361873 q 0,-0.234982 -0.134826,-0.385217 -0.130974,-0.150234 -0.416035,-0.150234 h -2.087876 v 0.739616 q 0,0.234983 -0.234982,0.234983 -0.234982,0 -0.234982,-0.234983 v -2.226554 q 0,-0.234982 0.234982,-0.234982 h 2.546284 q 0.200313,0 0.346696,0.06163 0.150234,0.06164 0.250391,0.169496 0.100156,0.104008 0.150234,0.246539 0.05008,0.14253 0.05008,0.308173 0,0.246539 -0.10786,0.439148 -0.107861,0.192608 -0.327435,0.28506 0.215722,0.08475 0.323582,0.269652 0.111713,0.184904 0.111713,0.416035 v 0.265799 q 0,0.234983 -0.234982,0.234983 -0.234982,0 -0.234982,-0.234983 z m -2.638737,-1.837485 v 0.882147 h 2.188033 q 0.227278,0 0.335139,-0.127122 0.111713,-0.127121 0.111713,-0.312025 0,-0.188757 -0.111713,-0.315878 -0.107861,-0.127122 -0.335139,-0.127122 z"
       style="font-weight:normal;font-family:SpaceColonyW03-Medium;-inkscape-font-specification:'SpaceColonyW03-Medium, Normal';stroke-width:0.135321;stroke-dasharray:none"
       id="path39735" /></g><path
     id="path3018-5"
     style="fill:url(#linearGradient6994-4);fill-opacity:1;stroke-width:0.132415"
     d="m 12.833522,1.5278617 c -0.298452,-0.00468 -0.953245,0.1170618 -1.144123,0.1684663 -0.111849,0.030127 -0.207983,0.052942 -0.295591,0.062529 -0.26861,0.07922 -0.682214,0.1173603 -0.951886,0.2516658 C 10.120008,2.1708465 9.8279532,2.3910361 9.5556655,2.6259928 9.2046037,2.9289413 8.8652185,3.2519476 8.5794915,3.617153 8.1962269,4.1070393 7.8622651,4.6361301 7.5583588,5.1788247 L 6.9888809,6.1958233 c 0.00684,0.067892 0.1048784,0.4774318 0.025322,0.6867841 -0.1015743,0.2671036 -0.097695,0.523614 0.012919,0.9188127 0.1528606,0.5460112 0.1502299,0.5525642 -0.5188346,1.3828701 -0.3696863,0.4587421 -0.739917,1.0470998 -0.822694,1.3074218 -0.082742,0.260326 -0.3439317,0.681483 -0.5808468,0.936383 -0.236942,0.254916 -0.4831717,0.561492 -0.5472568,0.6811 -0.06409,0.119618 -0.5935331,0.571031 -1.1761631,1.003046 -0.5826232,0.432015 -1.1296093,0.872081 -1.2159541,0.977724 -0.1550741,0.189724 -0.5015629,0.923214 -0.9213966,1.905839 h 0.858351 c 0.5331435,-1.200377 0.8272421,-1.577788 1.3746017,-2.018495 l 0.6991865,-0.562243 0.1488291,0.363805 c 0.3603544,0.879686 0.355509,0.911616 -0.1405608,0.8537 -0.7777028,-0.09079 -0.8020041,0.03666 -0.094052,0.490929 0.5617218,0.360456 0.7563634,0.610514 0.6165038,0.872304 h 1.829874 c 0.047524,-0.168994 -0.00537,-0.197922 -0.2418473,-0.197922 -0.5339402,0 -0.7477701,-0.581888 -0.5849808,-1.592678 0.170286,-1.057251 0.2516219,-1.206502 1.2314571,-2.247422 0.5087049,-0.540425 0.9802505,-1.218978 1.2676309,-1.82419 L 8.6668252,9.1698207 8.8321909,9.980629 c 0.1419056,0.695757 0.3364411,1.091288 1.1239694,2.284113 0.050126,0.07593 0.4923557,-0.127918 1.0500717,-0.484728 1.03557,-0.662557 1.203426,-0.704822 1.7074,-0.425817 0.28607,0.158374 0.388063,0.151009 0.80254,-0.06046 0.517552,-0.264022 0.447622,-0.281176 2.404002,0.57878 0.443542,0.19497 0.507293,0.196043 0.69557,0.0078 0.315374,-0.315376 0.500283,-0.706914 0.736393,-1.559605 l 0.214976,-0.7767016 0.511083,0.9751406 c 0.280901,0.536419 0.732717,1.273497 1.004079,1.637636 0.639714,0.858426 0.918214,1.715071 0.915712,2.818451 -0.0013,0.52077 -0.03027,0.853359 -0.101286,1.020616 h 0.940517 l 0.0186,-1.113118 c 0.01129,-0.66427 0.09357,-1.27237 0.197405,-1.462969 0.05546,-0.101787 0.09368,-0.171534 0.165882,-0.172083 0.158851,-0.0012 0.481231,0.332255 1.508962,1.396822 0.448305,0.464381 0.885626,0.948173 1.22939,1.351348 h 0.999428 c -0.347541,-0.435554 -0.849201,-0.977722 -1.645388,-1.789567 -1.020458,-1.04054 -1.855712,-1.967348 -1.855712,-2.059318 0,-0.359679 -0.184896,-0.601815 -0.808225,-1.059374 -0.356605,-0.261763 -0.648026,-0.577271 -0.648026,-0.701253 0,-0.123966 -0.298342,-0.5193256 -0.662496,-0.8779886 -0.58398,-0.5751913 -0.66198,-0.7169521 -0.66198,-1.2030349 0,-0.3031201 0.110313,-0.8954776 0.001,-1.205102 C 18.579005,6.8246791 18.49805,6.5531481 18.481275,6.4516232 L 18.293171,6.0345918 C 18.185809,5.7964855 18.047669,5.573057 17.942803,5.3338549 17.845677,5.1122837 17.789575,4.8731617 17.68752,4.6537888 17.576598,4.4153393 17.438841,4.1903679 17.305112,3.9639041 17.219252,3.8184731 17.133474,3.6718923 17.029158,3.5391211 16.86031,3.3241575 16.691631,3.1056528 16.488102,2.9231342 16.243011,2.7033441 15.794802,2.2678983 15.509861,2.103024 15.228651,1.9403044 14.932743,1.7905244 14.61792,1.7102807 14.200727,1.579536 13.762476,1.5647385 13.324451,1.5888403 c -0.109896,-0.00479 -0.365756,0.081197 -0.341583,-0.0062 v -5.168e-4 c 0.01019,-0.036923 -0.04986,-0.0527 -0.149346,-0.054261 z m 0.0067,0.7684334 h 5.17e-4 c 0.397586,-0.00374 0.692744,0.061001 0.805123,0.1963717 0.09175,0.1105473 0.173238,0.4237883 0.181386,0.6955692 0.01233,0.4132399 -0.03227,0.5003285 -0.274921,0.5348544 C 13.392774,3.7456799 13.12063,3.6720379 12.947728,3.5587583 12.539996,3.29162 11.392774,3.1249212 11.392774,3.3329309 c 0,0.082709 0.163517,0.1545453 0.363805,0.1596812 0.923993,0.023621 0.869675,0.1854033 -0.256317,0.7601651 -0.605332,0.3090086 -1.5139347,0.813871 -2.0190111,1.1213856 l -0.918296,0.5586258 0.029456,0.8609347 c 0.058616,1.7232265 -0.8962424,4.0052127 -2.1001434,5.0198807 -0.7658261,0.645459 -1.1830297,1.406175 -1.1875319,2.163705 -0.00146,0.27313 -0.053098,0.496614 -0.1142057,0.496614 -0.2122584,0 -0.4185817,-0.678374 -0.4185817,-1.376669 0,-0.561235 0.075294,-0.805784 0.3751733,-1.218538 C 5.3534575,11.594666 5.621059,11.280598 5.7419207,11.18108 5.8627712,11.08156 6.0204256,10.783719 6.0922892,10.519101 6.1641521,10.254461 6.5430548,9.67182 6.9341035,9.224598 L 7.6451757,8.4117226 7.5123665,7.7636961 C 7.38282,7.1311583 7.3968756,7.0816925 8.0906294,5.7296989 9.077578,3.8063847 9.9256891,2.9471302 11.208805,2.5691484 c 0.562996,-0.1658702 1.112197,-0.2576091 1.550819,-0.271303 0.02722,-8.471e-4 0.05424,-0.00133 0.08062,-0.00155 z m 1.445399,0.5462233 h 5.16e-4 c 0.0089,2.221e-4 0.01885,8.962e-4 0.02946,0.00207 0.304421,0.033548 1.329048,0.4364463 1.716702,0.6929853 0.643767,0.4260165 1.043586,1.1109896 1.658307,2.8432553 0.408103,1.1495594 0.474531,1.4846914 0.408247,2.0443325 -0.07884,0.6654933 -0.07507,0.6733058 0.612886,1.38287 0.865729,0.8929514 0.954793,0.9733854 1.684662,1.5182634 0.3277,0.244646 0.613472,0.562743 0.634591,0.706938 0.02259,0.153546 -0.123203,0.417 -0.351402,0.635624 -0.37578,0.360012 -0.392738,0.363956 -0.475943,0.101803 -0.04741,-0.149506 -0.31325,-0.452089 -0.590665,-0.671798 -0.304521,-0.241153 -0.702597,-0.781231 -1.00408,-1.362716 C 18.334246,10.206384 17.965633,9.5790717 17.789323,9.3419043 17.568574,9.0449464 17.388713,8.48844 17.211577,7.5544052 16.850387,5.6498299 16.875534,5.7285287 16.415238,5.033613 15.987128,4.3872915 15.088003,3.7478952 14.607068,3.7478952 c -0.20435,0 -0.287565,-0.1057978 -0.336932,-0.4299506 -0.03588,-0.2367031 -0.05244,-0.4452042 -0.03669,-0.4635405 0.0075,-0.00886 0.02535,-0.01257 0.05219,-0.011886 z M 14.15438,3.9313477 c 0.175181,1.402e-4 0.320511,0.028352 0.485244,0.082683 1.219147,0.402357 1.994897,1.7014303 2.204014,3.6902373 0.15375,1.4619913 0.153671,2.4888092 -0.08888,3.3238492 -0.322703,0.866744 -0.919807,0.4319 -1.284684,0.284222 -1.509566,-0.617327 -1.536194,-0.623123 -1.904805,-0.399461 -0.304694,0.184906 -0.410417,0.188386 -0.884189,0.02532 -0.618797,-0.213182 -0.955094,-0.119557 -1.822123,0.5085 -0.287748,0.208424 -0.57541,0.37879 -0.638724,0.37879 -0.06334,0 -0.3141755,-0.372169 -0.5575926,-0.827345 C 9.232323,10.193403 9.2193474,10.120461 9.1748078,8.3533279 9.1450174,7.1797803 9.1805888,6.4376939 9.276611,6.2588689 9.3581307,6.1065557 9.6938501,5.8668779 10.022307,5.7260815 10.350794,5.5853053 10.867934,5.269662 11.171598,5.0243112 11.916941,4.4221055 12.125971,4.325156 13.225749,4.0750091 13.606948,3.98833 13.866241,3.9420045 14.077381,3.932898 c 0.02636,-0.00112 0.05197,-0.00155 0.077,-0.00155 z m 1.131204,4.2374942 c -0.02876,2.154e-4 -0.0626,0.00155 -0.101287,0.00413 -0.103256,0.00617 -0.243567,0.01879 -0.427366,0.037207 -0.858789,0.084627 -0.908338,0.1014652 -0.803057,0.2718197 0.126328,0.2043846 1.12359,0.1130863 1.361166,-0.124541 0.138305,-0.1383422 0.171917,-0.1896097 -0.02946,-0.1881034 z m -3.829764,0.00568 C 10.799818,8.1718363 9.9921805,8.2859 10.269321,8.3941525 c 0.14437,0.056384 0.517608,0.1065184 0.829412,0.1116218 0.375493,0.00617 0.592848,0.07659 0.643376,0.2082574 0.06299,0.1640903 0.13054,0.1468673 0.387059,-0.099219 l 0.310577,-0.2981749 -0.424266,-0.095602 c -0.1392,-0.031159 -0.340984,-0.045545 -0.559659,-0.046509 z m 7.543772,7.3055437 c -0.07401,-0.02059 -0.03426,0.167233 0.07597,0.515734 h 0.441837 c -0.05549,-0.05036 -0.116431,-0.114045 -0.18397,-0.192755 -0.168571,-0.196453 -0.27846,-0.307576 -0.333832,-0.322979 z" /><path
     style="fill:#ff289b;fill-opacity:1;stroke:#e20000;stroke-width:0.389744;stroke-linecap:round;stroke-linejoin:round;stroke-dasharray:none;stroke-opacity:1;paint-order:markers stroke fill;stop-color:#000000"
     d="m 9.3872874,13.392618 c 0.5209591,0.139821 1.0100246,0.448547 1.5685616,0.402549 0.973359,0.01473 1.953958,0.02914 2.915482,-0.146317 0.680496,-0.113586 1.369019,-0.3152 1.914935,-0.754688 0.240629,-0.160103 0.508761,-0.408458 0.820356,-0.286883 0.375493,0.113896 0.61219,0.577034 0.414122,0.934773 -0.242758,0.544477 -0.867598,0.738077 -1.398874,0.87748 -1.351893,0.353479 -2.746262,0.607408 -4.149124,0.53406 -0.399179,-0.01814 -0.802805,0.01537 -1.199112,-0.02765 -0.26006,-0.03118 -0.7374094,-0.22782 -0.6004151,-0.534617 0.052907,-0.118506 0.1372129,-0.251689 -0.085064,-0.239321 -0.3263605,-0.01693 -0.6952429,-0.77122 -0.2008674,-0.759392 z"
     id="path14397-9"
     sodipodi:nodetypes="aaaaaaaaasaa" /><path
     style="fill:none;fill-opacity:1;stroke:#e20000;stroke-width:0.194871;stroke-linecap:round;stroke-linejoin:round;stroke-dasharray:none;stroke-opacity:1;paint-order:markers stroke fill;stop-color:#000000"
     d="m 9.7097423,14.282993 c 1.1784187,0.130173 2.3705057,0.137656 3.5697297,0.05714 1.129896,-0.132087 2.247279,-0.337475 3.104436,-0.947889"
     id="path14399-4"
     sodipodi:nodetypes="ccc" /></svg>
