<?xml version="1.0" encoding="UTF-8" standalone="no"?>
<svg
   width="256"
   height="256"
   viewBox="0 0 67.73376 67.732"
   xml:space="preserve"
   version="1.1"
   id="svg16"
   sodipodi:docname="logo-vert.svg"
   inkscape:version="1.2.2 (732a01da63, 2022-12-09)"
   xmlns:inkscape="http://www.inkscape.org/namespaces/inkscape"
   xmlns:sodipodi="http://sodipodi.sourceforge.net/DTD/sodipodi-0.dtd"
   xmlns:xlink="http://www.w3.org/1999/xlink"
   xmlns="http://www.w3.org/2000/svg"
   xmlns:svg="http://www.w3.org/2000/svg"><sodipodi:namedview
     id="namedview26654"
     pagecolor="#ffffff"
     bordercolor="#000000"
     borderopacity="0.25"
     inkscape:showpageshadow="2"
     inkscape:pageopacity="0.0"
     inkscape:pagecheckerboard="0"
     inkscape:deskcolor="#d1d1d1"
     showgrid="false"
     inkscape:zoom="9.2476304"
     inkscape:cx="140.84689"
     inkscape:cy="41.632287"
     inkscape:window-width="2560"
     inkscape:window-height="1017"
     inkscape:window-x="-8"
     inkscape:window-y="-8"
     inkscape:window-maximized="1"
     inkscape:current-layer="g14235"
     showguides="true" /><defs
     id="defs8"><linearGradient
       id="a"><stop
         style="stop-color:#f60;stop-opacity:1"
         offset="0"
         id="stop2" /><stop
         style="stop-color:#f0f;stop-opacity:1"
         offset="1"
         id="stop4" /></linearGradient><linearGradient
       xlink:href="#a"
       id="b"
       x1="9.9110003"
       y1="27.725"
       x2="19.257"
       y2="36.005001"
       gradientUnits="userSpaceOnUse"
       gradientTransform="matrix(4.4152805,0,0,4.4152805,-32.030169,-119.53467)" /><linearGradient
       inkscape:collect="always"
       xlink:href="#a"
       id="linearGradient6994"
       x1="-15.234996"
       y1="8.1326065"
       x2="0.87738293"
       y2="8.1326065"
       gradientUnits="userSpaceOnUse"
       gradientTransform="matrix(2.9680604,0,0,2.9680604,53.34285,-0.09763342)" /><inkscape:path-effect
       effect="fill_between_many"
       method="originald"
       linkedpaths="#rect22398,0,1"
       id="path-effect23404" /></defs><path
     id="path23406"
     style="fill:#ffd5d5;fill-opacity:0.9040404;stroke:#e20000;stroke-opacity:1;stroke-width:0.793755;stroke-dasharray:none"
     d="M 32.621094,0.99804688 C 31.074816,1.1226023 29.915578,2.2942715 29.151013,3.5521453 c -0.313205,0.6555106 -0.95762,1.2340886 -0.847091,2.0027132 -0.181827,0.5083809 0.202136,1.091236 0.03137,1.5256937 -1.037892,1.1454255 -1.453975,2.7443821 -2.720972,3.6934508 -0.811799,0.691342 -1.822644,1.245445 -2.160731,2.330481 -1.529302,3.817299 -3.262924,7.665725 -3.633273,11.809578 -0.149471,1.573367 0.431342,3.091418 1.31836,4.365235 -0.988277,0.03888 -1.976339,0.08506 -2.960938,0.181641 -1.454506,1.83873 -2.753416,3.821465 -4.30224,5.571566 -1.332091,1.032655 -2.998706,1.576167 -4.2900659,2.639278 -0.674995,1.187341 -0.9706158,2.565881 -1.4487093,3.820406 0.1295269,0.454663 0.4616742,0.822001 0.5839843,1.28125 3.0215589,-0.02924 6.0546229,0.03839 9.0800779,0.09961 -0.420926,0.951379 -0.839889,1.903625 -1.259765,2.855469 0.909001,0.543356 2.007475,0.642096 3.001953,0.976562 2.076454,0.351796 4.18701,-0.0065 6.279284,0.08871 6.410985,-0.05058 12.826865,0.0011 19.234943,-0.05286 1.221631,-0.237296 2.446952,-0.457377 3.661554,-0.729217 -0.117181,-1.127409 -0.35224,-2.238222 -0.490234,-3.363281 2.572924,-0.0043 5.146132,0.01614 7.71875,-0.0332 -0.717376,-1.543335 -1.293745,-3.173825 -2.111103,-4.657302 -1.958055,-2.241516 -4.331644,-4.189263 -5.773663,-6.834885 -0.518771,-0.805607 -0.460923,-1.746736 -0.441958,-2.66367 0.0391,-2.679866 -0.0056,-5.407772 -0.851373,-7.978642 C 46.163035,18.297545 45.611188,16.04559 44.508086,14.055486 43.531947,12.67652 42.086917,11.671058 41.185547,10.248047 40.880466,9.4628658 39.892479,9.1703577 39.617511,8.3400903 39.06884,7.8347271 38.466147,7.1569079 38.743338,6.3512998 38.698635,5.1846317 37.97806,4.1851033 37.539675,3.1373139 36.781532,1.8307634 35.343299,0.70110592 33.753906,0.953125 33.405398,0.78523769 32.98827,1.0036009 32.621094,0.99804688 Z" /><path
     id="path3018"
     style="fill:url(#linearGradient6994);fill-opacity:1;stroke-width:0.118056"
     d="m 33.635577,0.93224798 c 0.03635,-0.13167607 -0.926452,0.0408092 -1.153359,0.10191622 -0.09972,0.02686 -0.185214,0.047249 -0.263322,0.055796 -0.239483,0.07063 -0.608551,0.1044801 -0.848981,0.2242217 -0.287007,0.142939 -0.547206,0.3395283 -0.789968,0.5490074 -0.312994,0.2700977 -0.615459,0.557972 -0.870203,0.8835757 -0.341705,0.4367652 -0.639603,0.9086196 -0.910555,1.3924666 l -0.507502,0.9064069 c 0.0061,0.060527 0.09352,0.4256488 0.02259,0.6122998 -0.09056,0.2381401 -0.08733,0.4671325 0.01129,0.8194774 0.136285,0.4868046 0.13421,0.4924026 -0.462304,1.2326729 -0.329599,0.4089986 -0.659696,0.9334869 -0.733497,1.1655804 -0.07377,0.2320966 -0.306881,0.6078953 -0.518106,0.8351541 -0.211249,0.2272739 -0.430771,0.5004759 -0.487907,0.6071139 -0.05714,0.106647 -0.528993,0.509016 -1.048445,0.894185 -0.519446,0.38517 -1.007429,0.777402 -1.084411,0.87159 -0.382172,0.467566 -2.046644,4.574809 -2.889844,7.130655 -1.531071,4.640861 -1.685371,7.183067 -0.549932,9.06913 0.280659,0.466177 0.52806,0.887443 0.5497,0.936151 0.02167,0.04872 -0.222756,0.08852 -0.543015,0.08852 -0.320269,0 -0.987037,0.03428 -1.481701,0.07609 l -0.899258,0.07609 -1.273025,1.655557 c -0.793102,1.214115 -1.890183,2.459479 -2.669178,3.567533 -0.213752,0.314569 -0.744385,0.676486 -2.101036,1.432586 -0.998351,0.556409 -2.002544,1.119268 -2.2315462,1.250892 -0.3886,0.223336 -0.461922,0.368632 -1.097096,2.178045 l -0.6804359,1.938709 0.3004379,0.635012 0.300437,0.635015 4.4759972,0.03596 c 2.461824,0.01984 4.507824,0.06794 4.546554,0.106769 0.03873,0.03883 -0.05689,0.304436 -0.212378,0.590281 -0.155454,0.285817 -0.378241,0.785121 -0.495284,1.109775 -0.117056,0.324654 -0.282918,0.695096 -0.368464,0.823168 -0.08559,0.128074 -0.155637,0.269945 -0.155637,0.315204 0,0.104938 0.903297,0.406124 2.479188,0.826626 v -2.35e-4 c 1.227319,0.327496 1.265278,0.330271 3.836831,0.265184 1.428478,-0.0362 6.980095,-0.06379 12.336893,-0.06156 l 9.739655,0.0046 1.888904,-0.361544 c 1.038895,-0.198857 1.904581,-0.375829 1.923719,-0.393139 0.01892,-0.0174 -0.07384,-0.668117 -0.20661,-1.446193 -0.132744,-0.778079 -0.241436,-1.528203 -0.241436,-1.667085 v -0.2527 h 3.836834 c 2.110242,0 3.836831,-0.01404 3.836831,-0.03159 0,-0.0174 -0.424428,-0.987006 -0.9433,-2.154531 -0.51886,-1.167524 -0.944988,-2.176061 -0.947216,-2.240992 -0.0023,-0.06492 -0.851377,-0.994631 -1.88729,-2.06599 -1.045427,-0.943853 -2.019133,-2.164991 -2.848568,-3.158114 -0.439433,-0.453891 -0.829412,-1.030895 -1.176876,-1.741332 l -0.5197,-1.062489 -0.0055,-2.951409 c -0.0061,-3.233856 -0.06416,-3.705939 -0.829159,-6.729217 -0.507649,-2.006271 -1.450821,-4.878153 -1.935248,-5.893175 -0.278033,-0.582528 -0.717717,-1.11472 -2.009961,-2.432378 -0.909804,-0.927709 -1.6544,-1.753874 -1.6544,-1.835871 0,-0.320677 -0.164824,-0.5367373 -0.720561,-0.9446798 C 40.151286,9.1736616 39.89116,8.892246 39.89116,8.7817071 c 0,-0.1105236 -0.26561,-0.4628136 -0.590277,-0.7825843 -0.520655,-0.5128194 -0.590287,-0.639276 -0.590287,-1.0726502 0,-0.2702503 0.09841,-0.7982396 10e-4,-1.0742893 C 38.624982,5.6065956 38.552521,5.3644081 38.537565,5.2738922 L 38.369902,4.9019669 C 38.274182,4.6896797 38.150961,4.4903617 38.057466,4.2770977 37.970872,4.0795531 37.921089,3.8667195 37.8301,3.6711345 37.731206,3.4585421 37.608534,3.2576308 37.489305,3.0557244 37.412754,2.9260629 37.336294,2.7954856 37.24329,2.6771115 37.092751,2.4854578 36.941937,2.2908312 36.760478,2.1281041 36.541964,1.9321467 36.142428,1.5437389 35.888385,1.3967434 35.637669,1.2516677 35.373805,1.1180382 35.093121,1.0464954 34.721166,0.92992823 34.330521,0.91665074 33.939994,0.93813891 c -0.09798,-0.004273 -0.32614,0.072431 -0.304588,-0.005494 z M 33.508479,1.5693172 c 0.354723,-0.00336 0.617788,0.054239 0.718028,0.1749881 0.0818,0.098559 0.154813,0.3774866 0.162077,0.6197962 0.01099,0.3684305 -0.029,0.4465174 -0.245343,0.4772998 -0.142268,0.020145 -0.384944,-0.045876 -0.539097,-0.1468765 -0.363519,-0.2381707 -1.386469,-0.3865092 -1.386469,-0.2010547 0,0.073743 0.146083,0.1376891 0.324652,0.1422675 0.823799,0.021061 0.775155,0.165465 -0.228739,0.6779028 -0.539692,0.2755003 -1.349595,0.7253904 -1.799903,0.9995599 L 29.6949,4.8114815 29.72115,5.5788502 c 0.05226,1.5363672 -0.798954,3.5711226 -1.872309,4.4757648 -0.682783,0.575468 -1.0548,1.253405 -1.058814,1.928792 -0.0013,0.243512 -0.04719,0.442711 -0.101672,0.442711 -0.189242,0 -0.373305,-0.604794 -0.373305,-1.227368 0,-0.500378 0.06721,-0.718492 0.334571,-1.086489 0.183962,-0.253249 0.422569,-0.5329156 0.530325,-0.6216428 0.107746,-0.08873 0.248365,-0.3543563 0.312436,-0.5902805 0.06407,-0.2359425 0.40189,-0.7553213 0.750535,-1.1540488 L 28.876778,7.0213502 28.758258,6.44352 C 28.642759,5.8795716 28.655304,5.8356338 29.27383,4.6302454 30.153758,2.9154867 30.909711,2.1493359 32.053691,1.812341 c 0.501947,-0.1478838 0.991721,-0.2294411 1.382781,-0.2416503 0.02442,-7.6e-4 0.04853,-0.00116 0.07219,-0.00138 z m 1.288927,0.4867558 c 0.0079,1.984e-4 0.01679,7.569e-4 0.02625,0.00183 0.27141,0.029913 1.185194,0.3892288 1.530812,0.6179496 0.57396,0.3798216 0.930181,0.9905586 1.478245,2.5349839 0.363849,1.0249062 0.42318,1.3235398 0.364084,1.8224956 -0.07029,0.5933298 -0.06712,0.6002829 0.546245,1.2329049 0.771853,0.7961244 0.851496,0.8679357 1.502221,1.3537301 0.292166,0.2181171 0.54678,0.5018469 0.565609,0.6304059 0.02014,0.136896 -0.109669,0.371614 -0.313123,0.566531 -0.335032,0.320973 -0.350315,0.324346 -0.424498,0.09062 C 40.030981,10.77423 39.79418,10.504825 39.546846,10.308941 39.275344,10.093938 38.920533,9.6124537 38.651742,9.0940242 38.406856,8.6217088 38.077993,8.0621924 37.920802,7.8507415 37.72399,7.5859853 37.563617,7.0897308 37.405688,6.2569789 37.083664,4.5589284 37.105891,4.6293175 36.695507,4.0097562 36.31382,3.4335193 35.512315,2.8635488 35.083531,2.8635488 c -0.182191,0 -0.256423,-0.094682 -0.300437,-0.3836828 -0.03199,-0.2110358 -0.04676,-0.3968504 -0.03272,-0.4131985 0.0067,-0.00794 0.02289,-0.011293 0.04682,-0.010683 z m -0.117361,0.970734 c 0.156186,1.251e-4 0.285695,0.025334 0.432565,0.073774 1.086948,0.3587272 1.778555,1.5167531 1.964996,3.2899023 0.137078,1.3034587 0.136895,2.2191415 -0.07936,2.9636332 -0.28771,0.7727585 -0.819737,0.3850654 -1.145048,0.2534016 -1.345873,-0.550387 -1.369806,-0.5554233 -1.698447,-0.3560137 -0.271654,0.1648545 -0.36572,0.1676626 -0.788118,0.022282 -0.551697,-0.1900665 -0.851878,-0.106403 -1.62489,0.4535499 -0.256546,0.1858238 -0.512621,0.3377977 -0.56907,0.3377977 -0.05647,0 -0.280109,-0.332035 -0.497131,-0.737853 -0.383652,-0.7174789 -0.39562,-0.782386 -0.43533,-2.3578989 -0.02656,-1.0462936 0.0055,-1.7077995 0.09111,-1.8672331 0.07268,-0.1357967 0.371916,-0.3496925 0.664756,-0.4752212 0.292868,-0.1255104 0.75396,-0.4070451 1.024696,-0.6257909 0.664521,-0.5369051 0.850736,-0.6229737 1.831258,-0.8459958 0.339864,-0.077284 0.571051,-0.1187039 0.759296,-0.126823 0.0235,-0.00103 0.0464,-0.00138 0.06871,-0.00138 z m -4.892425,4.6702647 0.147334,0.7230951 c 0.126518,0.6203121 0.300194,0.9729927 1.002326,2.0364732 0.04469,0.0677 0.438682,-0.114216 0.935922,-0.432336 0.923277,-0.5907108 1.072953,-0.6280525 1.522278,-0.3792996 0.25505,0.1411993 0.345953,0.1343316 0.715486,-0.054209 0.461431,-0.2353931 0.398993,-0.2504409 2.143231,0.5162656 0.395446,0.173828 0.452628,0.174561 0.620489,0.0067 0.281177,-0.2811777 0.445952,-0.630162 0.65646,-1.3903914 l 0.191623,-0.6924114 0.455397,0.8695138 c 0.250441,0.4782521 0.653399,1.13514 0.895336,1.459794 0.570346,0.765342 0.818476,1.529118 0.816245,2.512852 -0.0027,1.094502 -0.139734,1.265503 -0.592124,0.738286 -0.400779,-0.467068 -0.42904,-0.394857 -0.157712,0.401435 0.417734,1.22601 -0.01129,3.335956 -1.029302,5.060982 -0.565325,0.958067 -2.077957,2.536312 -3.057943,3.190749 -0.356255,0.237896 -0.731058,0.432565 -0.832849,0.432565 -0.350111,0 -2.88663,-1.541605 -3.452694,-2.098496 -1.888226,-1.857643 -3.421673,-5.370171 -2.920302,-6.688873 0.104174,-0.273974 0.08757,-0.302971 -0.174073,-0.302971 -0.476042,0 -0.666707,-0.519183 -0.52157,-1.420367 0.151821,-0.942607 0.224435,-1.075221 1.098021,-2.003268 0.453543,-0.4818235 0.874077,-1.0871518 1.130295,-1.6267368 z m 11.19115,3.6357703 c 0.141626,-0.0011 0.42914,0.296225 1.345428,1.245355 0.734254,0.760583 1.466179,1.608569 1.626501,1.884524 0.726126,1.249845 1.805766,4.507879 2.309017,6.968329 0.735954,3.598001 0.993488,8.219098 0.508198,9.120072 -0.196019,0.363888 -0.640976,0.73596 -1.118997,0.93569 -0.632383,0.264207 -1.146189,0.216805 -1.628577,-0.150081 -1.346142,-1.023923 -2.481529,-1.944212 -2.444373,-1.981365 0.02381,-0.0235 0.221749,0.0082 0.44041,0.07103 0.857451,0.245893 0.388865,-0.10973 -1.176416,-0.892802 -0.981808,-0.491182 -2.148738,-0.663502 -2.846267,-0.420347 -0.210974,0.07356 -0.405613,0.111805 -0.432565,0.08485 -0.108784,-0.108783 1.510102,-1.090368 2.876243,-1.743865 l 1.453335,-0.695197 0.240277,0.240277 c 0.235271,0.235271 1.627463,0.947912 1.851786,0.947912 0.12841,0 0.04557,-0.944582 -0.305517,-3.482664 -0.125785,-0.909053 -0.322341,-2.388807 -0.436964,-3.288538 -0.205083,-1.609842 -0.217506,-1.650249 -0.780505,-2.538214 -0.314674,-0.496282 -0.76692,-1.300928 -1.004868,-1.78791 -0.237957,-0.486981 -0.449347,-0.91632 -0.469919,-0.954135 -0.02045,-0.03782 0.228159,-0.01435 0.552932,0.05232 0.324777,0.06651 0.624512,0.08681 0.666139,0.0452 0.101886,-0.101886 -0.488886,-0.608268 -1.08372,-0.928771 l -0.482834,-0.260086 0.0174,-1.013625 c 0.01007,-0.59224 0.08336,-1.134688 0.175934,-1.304619 0.04945,-0.09075 0.08366,-0.152828 0.148037,-0.153317 z m -15.195152,0.149166 0.133049,0.324654 c 0.321279,0.784297 0.316615,0.812533 -0.125663,0.760898 -0.693372,-0.08095 -0.715125,0.03263 -0.08394,0.437641 0.70455,0.452109 0.764997,0.709918 0.252028,1.07519 -0.687591,0.489622 -0.707147,0.608731 -0.700499,4.272397 0.0034,1.837519 0.04542,3.695344 0.09361,4.128514 l 0.0876,0.78766 -0.320503,-0.228281 c -0.17627,-0.12551 -0.454005,-0.387043 -0.61726,-0.581059 -0.631282,-0.750233 -0.499066,-0.279774 0.237255,0.84392 0.775723,1.183812 1.787641,2.04393 3.591732,3.053328 l 1.582466,0.885422 -0.471076,0.07261 c -0.25911,0.03986 -0.790054,0.160093 -1.179643,0.267229 -0.389583,0.107135 -1.159915,0.246656 -1.711816,0.310132 -0.990015,0.113881 -1.964791,0.126761 -2.65627,0.03504 -1.200758,-0.159269 -3.174907,-1.047734 -3.393427,-1.52736 -0.180879,-0.396991 0.07866,-2.43503 0.557539,-4.378 0.480867,-1.951037 1.145807,-3.97 2.077515,-6.308642 1.095853,-2.750616 1.319083,-3.161846 2.024252,-3.729613 z m 2.786545,10.291659 c 0.0235,-0.004 0.07808,0.02503 0.141352,0.07747 0.426561,0.354012 4.476055,1.669866 5.144676,1.671697 0.21424,5.8e-4 -0.01801,0.224283 -0.981802,0.945144 -0.694321,0.519446 -1.309985,0.94445 -1.368027,0.94445 -0.103564,0 -2.948414,-3.496271 -2.948414,-3.623548 0,-0.0089 0.0046,-0.01404 0.01221,-0.01526 z m 3.184296,5.953782 c 1.082384,-0.0027 2.260714,0.171417 2.865404,0.481905 0.325939,0.167327 0.887538,1.190695 1.056516,1.925337 0.07664,0.33321 -0.258896,0.653777 -0.867207,0.828237 -0.337132,0.0967 -0.348407,0.0869 -0.348407,-0.302513 0,-0.405027 -0.558793,-1.706282 -0.73278,-1.706282 -0.145686,0 -0.113179,0.16168 0.154019,0.765754 0.286977,0.648735 0.241772,1.310644 -0.131188,1.923948 -0.388374,0.638623 -0.588669,0.502872 -0.588669,-0.399134 0,-0.784831 -0.149745,-1.250278 -0.584746,-1.816498 -0.35664,-0.46422 -0.39219,-0.21305 -0.06828,0.482816 0.294882,0.633437 0.360302,1.103487 0.224343,1.610819 -0.115834,0.432199 -0.364129,0.305077 -0.576679,-0.295158 -0.376217,-1.062357 -0.560215,-1.433941 -0.83954,-1.696356 -0.352922,-0.331589 -0.351994,-0.238628 0.0034,0.462771 0.155759,0.307397 0.32127,0.863449 0.367775,1.235673 l 0.08436,0.676749 h -0.349831 c -0.294119,0 -0.383778,-0.07524 -0.563308,-0.47338 -0.117452,-0.260453 -0.548503,-0.85812 -0.957822,-1.328131 -0.769673,-0.883789 -1.025981,-1.4526 -0.736468,-1.633656 0.08809,-0.05509 0.443234,-0.159391 0.789272,-0.23173 0.34603,-0.07234 0.605494,-0.155179 0.576448,-0.184237 -0.029,-0.029 -0.28423,-8e-4 -0.566995,0.06273 -0.752766,0.169158 -0.702345,0.06587 0.09038,-0.184908 0.435608,-0.137811 1.050631,-0.2031 1.700062,-0.204748 z m -6.325008,1.444804 0.831464,0.0572 c 1.15627,0.07948 2.664929,0.672897 3.294514,1.295852 0.263047,0.26027 0.356407,0.374801 0.207525,0.254562 -0.264756,-0.213813 -0.268815,-0.2136 -0.186068,0.01099 0.04655,0.126243 0.336666,0.686685 0.6447,1.245359 0.828485,1.502575 1.781754,3.42887 1.724963,3.485661 -0.02717,0.02717 -0.249067,-0.193729 -0.492748,-0.491133 -0.243695,-0.297385 -0.464196,-0.519244 -0.490214,-0.493208 -0.04771,0.04771 1.260584,2.215283 3.114432,5.159891 1.079237,1.714258 3.85918,5.730464 4.046658,5.846329 0.06273,0.03876 0.113912,0.121665 0.113912,0.184237 0,0.06257 -0.491413,-0.271685 -1.09202,-0.742926 -1.152629,-0.904472 -2.640047,-2.350448 -5.318306,-5.169693 -0.894417,-0.941496 -1.562864,-1.580216 -1.485391,-1.419446 0.244673,0.50775 1.5758,2.619228 2.338301,3.709093 0.817777,1.168864 0.915695,1.210345 -0.942147,-0.400745 -0.411812,-0.357122 -0.701469,-0.56962 -0.643543,-0.472224 0.739398,1.243249 1.569143,2.330037 2.87624,3.767422 l 0.86836,0.954831 -0.396133,-0.01343 c -0.217903,-0.0073 -1.615025,-0.136227 -3.104518,-0.286308 -2.535344,-0.255417 -2.721315,-0.290426 -2.91588,-0.547314 -0.437843,-0.578053 -1.996184,-3.893417 -2.462816,-5.239907 -0.493254,-1.423314 -1.290037,-4.518064 -1.540268,-5.981909 l -0.135827,-0.794803 0.772439,-0.854759 c 0.424876,-0.470166 0.762195,-0.864401 0.749613,-0.875969 -0.01251,-0.0116 -0.52776,0.07463 -1.144596,0.191623 -0.616838,0.116964 -1.132551,0.202398 -1.146207,0.189792 -0.05039,-0.04658 0.633751,-1.008482 1.264264,-1.777303 z m 13.186576,0.02747 c 1.072214,-0.01068 1.518301,0.136193 2.052843,0.605499 0.476662,0.418516 0.489045,0.553021 0.123588,1.337821 -0.341259,0.732842 -3.050163,3.515004 -3.359538,3.45038 -0.420795,-0.08788 -0.116872,-0.792745 0.993791,-2.304404 0.298179,-0.405815 0.486762,-0.737853 0.418965,-0.737853 -0.209785,0 -1.553369,1.674865 -1.917725,2.390641 -0.324276,0.637026 -0.61338,0.840419 -0.853602,0.6002 -0.275042,-0.275042 0.237469,-1.487255 1.083257,-2.562195 0.839214,-1.066588 0.846722,-1.162323 0.02961,-0.369618 -0.801178,0.777118 -1.323411,1.528432 -1.543036,2.219093 -0.121665,0.382547 -0.168914,0.426128 -0.322579,0.298606 -0.135858,-0.112721 -0.164671,-0.298881 -0.117117,-0.759292 0.07863,-0.761838 0.315248,-1.224917 0.998864,-1.955774 0.832111,-0.889583 0.495293,-0.812528 -0.437403,0.100085 -0.78375,0.766843 -0.832855,0.795987 -0.832855,0.494823 0,-0.187015 0.168944,-0.532373 0.40651,-0.831006 0.22352,-0.281025 0.528786,-0.743903 0.678364,-1.028841 0.404756,-0.771034 0.635989,-0.874068 2.098036,-0.934308 0.180818,-0.0073 0.346954,-0.01251 0.500128,-0.01404 z m -17.318555,0.557996 -0.579213,0.508427 c -0.592497,0.520157 -3.042389,3.192461 -2.982075,3.252774 0.01831,0.01862 0.498678,-0.130058 1.067351,-0.329727 0.568664,-0.199651 1.065841,-0.33122 1.104699,-0.292379 0.06736,0.06739 -0.37361,3.966657 -0.541398,4.787047 l -0.08024,0.391756 -3.303503,0.805413 c -1.816965,0.443028 -3.307776,0.807811 -3.312727,0.810711 -0.0052,0.0034 -0.622379,-0.406264 -1.372175,-0.909401 L 9.9347758,37.867753 11.130101,37.213139 c 0.657357,-0.359963 1.457325,-0.80917 1.777764,-0.998174 0.465725,-0.274737 0.566628,-0.301598 0.502661,-0.134881 -0.163603,0.42629 0.641181,-0.296866 1.200624,-1.078883 0.30117,-0.420997 1.184911,-1.600099 1.96407,-2.620067 0.779172,-1.019964 1.522931,-1.995106 1.652788,-2.166978 0.225901,-0.298972 0.297446,-0.315589 1.652791,-0.384375 z m 26.129439,1.151738 c 0.0052,2.32e-4 0.01038,0.0027 0.01526,0.0079 0.05192,0.05659 0.534814,1.085659 1.073117,2.286881 0.951663,2.123633 1.28028,2.767533 1.367563,2.680249 0.0235,-0.0235 -0.117635,-0.516399 -0.313361,-1.095713 l -0.35601,-1.053283 0.392903,0.413198 c 0.216072,0.227274 1.204119,1.244516 2.195575,2.260366 l 1.802665,1.846935 -1.193246,1.045448 -1.193244,1.04521 1.316605,0.118094 1.316376,0.118093 0.470841,0.531258 c 0.258866,0.292166 0.574674,0.677348 0.701885,0.855907 0.260605,0.365778 0.258652,0.366312 -0.552237,0.134667 -0.324657,-0.09276 -1.969466,-0.526093 -3.655372,-0.96313 L 47.750853,40.346346 47.541709,39.401892 C 47.42676,38.88245 47.114083,37.547033 46.846976,36.434117 l -0.485602,-2.023562 0.238171,-0.942146 c 0.401023,-1.585812 0.706167,-2.532735 0.822017,-2.558502 0.0018,-4.25e-4 0.0034,-5.38e-4 0.0055,-4.49e-4 z m -6.008656,0.644129 c 0.512077,0.367604 0.788084,0.456447 1.38301,0.732777 0.591258,0.277637 1.023362,0.392181 1.605752,0.425878 0.438292,0.02533 0.796885,0.05509 0.796885,0.06621 0,0.01099 0.189914,0.576365 0.421955,1.255961 0.271227,0.794263 0.776141,3.006613 1.413452,6.193812 0.545292,2.727095 1.025724,5.077901 1.067577,5.223999 0.10625,0.371104 -0.05406,0.332117 -1.368253,-0.334346 l -1.121536,-0.568853 -0.440635,-1.57001 C 44.934018,42.115466 44.602844,40.904073 44.440455,40.287226 44.190655,39.338374 44.0867,39.12025 43.76624,38.870551 43.557921,38.70823 42.609822,37.931918 41.659209,37.145363 l -1.728421,-1.43005 0.204046,-0.990107 c 0.112233,-0.544526 0.266344,-1.149482 0.342413,-1.344277 0.134942,-0.345605 0.818003,-1.732059 0.891649,-1.809813 0.0116,-0.01221 0.02869,-0.01801 0.04936,-0.0174 z"
     sodipodi:nodetypes="sscsssccscssssssssssccccsscccccsssssccscccssscsssscccccsssssssssccssssssccssccssscscccscssssscccssssscscssssssssssssccssssscsssssssssssssssssscccscsssssssssscccssssscssscscssssssssccccssccssscccssscccssssscccssssssssssssssssssssccccsssssscssccsssssscscssssssscccsssccssscccsssssssssccsssssssssccssccccscccsssssccscssccsccccsccsscccccccsccssssccccsscccsscccccssccccccc" /><g
     aria-label="MEME"
     id="text7515"
     style="font-weight:bold;font-size:13.8237px;font-family:arial;-inkscape-font-specification:'arial Bold';text-align:center;direction:rtl;text-anchor:middle;fill:#ff24a4;stroke:#e20000;stroke-width:0.396877;stroke-linecap:round;stroke-linejoin:round;paint-order:markers stroke fill;stop-color:#000000"><path
       d="m 2.3557335,58.570607 q 0,0.843246 -0.8432457,0.843246 -0.84324572,0 -0.84324572,-0.843246 v -4.561821 q 0,-0.89854 0.2626503,-1.672668 Q 1.2083664,51.548167 1.733667,50.981396 2.2727913,50.4008 3.0745659,50.069032 3.8901642,49.737263 4.9684128,49.737263 h 1.2164856 q 1.3408989,0 2.211792,0.497653 0.8847168,0.497653 1.3685463,1.340899 0.4838293,-0.843246 1.3547223,-1.340899 0.870893,-0.497653 2.211792,-0.497653 h 1.216486 q 1.078248,0 1.880023,0.331769 0.815598,0.331768 1.340899,0.912364 0.539124,0.566771 0.801775,1.354722 0.276474,0.774128 0.276474,1.672668 v 4.561821 q 0,0.843246 -0.843246,0.843246 -0.829422,0 -0.829422,-0.843246 v -4.506526 q 0,-0.594419 -0.179708,-1.105896 -0.179708,-0.525301 -0.539125,-0.898541 -0.359416,-0.387063 -0.89854,-0.594419 -0.525301,-0.221179 -1.244133,-0.221179 h -0.857069 q -0.718833,0 -1.257957,0.221179 -0.525301,0.207356 -0.884717,0.594419 -0.345592,0.37324 -0.525301,0.898541 -0.179708,0.511477 -0.179708,1.105896 v 4.506526 q 0,0.843246 -0.8432453,0.843246 -0.8432457,0 -0.8432457,-0.843246 v -4.506526 q 0,-0.594419 -0.1797081,-1.105896 Q 8.5625748,52.432884 8.2031586,52.059644 7.8575661,51.672581 7.3184418,51.465225 6.7793175,51.244046 6.0743088,51.244046 H 5.2034157 q -0.7050087,0 -1.244133,0.221179 -0.5391243,0.207356 -0.8985405,0.594419 -0.3455925,0.37324 -0.5253006,0.884717 -0.1797081,0.511477 -0.1797081,1.105896 v 4.52035 z"
       style="font-weight:normal;font-family:SpaceColonyW03-Medium;-inkscape-font-specification:'SpaceColonyW03-Medium, Normal'"
       id="path15715" /><path
       d="m 25.70397,51.244046 q -0.732657,0 -1.313252,0.193532 -0.566772,0.193532 -0.981483,0.539124 -0.414711,0.345593 -0.677361,0.829422 -0.248827,0.470006 -0.345592,1.022954 h 8.805696 q 0.760304,0 0.760304,0.74648 0,0.359416 -0.207356,0.552948 -0.193531,0.193532 -0.552948,0.193532 h -8.805696 q 0.09676,0.566771 0.345592,1.036777 0.26265,0.470006 0.677361,0.815598 0.414711,0.345593 0.981483,0.539125 0.580595,0.193531 1.313252,0.193531 h 6.580081 q 0.760303,0 0.760303,0.760304 0,0.359416 -0.193532,0.552948 -0.193531,0.193532 -0.566771,0.193532 h -6.75979 q -1.230309,0 -2.156497,-0.37324 -0.912364,-0.387064 -1.520607,-1.036778 -0.608243,-0.649714 -0.912364,-1.53443 -0.304121,-0.884717 -0.304121,-1.893847 0,-1.00913 0.304121,-1.893847 0.304121,-0.884717 0.912364,-1.534431 0.608243,-0.663537 1.520607,-1.036777 0.926188,-0.37324 2.156497,-0.37324 h 6.75979 q 0.760303,0 0.760303,0.74648 0,0.760303 -0.760303,0.760303 H 25.70397 Z"
       style="font-weight:normal;font-family:SpaceColonyW03-Medium;-inkscape-font-specification:'SpaceColonyW03-Medium, Normal'"
       id="path15717" /><path
       d="m 36.375867,58.570607 q 0,0.843246 -0.843245,0.843246 -0.843246,0 -0.843246,-0.843246 v -4.561821 q 0,-0.89854 0.26265,-1.672668 0.276474,-0.787951 0.801775,-1.354722 0.539124,-0.580596 1.340899,-0.912364 0.815598,-0.331769 1.893847,-0.331769 h 1.216485 q 1.340899,0 2.211792,0.497653 0.884717,0.497653 1.368547,1.340899 0.483829,-0.843246 1.354722,-1.340899 0.870893,-0.497653 2.211792,-0.497653 h 1.216486 q 1.078248,0 1.880023,0.331769 0.815598,0.331768 1.340899,0.912364 0.539124,0.566771 0.801774,1.354722 0.276474,0.774128 0.276474,1.672668 v 4.561821 q 0,0.843246 -0.843245,0.843246 -0.829422,0 -0.829422,-0.843246 v -4.506526 q 0,-0.594419 -0.179708,-1.105896 -0.179708,-0.525301 -0.539125,-0.898541 -0.359416,-0.387063 -0.89854,-0.594419 -0.525301,-0.221179 -1.244133,-0.221179 h -0.857069 q -0.718833,0 -1.257957,0.221179 -0.525301,0.207356 -0.884717,0.594419 -0.345592,0.37324 -0.525301,0.898541 -0.179708,0.511477 -0.179708,1.105896 v 4.506526 q 0,0.843246 -0.843245,0.843246 -0.843246,0 -0.843246,-0.843246 v -4.506526 q 0,-0.594419 -0.179708,-1.105896 Q 42.582709,52.432884 42.223293,52.059644 41.8777,51.672581 41.338576,51.465225 40.799451,51.244046 40.094443,51.244046 H 39.22355 q -0.705009,0 -1.244133,0.221179 -0.539125,0.207356 -0.898541,0.594419 -0.345592,0.37324 -0.5253,0.884717 -0.179709,0.511477 -0.179709,1.105896 v 4.52035 z"
       style="font-weight:normal;font-family:SpaceColonyW03-Medium;-inkscape-font-specification:'SpaceColonyW03-Medium, Normal'"
       id="path15719" /><path
       d="m 59.7241,51.244046 q -0.732656,0 -1.313252,0.193532 -0.566771,0.193532 -0.981482,0.539124 -0.414711,0.345593 -0.677362,0.829422 -0.248826,0.470006 -0.345592,1.022954 h 8.805697 q 0.760303,0 0.760303,0.74648 0,0.359416 -0.207355,0.552948 -0.193532,0.193532 -0.552948,0.193532 h -8.805697 q 0.09677,0.566771 0.345592,1.036777 0.262651,0.470006 0.677362,0.815598 0.414711,0.345593 0.981482,0.539125 0.580596,0.193531 1.313252,0.193531 h 6.580081 q 0.760303,0 0.760303,0.760304 0,0.359416 -0.193531,0.552948 -0.193532,0.193532 -0.566772,0.193532 h -6.759789 q -1.23031,0 -2.156498,-0.37324 -0.912364,-0.387064 -1.520607,-1.036778 -0.608242,-0.649714 -0.912364,-1.53443 -0.304121,-0.884717 -0.304121,-1.893847 0,-1.00913 0.304121,-1.893847 0.304122,-0.884717 0.912364,-1.534431 0.608243,-0.663537 1.520607,-1.036777 0.926188,-0.37324 2.156498,-0.37324 h 6.759789 q 0.760303,0 0.760303,0.74648 0,0.760303 -0.760303,0.760303 H 59.7241 Z"
       style="font-weight:normal;font-family:SpaceColonyW03-Medium;-inkscape-font-specification:'SpaceColonyW03-Medium, Normal'"
       id="path15721" /></g><g
     aria-label="NTOR"
     id="text7515-0"
     style="font-weight:bold;font-size:7.14311px;font-family:arial;-inkscape-font-specification:'arial Bold';text-align:center;direction:rtl;text-anchor:middle;fill:#ff24a4;stroke:#e20000;stroke-width:0.264585;stroke-linecap:round;stroke-linejoin:round;paint-order:markers stroke fill;stop-color:#000000"><path
       d="m 44.036955,63.312228 q 0,-0.364298 -0.107146,-0.678595 -0.107147,-0.314297 -0.328584,-0.542876 -0.221436,-0.235723 -0.550019,-0.364299 -0.328583,-0.135719 -0.764313,-0.135719 h -1.442908 q -0.442873,0 -0.771456,0.135719 -0.32144,0.128576 -0.542876,0.364299 -0.221437,0.228579 -0.328583,0.542876 -0.107147,0.314297 -0.107147,0.678595 v 2.064359 q 0,0.43573 -0.435729,0.43573 -0.43573,0 -0.43573,-0.43573 v -2.064359 q 0,-0.521447 0.157148,-0.978606 0.157149,-0.457159 0.471445,-0.792885 0.32144,-0.342869 0.792886,-0.535733 0.471445,-0.192864 1.107182,-0.192864 h 1.628629 q 0.628593,0 1.100039,0.192864 0.478588,0.192864 0.792885,0.535733 0.32144,0.335726 0.478588,0.792885 0.157149,0.457159 0.157149,0.978606 v 2.064359 q 0,0.43573 -0.43573,0.43573 -0.43573,0 -0.43573,-0.43573 z"
       style="font-weight:normal;font-family:SpaceColonyW03-Medium;-inkscape-font-specification:'SpaceColonyW03-Medium, Normal'"
       id="path15724" /><path
       d="m 49.19428,61.590739 v 3.785848 q 0,0.43573 -0.435729,0.43573 -0.428587,0 -0.428587,-0.43573 V 61.590739 H 45.81559 q -0.392872,0 -0.392872,-0.392871 0,-0.385728 0.392872,-0.385728 h 5.893065 q 0.392871,0 0.392871,0.385728 0,0.392871 -0.392871,0.392871 z"
       style="font-weight:normal;font-family:SpaceColonyW03-Medium;-inkscape-font-specification:'SpaceColonyW03-Medium, Normal'"
       id="path15726" /><path
       d="m 56.973128,60.81214 q 0.635737,0 1.107182,0.192864 0.478589,0.192864 0.792886,0.535733 0.314296,0.335726 0.471445,0.792885 0.157148,0.457159 0.157148,0.978606 0,0.521447 -0.157148,0.978607 -0.157149,0.457159 -0.471445,0.792885 -0.314297,0.335726 -0.792886,0.535733 -0.471445,0.192864 -1.107182,0.192864 h -1.885781 q -0.635736,0 -1.114325,-0.192864 -0.471445,-0.200007 -0.785742,-0.535733 -0.314297,-0.335726 -0.471445,-0.792885 -0.157148,-0.45716 -0.157148,-0.978607 0,-0.521447 0.157148,-0.978606 0.157148,-0.457159 0.471445,-0.792885 0.314297,-0.342869 0.785742,-0.535733 0.478589,-0.192864 1.114325,-0.192864 z m 1.657202,2.500088 q 0,-0.364298 -0.107147,-0.678595 -0.107146,-0.314297 -0.328583,-0.542876 -0.214293,-0.235723 -0.542876,-0.364299 -0.328583,-0.135719 -0.764313,-0.135719 h -1.707203 q -0.442873,0 -0.771456,0.135719 -0.32144,0.128576 -0.542876,0.364299 -0.221437,0.228579 -0.328583,0.542876 -0.107147,0.314297 -0.107147,0.678595 0,0.364299 0.107147,0.678596 0.107146,0.314297 0.328583,0.550019 0.221436,0.22858 0.542876,0.364299 0.328583,0.128576 0.771456,0.128576 h 1.707203 q 0.43573,0 0.764313,-0.128576 0.328583,-0.135719 0.542876,-0.364299 0.221437,-0.235722 0.328583,-0.550019 0.107147,-0.314297 0.107147,-0.678596 z"
       style="font-weight:normal;font-family:SpaceColonyW03-Medium;-inkscape-font-specification:'SpaceColonyW03-Medium, Normal'"
       id="path15728" /><path
       d="m 66.259173,64.998002 q 0,-0.435729 -0.250009,-0.714311 -0.242865,-0.278581 -0.771456,-0.278581 h -3.871565 v 1.371477 q 0,0.43573 -0.43573,0.43573 -0.43573,0 -0.43573,-0.43573 V 61.24787 q 0,-0.43573 0.43573,-0.43573 h 4.721596 q 0.371441,0 0.64288,0.11429 0.278581,0.11429 0.464302,0.314297 0.185721,0.192864 0.278581,0.457159 0.09286,0.264295 0.09286,0.571448 0,0.457159 -0.200007,0.814315 -0.200007,0.357155 -0.607164,0.52859 0.400014,0.157148 0.600021,0.500018 0.20715,0.342869 0.20715,0.771456 v 0.492874 q 0,0.43573 -0.435729,0.43573 -0.43573,0 -0.43573,-0.43573 z m -4.89303,-3.407263 v 1.635772 h 4.057286 q 0.421444,0 0.621451,-0.235722 0.20715,-0.235723 0.20715,-0.578592 0,-0.350013 -0.20715,-0.585735 -0.200007,-0.235723 -0.621451,-0.235723 z"
       style="font-weight:normal;font-family:SpaceColonyW03-Medium;-inkscape-font-specification:'SpaceColonyW03-Medium, Normal'"
       id="path15730" /></g><path
     style="fill:#ff289c;fill-opacity:1;stroke:#e20000;stroke-width:0.34740011;stroke-linecap:round;stroke-linejoin:round;stroke-dasharray:none;stroke-opacity:1;paint-order:markers stroke fill;stop-color:#000000"
     d="m 30.429865,11.462179 c 0.464468,0.124659 0.900501,0.399908 1.398472,0.358898 0.867811,0.01313 1.742077,0.02598 2.599337,-0.130451 0.606705,-0.101269 1.220567,-0.281021 1.707286,-0.672852 0.214536,-0.142742 0.453592,-0.364166 0.731399,-0.255774 0.334776,0.101545 0.545806,0.514462 0.369216,0.833409 -0.216434,0.485436 -0.773519,0.658042 -1.247185,0.782329 -1.205298,0.315149 -2.448466,0.541543 -3.699207,0.476148 -0.355893,-0.01617 -0.715751,0.0137 -1.069084,-0.02465 -0.23186,-0.0278 -0.657447,-0.203116 -0.535308,-0.476645 0.04717,-0.105655 0.122334,-0.224396 -0.07584,-0.213369 -0.290971,-0.01509 -0.619853,-0.687592 -0.179086,-0.677046 z"
     id="path14397"
     sodipodi:nodetypes="aaaaaaaaasaa" /><path
     style="fill:none;fill-opacity:1;stroke:#e20000;stroke-width:0.17374;stroke-linecap:round;stroke-linejoin:round;stroke-dasharray:none;stroke-opacity:1;paint-order:markers stroke fill;stop-color:#000000"
     d="m 30.717354,12.256005 c 1.050635,0.116057 2.113456,0.122729 3.18264,0.05094 1.007374,-0.117764 2.003592,-0.30088 2.767801,-0.845103"
     id="path14399"
     sodipodi:nodetypes="ccc" /><g
     id="g14235"><g
       id="g16499"
       transform="matrix(1.0385655,0,0,1.0385655,-1.3011962,0.22666376)"><path
         style="fill:#ff26a1;fill-opacity:1;stroke:none;stroke-width:0.105834;stroke-linecap:round;stroke-linejoin:round;stroke-dasharray:none;stroke-opacity:1;paint-order:normal;stop-color:#000000"
         d="m 30.478171,7.2317425 c 0.585117,0.2629926 1.217732,0.4419139 1.86374,0.4301607 0.322331,0.0085 0.64835,0.094767 0.966856,6.4e-5 0.220649,-0.038611 0.442004,-0.098496 0.555583,-0.3038701 0.205051,-0.053191 0.346114,0.1814064 0.545133,0.2122658 0.559785,0.2259924 1.189983,0.16847 1.763942,0.032098 0.261963,-0.085349 0.481806,-0.2645256 0.748967,-0.3384386 0.23869,-0.077594 0.433289,-0.4229084 0.09613,-0.5186643 C 36.784159,6.6119116 36.494192,6.6429892 36.262183,6.4983151 35.976588,6.3845926 35.726166,6.1516427 35.401723,6.1642229 35.021071,6.1520251 34.631922,6.1344057 34.266675,6.2642702 33.952176,6.3294399 33.662286,6.5619043 33.330308,6.5024861 33.102915,6.3941975 32.877146,6.2772157 32.628524,6.2214179 32.236497,6.1076406 31.823151,6.0922251 31.421727,6.1630685 c -0.274686,0.033081 -0.585362,0.020752 -0.791822,0.2391962 -0.20907,0.1717164 -0.412668,0.4428675 -0.330806,0.7281189 0.02618,0.077064 0.115953,0.076445 0.179072,0.1013589 z"
         id="path4607"
         sodipodi:nodetypes="aaaaaaaaaaaaaaaaaaaaaaaaaaaaaaaaaaaaa" /><path
         id="path4551"
         style="fill:#ff26a1;fill-opacity:1;stroke:none;stroke-width:0.105834;stroke-linecap:round;stroke-linejoin:round;stroke-dasharray:none;stroke-opacity:1;paint-order:normal;stop-color:#000000"
         d="m 31.262128,5.8684287 c -0.241462,0.043725 -0.584396,0.054918 -0.733567,0.2683158 -0.03671,0.05252 0,0.1922376 0,0.1922376 0.134004,-0.04142 0.277494,-0.1611667 0.417448,-0.1778892 0.367927,-0.069433 0.676381,-0.1454292 1.052846,-0.1644003 0.380311,-0.033531 0.808579,0.012271 1.176846,0.1196437 0.25007,0.1168895 0.956169,0.2364394 0.411438,0.012718 C 33.03056,5.8311987 32.369422,5.650196 31.262128,5.8684287 Z"
         sodipodi:nodetypes="cacccccc" /><path
         style="fill:#ffffff;stroke:none;stroke-width:0.0995744;stroke-linecap:round;stroke-linejoin:round;stroke-dasharray:none;stroke-opacity:1;paint-order:normal;stop-color:#000000"
         d="m 30.638758,6.8667889 c 0.09965,-0.3202423 0.432064,-0.5025129 0.750286,-0.5299185 0.493008,-0.087607 1.017327,-0.077216 1.49211,0.087071 0.218987,0.1333103 0.46224,0.3243529 0.734579,0.231254 0.304996,-0.083096 0.587822,-0.2407013 0.906356,-0.2753951 0.342998,-0.061062 0.699565,-0.081863 1.041569,-0.00322 0.241467,0.1552862 0.492261,0.3033675 0.777906,0.358408 0.153025,0.078339 0.495515,0.058937 0.528166,0.198959 C 36.709801,7.2203191 36.352105,7.2780312 36.082582,7.420786 35.601901,7.6071836 35.065655,7.6044117 34.568858,7.490404 34.352299,7.434562 34.175498,7.2934211 33.987434,7.182157 33.703506,7.0684676 33.697171,7.5192865 33.406065,7.485344 32.659817,7.57671 31.885173,7.542226 31.170056,7.2943014 30.975305,7.2228994 30.557564,7.1598872 30.638758,6.8667863 Z"
         id="path885"
         sodipodi:nodetypes="aaaaaaaaaaaaaaaaaaaacaaaaaaaaacaaaaaaaaaaaa" /><path
         d="m 32.443074,7.4763447 c 0.192745,-0.066461 0.363093,-0.2296792 0.426224,-0.4083874 0.03238,-0.091683 0.03341,-0.1066305 0.01685,-0.244176 -0.01541,-0.127881 -0.02338,-0.1557614 -0.06265,-0.2192493 -0.105104,-0.1698748 -0.313482,-0.2903843 -0.53654,-0.3102979 -0.125752,-0.011221 -0.186996,-0.00394 -0.306435,0.0364 -0.210325,0.071038 -0.367547,0.2179239 -0.434181,0.4056239 -0.174254,0.4908558 0.354327,0.9271136 0.89672,0.7400952 z M 32.299985,6.8864992 c -0.02103,-0.016575 -0.03977,-0.042958 -0.04161,-0.058629 -0.01031,-0.086838 0.127118,-0.1359745 0.200363,-0.071656 0.09579,0.084115 -0.0576,0.2100015 -0.158749,0.1302833 z m -0.464627,-0.048006 c -0.15025,-0.1056263 -0.05598,-0.3464866 0.126422,-0.3230124 0.09356,0.012037 0.169442,0.12668 0.143875,0.2173631 -0.03318,0.1176878 -0.17456,0.1729483 -0.270293,0.1056446 z m 0.460318,-0.2436328 c -0.04785,-0.015307 -0.0942,-0.089117 -0.08899,-0.1417575 0.0102,-0.1033926 0.130756,-0.1572533 0.203194,-0.090778 0.05542,0.050869 0.06179,0.1325985 0.01495,0.1920326 -0.03854,0.048911 -0.07101,0.059092 -0.129124,0.040501 z"
         style="fill:#ff299a;fill-opacity:1;stroke-width:0.0140267"
         id="path796" /><path
         d="m 35.674499,7.540393 c 0.192745,-0.066461 0.363094,-0.2296794 0.426223,-0.4083877 0.03238,-0.091683 0.03342,-0.1066305 0.01685,-0.2441758 -0.0154,-0.1278811 -0.02338,-0.1557615 -0.06264,-0.2192494 -0.105103,-0.1698747 -0.313481,-0.2903842 -0.536538,-0.3102978 -0.125754,-0.011222 -0.186995,-0.00394 -0.306434,0.0364 -0.210326,0.071038 -0.367549,0.217924 -0.434183,0.4056241 -0.174254,0.4908558 0.354328,0.9271135 0.896719,0.7400949 z m -0.14309,-0.5898456 c -0.02103,-0.016575 -0.03977,-0.042958 -0.04161,-0.058629 -0.01031,-0.086838 0.127117,-0.1359745 0.200365,-0.071656 0.09579,0.084115 -0.0576,0.2100016 -0.158751,0.1302833 z m -0.464627,-0.048006 c -0.15025,-0.1056263 -0.05599,-0.3464864 0.126422,-0.3230121 0.09356,0.012037 0.169443,0.12668 0.143877,0.2173631 -0.03318,0.1176866 -0.174563,0.1729482 -0.270293,0.1056446 z m 0.460319,-0.2436332 c -0.04785,-0.015308 -0.0942,-0.089117 -0.089,-0.1417574 0.0102,-0.1033926 0.130756,-0.1572533 0.203195,-0.090778 0.05542,0.050869 0.06179,0.1325985 0.01496,0.1920326 -0.03855,0.04891 -0.07101,0.059092 -0.129124,0.040501 z"
         style="fill:#ff299a;fill-opacity:1;stroke-width:0.0140267"
         id="path796-6" /><path
         style="fill:none;stroke:#ff289b;stroke-width:0.105834;stroke-linecap:round;stroke-linejoin:round;stroke-dasharray:none;stroke-opacity:1;paint-order:markers stroke fill;stop-color:#000000"
         d="m 33.682759,6.6309025 c -0.02196,0.089857 -0.03102,0.1283909 -0.0202,0.2215981 0.0071,0.057777 0.01231,0.1181613 0.04005,0.1703639 0.02403,0.037248 0.06211,0.063747 0.08142,0.1044633 0.01257,0.021783 0.0244,0.043984 0.03586,0.066356"
         id="path4547" /><path
         style="fill:#ff26a1;fill-opacity:1;stroke:none;stroke-width:0.105834;stroke-linecap:round;stroke-linejoin:round;stroke-dasharray:none;stroke-opacity:1;paint-order:normal;stop-color:#000000"
         d="M 36.075331,5.9524348 C 35.85149,5.7676992 35.563224,5.7057735 35.279585,5.7021741 c -0.316221,-0.00402 -0.645852,0.00415 -0.944754,0.1152361 -0.177379,0.1111705 -0.398026,0.2206875 -0.601318,0.1010354 -0.340405,-0.1705333 -0.725789,-0.2199842 -1.099412,-0.2670631 -0.521082,-0.038822 -1.048756,0.021293 -1.555689,0.1422393 -0.166601,0.04478 -0.384328,0.1035605 -0.350074,0.321334 -0.314596,0.040699 -0.118521,0.4042419 -0.271806,0.5436114 -0.166159,-0.095589 -0.20719,-0.3861307 -0.06418,-0.5250445 0.145566,-0.1743265 0.179427,-0.43998 0.367745,-0.5600191 0.562939,-0.3588328 1.317011,-0.3523384 1.981656,-0.2898197 0.343551,0.032316 0.634942,0.3049459 0.978405,0.3381882 0.551173,0.053346 1.092526,-0.268606 1.645032,-0.2315293 0.276011,0.018522 0.41158,0.046979 0.798974,0.2244276 1.136345,0.6538014 0.767979,0.8831814 -0.08883,0.3376644 z"
         id="path4315"
         sodipodi:nodetypes="caaaaaaaaaaaacc" /><path
         style="fill:#ff26a1;fill-opacity:1;stroke:none;stroke-width:0.105834;stroke-linecap:round;stroke-linejoin:round;stroke-dasharray:none;stroke-opacity:1;paint-order:normal;stop-color:#000000"
         d="m 33.739654,7.4836783 c 0.03427,0.05775 0.0606,0.1229406 0.09987,0.1760018 0.117644,0.072572 0.242397,0.1515308 0.386401,0.1448433 0.140925,-0.014436 0.207287,0.1414349 0.344431,0.1441591 0.311028,0.063771 0.628715,0.00678 0.942035,-0.00601 0.374528,-0.032243 0.757364,-0.076892 1.104425,-0.2298671 0.151449,-0.070549 0.297812,-0.1515474 0.441727,-0.2362775 0.02194,0.037749 0.06355,0.077446 0.01002,0.1077226 -0.257724,0.3261971 -0.719993,0.466291 -1.034554,0.5172018 -0.447622,0.083258 -0.912918,0.1647565 -1.359593,0.083266 C 34.556723,8.1632463 34.462554,8.0686972 34.347005,8.03769 34.216363,8.002632 34.058785,8.066742 33.943333,7.996262 33.796048,7.906348 33.643019,7.7339851 33.660976,7.5623609 c 0.0039,-0.036889 0.05245,-0.052454 0.07868,-0.078681 z"
         id="path4516"
         sodipodi:nodetypes="ccaaaaaccaaaaac" /></g></g></svg>
